<?xml version="1.0" standalone="no"?>
<!DOCTYPE svg PUBLIC "-//W3C//DTD SVG 1.1//EN" "http://www.w3.org/Graphics/SVG/1.1/DTD/svg11.dtd" >
<svg xmlns="http://www.w3.org/2000/svg" xmlns:xlink="http://www.w3.org/1999/xlink" version="1.1">
<metadata>
Created by FontForge 20170731 at Fri Dec 10 16:52:53 2021
 By Aleksey,,,
Copyright 2020 The League Spartan Project Authors (https://github.com/theleagueof/league-spartan)
</metadata>
<defs>
<font id="LeagueSpartan-Bold" horiz-adv-x="0" >
  <font-face 
    font-family="League Spartan"
    font-weight="700"
    font-stretch="normal"
    units-per-em="2000"
    panose-1="0 0 0 0 0 0 0 0 0 0"
    ascent="1600"
    descent="-400"
    x-height="821"
    cap-height="1320"
    bbox="-275 -585 2406 2244"
    underline-thickness="50"
    underline-position="-175"
    unicode-range="U+000D-FB02"
  />
<missing-glyph horiz-adv-x="757" 
d="M71 1320l308 -660l308 -660l-308 660zM134 64l245 596l245 596l-245 -596zM621 1320l-242 -660l-243 -660l242 660z" />
    <glyph glyph-name="fi" unicode="fi" horiz-adv-x="1230" 
d="M21 821h136v217q0 120 51 200t132 121t168 41q108 0 164.5 -29t71.5 -43l-116 -223q-5 8 -25 23t-53 15q-21 0 -42 -11t-34.5 -39t-13.5 -82v-190h203v-250h-203v-571h-303v571h-136v250zM800 0v821h304v-821h-304zM956 990q-72 0 -122 50.5t-50 120.5t50.5 121.5
t121.5 51.5q47 0 86 -23.5t63 -62.5t24 -87q0 -70 -51 -120.5t-122 -50.5z" />
    <glyph glyph-name="fl" unicode="fl" horiz-adv-x="1206" 
d="M21 821h136v217q0 120 51 200t132 121t168 41q108 0 164.5 -29t71.5 -43l-116 -223q-5 8 -25 23t-53 15q-21 0 -42 -11t-34.5 -39t-13.5 -82v-190h203v-250h-203v-571h-303v571h-136v250zM1094 0h-305v1376h305v-1376z" />
    <glyph glyph-name="f_f" unicode="ff" horiz-adv-x="1402" 
d="M21 821h136v217q0 120 51 200t132 121t168 41q108 0 164.5 -29t71.5 -43l-116 -223q-5 8 -25 23t-53 15q-21 0 -42 -11t-34.5 -39t-13.5 -82v-190h203v-250h-203v-571h-303v571h-136v250zM717 821h136v217q0 120 51 200t132 121t168 41q108 0 164.5 -29t71.5 -43
l-116 -223q-5 8 -25 23t-53 15q-21 0 -42 -11t-34.5 -39t-13.5 -82v-190h203v-250h-203v-571h-303v571h-136v250z" />
    <glyph glyph-name="f_f_i" unicode="ffi" horiz-adv-x="1926" 
d="M21 821h136v217q0 120 51 200t132 121t168 41q108 0 164.5 -29t71.5 -43l-116 -223q-5 8 -25 23t-53 15q-21 0 -42 -11t-34.5 -39t-13.5 -82v-190h203v-250h-203v-571h-303v571h-136v250zM717 821h136v217q0 120 51 200t132 121t168 41q108 0 164.5 -29t71.5 -43
l-116 -223q-5 8 -25 23t-53 15q-21 0 -42 -11t-34.5 -39t-13.5 -82v-190h203v-250h-203v-571h-303v571h-136v250zM1496 0v821h304v-821h-304zM1652 990q-72 0 -122 50.5t-50 120.5t50.5 121.5t121.5 51.5q47 0 86 -23.5t63 -62.5t24 -87q0 -70 -51 -120.5t-122 -50.5z" />
    <glyph glyph-name="f_f_l" unicode="ffl" horiz-adv-x="1902" 
d="M21 821h136v217q0 120 51 200t132 121t168 41q108 0 164.5 -29t71.5 -43l-116 -223q-5 8 -25 23t-53 15q-21 0 -42 -11t-34.5 -39t-13.5 -82v-190h203v-250h-203v-571h-303v571h-136v250zM717 821h136v217q0 120 51 200t132 121t168 41q108 0 164.5 -29t71.5 -43
l-116 -223q-5 8 -25 23t-53 15q-21 0 -42 -11t-34.5 -39t-13.5 -82v-190h203v-250h-203v-571h-303v571h-136v250zM1790 0h-305v1376h305v-1376z" />
    <glyph glyph-name=".notdef" horiz-adv-x="757" 
d="M71 1320l308 -660l308 -660l-308 660zM134 64l245 596l245 596l-245 -596zM621 1320l-242 -660l-243 -660l242 660z" />
    <glyph glyph-name=".null" 
 />
    <glyph glyph-name="nonmarkingreturn" horiz-adv-x="666" 
 />
    <glyph glyph-name="CR" unicode="&#xd;" horiz-adv-x="1200" 
 />
    <glyph glyph-name="space" unicode=" " horiz-adv-x="530" 
 />
    <glyph glyph-name="exclam" unicode="!" horiz-adv-x="607" 
d="M187 431l-62 945h328l-62 -945h-204zM288 -24q-49 0 -90 24.5t-66 65.5t-25 91q0 76 53.5 130t127.5 54q77 0 130 -54t53 -130q0 -74 -53 -127.5t-130 -53.5z" />
    <glyph glyph-name="quotedbl" unicode="&#x22;" horiz-adv-x="819" 
d="M217 1344q55 0 96 -37t41 -83v-7q0 -19 -10.5 -69.5t-27 -116.5t-35.5 -137t-37 -133h-83q-13 62 -27 133t-26 137t-19 116.5t-7 69.5v7q0 46 41 83t94 37zM571 1344q55 0 96 -37t41 -83v-7q0 -19 -10.5 -69.5t-27 -116.5t-35.5 -137t-37 -133h-83q-12 62 -26 133
t-26 137t-19.5 116.5t-7.5 69.5v7q0 46 41 83t94 37z" />
    <glyph glyph-name="numbersign" unicode="#" horiz-adv-x="1330" 
d="M511 1320h204l-349 -1320h-203zM931 1320h203l-349 -1320h-203zM258 975h945l-59 -196h-945zM154 543h945l-59 -195h-945z" />
    <glyph glyph-name="dollar" unicode="$" horiz-adv-x="1119" 
d="M465 1534h172v-227h-172v227zM465 21h172v-227h-172v227zM564 1344q123 0 215 -27t148 -57t68 -40l-144 -241q-16 12 -54.5 35t-91 41t-109.5 18q-77 0 -124.5 -27.5t-47.5 -81.5q0 -37 25.5 -66.5t78 -56t133.5 -57.5q74 -27 139 -64t114.5 -87.5t78.5 -116.5t29 -150
q0 -100 -41 -173.5t-111.5 -121.5t-160 -71.5t-185.5 -23.5q-136 0 -243.5 31t-173.5 67t-79 48l149 251q12 -9 46.5 -29t84.5 -41.5t106.5 -36.5t111.5 -15q92 0 138 35.5t46 93.5q0 43 -29 77t-87 64.5t-145 64.5q-87 35 -162.5 85t-122.5 125t-47 186t62.5 192.5
t165 125.5t219.5 44z" />
    <glyph glyph-name="percent" unicode="%" horiz-adv-x="1598" 
d="M1109 1320h198l-826 -1320h-198zM52 1029q0 87 44 158.5t122.5 114t182.5 42.5q103 0 181 -42.5t122 -114t44 -158.5q0 -85 -43.5 -156.5t-121.5 -115t-182 -43.5q-105 0 -183.5 43.5t-122 115t-43.5 156.5zM258 1029q0 -65 39.5 -105t102.5 -40q62 0 100.5 40t38.5 105
q0 64 -38.5 105.5t-100.5 41.5t-102 -41.5t-40 -105.5zM839 291q0 87 44 158t123 114t182 43t181.5 -43t122.5 -114t44 -158q0 -85 -43.5 -157t-122 -115t-182.5 -43q-105 0 -183.5 43t-122 115t-43.5 157zM1046 291q0 -65 39 -105t103 -40q61 0 99.5 40t38.5 105
q0 64 -38.5 105.5t-99.5 41.5q-63 0 -102.5 -41.5t-39.5 -105.5z" />
    <glyph glyph-name="ampersand" unicode="&#x26;" horiz-adv-x="1394" 
d="M34 356q0 74 27.5 132t71 101t91.5 72t90 46.5t66 24.5q-23 11 -50 37t-51 63t-39.5 84t-15.5 101q0 86 48 160.5t141.5 120.5t228.5 46q132 0 218.5 -43.5t130 -118.5t43.5 -170q0 -64 -28.5 -117.5t-72.5 -96t-89.5 -73t-80.5 -48.5l189 -200q25 19 72 69t99 123
l198 -180q-16 -24 -45 -60t-63 -72.5t-67 -62.5l279 -294h-375l-130 138q-51 -41 -115 -78t-145 -60.5t-185 -23.5q-116 0 -216.5 43t-162.5 127.5t-62 209.5zM525 554q-11 -5 -30 -15t-40 -24.5t-39 -34t-30 -43.5t-12 -54q0 -44 20.5 -72.5t56 -42t79.5 -13.5
q41 0 79 13.5t69.5 32.5t50.5 36zM641 1118q-40 0 -68.5 -15t-42.5 -39t-14 -51q0 -28 13.5 -57.5t31.5 -54.5t32.5 -41.5t18.5 -20.5q11 5 35.5 18.5t51 36t45 53t18.5 66.5q0 44 -32 74.5t-89 30.5z" />
    <glyph glyph-name="quotesingle" unicode="'" horiz-adv-x="484" 
d="M227 1344q55 0 95.5 -39.5t40.5 -115.5q0 -97 -36 -212t-73 -216h-84q-17 67 -35.5 142t-31 149t-12.5 137q0 77 41 116t95 39z" />
    <glyph glyph-name="parenleft" unicode="(" horiz-adv-x="654" 
d="M364 -417q-61 74 -126.5 206t-111.5 308t-46 378q0 156 28.5 298t75 263t100 214t102.5 150l178 -79q-47 -60 -99.5 -180t-88.5 -289t-36 -377q0 -195 32.5 -357t79.5 -278.5t91 -175.5z" />
    <glyph glyph-name="parenright" unicode=")" horiz-adv-x="654" 
d="M265 -417l-178 81q44 59 91 175.5t79 278.5t32 357q0 208 -36 377t-88 289t-100 180l179 79q49 -57 102.5 -150t99.5 -214t75 -263t29 -298q0 -202 -46 -378t-111.5 -308t-127.5 -206z" />
    <glyph glyph-name="asterisk" unicode="*" horiz-adv-x="830" 
d="M471 1188l181 57l43 -126l-192 -64l125 -150l-116 -83l-112 147l-111 -148l-118 84l128 150l-193 64l41 126l183 -57l1 189h139z" />
    <glyph glyph-name="plus" unicode="+" horiz-adv-x="1062" 
d="M641 541v-288h-247v288h-288v245h288v288h247v-288h286v-245h-286z" />
    <glyph glyph-name="comma" unicode="," horiz-adv-x="580" 
d="M275 340q76 0 129.5 -52.5t53.5 -153.5q0 -89 -37 -174t-98 -153t-133 -107l-80 90q34 18 74 49t73.5 71t46.5 85q-19 -11 -55 -11q-61 0 -108.5 47t-47.5 127q0 51 24.5 92.5t66 65.5t91.5 24z" />
    <glyph glyph-name="hyphen" unicode="-" horiz-adv-x="756" 
d="M106 326v258h515v-258h-515z" />
    <glyph glyph-name="period" unicode="." horiz-adv-x="607" 
d="M288 -24q-74 0 -127.5 53.5t-53.5 127.5q0 76 53.5 129.5t127.5 53.5q76 0 129 -53.5t53 -129.5q0 -74 -53 -127.5t-129 -53.5z" />
    <glyph glyph-name="slash" unicode="/" horiz-adv-x="992" 
d="M689 1376h240l-659 -1568h-240z" />
    <glyph glyph-name="zero" unicode="0" horiz-adv-x="1186" 
d="M43 659q0 172 43.5 300.5t119 214t172 128t202.5 42.5t202.5 -42.5t171.5 -128t118 -214t43 -300.5q0 -183 -43 -313t-118 -211.5t-171.5 -120t-202.5 -38.5t-202.5 38.5t-172 120t-119 211.5t-43.5 313zM343 659q0 -143 29 -236t82 -138.5t126 -45.5t125.5 45.5t81 139
t28.5 235.5q0 134 -28.5 228t-81 144t-125.5 50t-126 -50t-82 -144t-29 -228z" />
    <glyph glyph-name="one" unicode="1" horiz-adv-x="655" 
d="M234 941l-210 -110v284l368 205h141v-1320h-299v941z" />
    <glyph glyph-name="two" unicode="2" horiz-adv-x="1139" 
d="M559 1090q-66 0 -116.5 -31.5t-85 -73.5t-52.5 -76.5t-20 -40.5l-256 117q2 13 19 52.5t54 91.5t97.5 101t149.5 81.5t210 32.5q140 0 232.5 -40t146 -104.5t76.5 -139.5t23 -144q0 -86 -34.5 -166.5t-89.5 -152t-118 -131t-120.5 -104t-97.5 -70.5t-48 -32h497v-260
h-947v237q15 11 68 49t127.5 95t155 125.5t150 141.5t113.5 143t44 129q0 93 -46.5 131.5t-131.5 38.5z" />
    <glyph glyph-name="three" unicode="3" horiz-adv-x="1076" 
d="M67 1056q11 40 43 90t87.5 95t136 74t186.5 29q126 0 223.5 -46.5t153.5 -129.5t56 -194q0 -67 -24 -122.5t-62 -92.5t-80 -48q49 -6 98.5 -45t84 -104t34.5 -153q0 -126 -63.5 -223.5t-173.5 -153.5t-252 -56q-147 0 -249.5 52t-163 127t-80.5 145l274 136
q12 -43 40.5 -90t73.5 -79.5t104 -32.5q61 0 104 24t66.5 65.5t23.5 95.5q0 56 -26.5 93t-70.5 55t-97 18h-26v214h34q46 0 83 18.5t58.5 53t21.5 81.5q0 63 -43 107.5t-125 44.5q-50 0 -87.5 -17.5t-62.5 -44t-39.5 -54t-18.5 -47.5z" />
    <glyph glyph-name="four" unicode="4" horiz-adv-x="1052" 
d="M849 1320v-781h153v-261h-153v-278h-298v278h-544v237l499 805h343zM551 539v398h-2l-241 -398h243z" />
    <glyph glyph-name="five" unicode="5" horiz-adv-x="1080" 
d="M298 372q9 -28 25 -54t40 -47t58 -33t80 -12q93 0 144.5 59.5t50.5 154.5q-1 91 -49.5 143t-132.5 52q-54 0 -93 -19t-63.5 -44t-34.5 -46l-247 90l117 704h742v-260h-491l-41 -249q5 7 31.5 22t70 27.5t98.5 12.5q98 0 188 -43t148 -135t58 -238t-62.5 -254.5
t-171.5 -167.5t-250 -59q-107 0 -187.5 25.5t-137.5 67.5t-92.5 91.5t-53.5 97.5z" />
    <glyph glyph-name="six" unicode="6" horiz-adv-x="1125" 
d="M620 879q104 0 199.5 -53t156.5 -151.5t61 -235.5q0 -135 -66 -239t-177.5 -164t-246.5 -60q-137 0 -248.5 56.5t-178 163t-66.5 254.5q0 164 53.5 275t120.5 193l328 402h350l-407 -476q12 13 42 24t79 11zM546 220q58 0 105.5 28t76 76.5t28.5 106.5t-28.5 105.5
t-76 75.5t-105.5 28t-106 -28t-76.5 -75.5t-28.5 -105.5t28.5 -106.5t76.5 -76.5t106 -28z" />
    <glyph glyph-name="seven" unicode="7" horiz-adv-x="1090" 
d="M103 1320h949v-201l-637 -1119h-330l618 1060h-600v260z" />
    <glyph glyph-name="eight" unicode="8" horiz-adv-x="1122" 
d="M549 -24q-130 0 -240 50t-177 138.5t-67 202.5q0 92 30.5 158t84 111.5t118.5 75.5q-49 28 -89.5 65.5t-64 90.5t-23.5 130q0 106 58 183.5t154.5 120t213.5 42.5q119 0 214.5 -42.5t151 -120t55.5 -183.5q0 -114 -49 -178.5t-123 -107.5q66 -30 118.5 -75.5t84 -111.5
t31.5 -158q0 -114 -66.5 -202.5t-176 -138.5t-238.5 -50zM547 236q48 0 86.5 23t62 61.5t23.5 85.5t-23.5 86t-62 61.5t-86.5 22.5t-86.5 -23t-62 -61.5t-23.5 -85.5t23.5 -85.5t62 -61.5t86.5 -23zM548 806q42 0 76.5 20.5t55.5 56t21 77.5t-21 76.5t-55.5 55.5t-76.5 21
t-77 -21t-56 -55.5t-21 -76.5t21 -77t56 -56t77 -21z" />
    <glyph glyph-name="nine" unicode="9" horiz-adv-x="1125" 
d="M178 0l407 476q-12 -12 -42 -23.5t-79 -11.5q-103 0 -198.5 53t-157 151.5t-61.5 235.5q0 135 66.5 239t177.5 164t246 60q138 0 249 -56.5t177.5 -163t66.5 -254.5q0 -163 -53 -274.5t-121 -193.5l-328 -402h-350zM538 680q59 0 106.5 28t76 76t28.5 106t-28.5 106
t-76.5 76t-106 28t-105.5 -28.5t-76 -76t-28.5 -105.5t28.5 -106t76.5 -76t105 -28z" />
    <glyph glyph-name="colon" unicode=":" horiz-adv-x="568" 
d="M285 -24q-74 0 -127.5 53.5t-53.5 127.5q0 76 53.5 129.5t127.5 53.5q76 0 129 -53.5t53 -129.5q0 -74 -53 -127.5t-129 -53.5zM285 557q-74 0 -127.5 53.5t-53.5 127.5q0 76 53.5 129.5t127.5 53.5q76 0 129 -53.5t53 -129.5q0 -74 -53 -127.5t-129 -53.5z" />
    <glyph glyph-name="semicolon" unicode=";" horiz-adv-x="574" 
d="M266 558q-74 0 -127.5 53.5t-53.5 127.5q0 76 53.5 129.5t127.5 53.5q76 0 129 -53.5t53 -129.5q0 -74 -53 -127.5t-129 -53.5zM262 340q76 0 129.5 -52.5t53.5 -153.5q0 -89 -37 -174t-98 -153t-133 -107l-80 90q34 18 74 49t73.5 71t46.5 85q-19 -11 -55 -11
q-61 0 -108.5 47t-47.5 127q0 51 24.5 92.5t66 65.5t91.5 24z" />
    <glyph glyph-name="less" unicode="&#x3c;" horiz-adv-x="1090" 
d="M963 182l-875 371v225l875 373v-264l-563 -222l563 -220v-263z" />
    <glyph glyph-name="equal" unicode="=" horiz-adv-x="1040" 
d="M96 732v247h820v-247h-820zM96 348v246h820v-246h-820z" />
    <glyph glyph-name="greater" unicode="&#x3e;" horiz-adv-x="1090" 
d="M90 182v263l563 220l-563 222v264l874 -373v-225z" />
    <glyph glyph-name="question" unicode="?" horiz-adv-x="966" 
d="M314 431v186q0 66 31 109.5t85 72.5q36 20 70 46t56 59.5t22 74.5q0 59 -37.5 86t-105.5 27q-52 0 -87.5 -23.5t-57 -57t-31.5 -63.5l-248 99q2 14 18.5 48t50.5 76t87.5 81.5t129 65.5t176.5 26q123 0 220 -38.5t153 -110t56 -170.5q0 -87 -41 -150t-97.5 -106.5
t-101.5 -71.5q-50 -29 -68.5 -66.5t-18.5 -97.5v-102h-261zM449 -24q-75 0 -128 53.5t-53 127.5q0 77 53 130.5t128 53.5q76 0 130 -53.5t54 -130.5q0 -74 -54 -127.5t-130 -53.5z" />
    <glyph glyph-name="at" unicode="@" horiz-adv-x="1523" 
d="M751 -24q-147 0 -274.5 49.5t-224 140.5t-151 216.5t-54.5 278.5q0 152 57.5 277.5t157.5 216.5t230 140t277 49q140 0 268.5 -46t229 -130.5t158.5 -201.5t58 -259q0 -124 -51.5 -201.5t-128.5 -113.5t-155 -36q-66 0 -111.5 30t-66.5 69q-14 -30 -44 -61t-82.5 -51.5
t-135.5 -20.5q-93 0 -166.5 46t-116.5 122.5t-43 167.5t39 161.5t107 111.5t157 41q42 0 79 -11t68.5 -30t56.5 -43v64h187v-313q0 -18 5 -39t21 -36t47 -15q32 0 55 17.5t36 55.5t13 97q0 90 -36 166t-101 133t-153.5 88.5t-193.5 31.5q-102 0 -191.5 -37.5t-157 -103
t-106 -152t-38.5 -184.5t36.5 -182t101 -146.5t151 -97.5t186.5 -35q73 0 130.5 16t96.5 39.5t56 44.5l189 -161q-27 -35 -90.5 -73t-159.5 -64t-222 -26zM759 520q58 0 94.5 39.5t36.5 94.5q0 37 -18 65.5t-47.5 45.5t-65.5 17q-58 0 -96 -37.5t-38 -92.5t37 -93.5
t97 -38.5z" />
    <glyph glyph-name="A" unicode="A" horiz-adv-x="1351" 
d="M511 1320h297l521 -1320h-319l-96 265h-508l-97 -265h-320zM506 527h309l-153 433h-3z" />
    <glyph glyph-name="B" unicode="B" horiz-adv-x="1118" 
d="M91 1320h453q113 0 209.5 -31t156 -101.5t59.5 -190.5q0 -79 -29.5 -141t-78 -101.5t-105.5 -52.5q50 -6 97.5 -28.5t86 -62t61 -98t22.5 -138.5q0 -111 -49.5 -195.5t-144 -132t-231.5 -47.5h-507v1320zM390 239h136q64 0 104.5 19.5t59.5 56t19 87.5q0 80 -49.5 117.5
t-138.5 37.5h-131v-318zM390 791h121q53 0 88.5 19t54 53.5t18.5 79.5q0 81 -46 109.5t-126 28.5h-110v-290z" />
    <glyph glyph-name="C" unicode="C" horiz-adv-x="1289" 
d="M782 272q92 0 167.5 27t112.5 53l128 -254q-47 -40 -160.5 -81t-269.5 -41q-146 0 -274 51t-225.5 143.5t-153 217t-55.5 270.5t55 271.5t152.5 218.5t226 144.5t274.5 51.5q156 0 269.5 -41t160.5 -81l-128 -254q-37 27 -112.5 53.5t-167.5 26.5q-102 0 -178 -31.5
t-127 -86.5t-76 -124t-25 -145q0 -77 25 -146.5t76 -124.5t127 -86.5t178 -31.5z" />
    <glyph glyph-name="D" unicode="D" horiz-adv-x="1201" 
d="M86 1320h397q211 0 349.5 -84.5t207.5 -233.5t69 -341q0 -193 -69 -342t-207.5 -234t-349.5 -85h-397v1320zM384 1055v-790h72q113 0 187 51.5t111.5 141t37.5 201.5q0 113 -36.5 202.5t-111.5 141.5t-188 52h-72z" />
    <glyph glyph-name="E" unicode="E" horiz-adv-x="1069" 
d="M83 1320h843v-262h-545v-269h540v-254h-540v-273h545v-262h-843v1320z" />
    <glyph glyph-name="F" unicode="F" horiz-adv-x="960" 
d="M91 1320h763v-262h-464v-266h429v-261h-429v-531h-299v1320z" />
    <glyph glyph-name="G" unicode="G" horiz-adv-x="1470" 
d="M709 738h673v-84q0 -142 -47.5 -265t-135.5 -216t-210 -145t-270 -52q-153 0 -277.5 52.5t-214.5 146.5t-138 218.5t-48 267.5q0 142 48 266.5t138 218t214.5 146t277.5 52.5q125 0 220.5 -27t164.5 -72t117 -98.5t80 -104.5l-284 -134q-41 63 -111.5 110t-186.5 47
q-81 0 -148.5 -32t-116.5 -87.5t-75.5 -129t-26.5 -155.5q0 -83 26.5 -156t75.5 -129t116.5 -87.5t148.5 -31.5q71 0 129 18t100.5 52t67 80.5t29.5 102.5h-336v228z" />
    <glyph glyph-name="H" unicode="H" horiz-adv-x="1277" 
d="M837 531h-456v-531h-298v1320h298v-528h456v528h297v-1320h-297v531z" />
    <glyph glyph-name="I" unicode="I" horiz-adv-x="541" 
d="M94 1320h299v-1320h-299v1320z" />
    <glyph glyph-name="J" unicode="J" horiz-adv-x="821" 
d="M698 406q0 -135 -50.5 -231.5t-144 -147.5t-220.5 -51q-92 0 -160 23.5t-108 51t-49 41.5l112 259q12 -17 34 -37t54 -34.5t72 -14.5q46 0 82 19t57.5 63t21.5 117v856h299v-914z" />
    <glyph glyph-name="K" unicode="K" horiz-adv-x="1158" 
d="M622 682l502 -682h-357l-406 577v-577h-299v1320h299v-540l374 540h337z" />
    <glyph glyph-name="L" unicode="L" horiz-adv-x="980" 
d="M91 1320h299v-1058h479v-262h-778v1320z" />
    <glyph glyph-name="M" unicode="M" horiz-adv-x="1644" 
d="M1489 1320v-1320h-298v777l13 221l-51 -253l-222 -639h-293l-221 639l-50 253l13 -221v-777h-299v1320h420l266 -881l18 -105l18 105l266 881h420z" />
    <glyph glyph-name="N" unicode="N" horiz-adv-x="1446" 
d="M360 1046l22 -4v-1042h-299v1320h408l535 -1040l-22 -4v1044h299v-1320h-410z" />
    <glyph glyph-name="O" unicode="O" horiz-adv-x="1484" 
d="M352 661q0 -113 46.5 -204.5t129 -145.5t191.5 -54t191.5 54t129 145.5t46.5 204.5t-46.5 204t-129 145.5t-191.5 54.5t-191.5 -54.5t-129 -145.5t-46.5 -204zM41 661q0 144 51 268.5t143 217.5t216 145t268 52q146 0 269.5 -52t215 -145t142 -217.5t50.5 -268.5
q0 -145 -49 -269.5t-140 -218t-215 -145.5t-273 -52q-152 0 -276.5 52t-214.5 145.5t-138.5 218t-48.5 269.5z" />
    <glyph glyph-name="P" unicode="P" horiz-adv-x="1106" 
d="M85 1320h480q127 0 229 -44.5t162.5 -135t60.5 -226.5q0 -135 -60.5 -229.5t-162.5 -144t-229 -49.5h-181v-491h-299v1320zM384 727h98q61 0 109.5 18t77.5 57.5t29 104.5q0 66 -29 104.5t-77.5 55.5t-109.5 17h-98v-357z" />
    <glyph glyph-name="Q" unicode="Q" horiz-adv-x="1460" 
d="M1072 -41q57 0 102.5 13.5t73.5 28.5t32 20l101 -196q-30 -50 -108.5 -95t-198.5 -45q-74 0 -125.5 17t-95.5 39.5t-95.5 39.5t-126.5 17q-61 0 -108 -18.5t-73.5 -37.5t-28.5 -23l-122 144q61 71 163 116.5t232 45.5q83 0 144 -16.5t115.5 -33t118.5 -16.5zM352 661
q0 -113 46.5 -204.5t129 -145.5t191.5 -54t191.5 54t129 145.5t46.5 204.5t-46.5 204t-129 145.5t-191.5 54.5t-191.5 -54.5t-129 -145.5t-46.5 -204zM41 661q0 144 51 268.5t143 217.5t216 145t268 52q146 0 269.5 -52t215 -145t142 -217.5t50.5 -268.5q0 -145 -49 -269.5
t-140 -218t-215 -145.5t-273 -52q-152 0 -276.5 52t-214.5 145.5t-138.5 218t-48.5 269.5z" />
    <glyph glyph-name="R" unicode="R" horiz-adv-x="1183" 
d="M77 1320h538q115 0 205 -48t142.5 -138.5t52.5 -215.5t-44.5 -204.5t-106.5 -119t-115 -47.5l321 -547h-336l-286 524h-72v-524h-299v1320zM376 731h132q80 0 140 39t60 138t-59 137.5t-139 38.5h-134v-353z" />
    <glyph glyph-name="S" unicode="S" horiz-adv-x="1119" 
d="M564 1344q123 0 215 -27t148 -57t68 -40l-144 -241q-16 12 -54.5 35t-91 41t-109.5 18q-77 0 -124.5 -27.5t-47.5 -81.5q0 -37 25.5 -66.5t78 -56t133.5 -57.5q74 -27 139 -64t114.5 -87.5t78.5 -116.5t29 -150q0 -100 -41 -173.5t-111.5 -121.5t-160 -71.5t-185.5 -23.5
q-136 0 -243.5 31t-173.5 67t-79 48l149 251q12 -9 46.5 -29t84.5 -41.5t106.5 -36.5t111.5 -15q92 0 138 35.5t46 93.5q0 43 -29 77t-87 64.5t-145 64.5q-87 35 -162.5 85t-122.5 125t-47 186t62.5 192.5t165 125.5t219.5 44z" />
    <glyph glyph-name="T" unicode="T" horiz-adv-x="1020" 
d="M329 1058h-315v262h928v-262h-314v-1058h-299v1058z" />
    <glyph glyph-name="U" unicode="U" horiz-adv-x="1273" 
d="M846 1320h299v-811q0 -163 -64 -282.5t-183 -185t-284 -65.5q-166 0 -286 65.5t-183.5 185t-63.5 282.5v811h298v-795q0 -90 28.5 -152t81.5 -93.5t125 -31.5q71 0 123 31.5t80.5 93.5t28.5 152v795z" />
    <glyph glyph-name="V" unicode="V" horiz-adv-x="1349" 
d="M815 0h-338l-470 1320h337l302 -939l302 939h337z" />
    <glyph glyph-name="W" unicode="W" horiz-adv-x="1830" 
d="M1435 0h-359l-224 921h54l-224 -921h-361l-301 1320h343l159 -926h-4l248 926h225l249 -926h-4l159 926h343z" />
    <glyph glyph-name="X" unicode="X" horiz-adv-x="1412" 
d="M863 710l496 -710h-390l-305 461l-295 -461h-360l468 710l-425 610h380l244 -380l241 380h364z" />
    <glyph glyph-name="Y" unicode="Y" horiz-adv-x="1201" 
d="M420 475l-455 845h363l241 -503l242 503h361l-453 -845v-475h-299v475z" />
    <glyph glyph-name="Z" unicode="Z" horiz-adv-x="1260" 
d="M103 1320h1084l-655 -1058h612v-262h-1134l654 1058h-561v262z" />
    <glyph glyph-name="bracketleft" unicode="[" horiz-adv-x="721" 
d="M89 -416v1792h514v-215h-276v-1362h276v-215h-514z" />
    <glyph glyph-name="backslash" unicode="\" horiz-adv-x="992" 
d="M933 0h-241l-659 1376h240z" />
    <glyph glyph-name="bracketright" unicode="]" horiz-adv-x="721" 
d="M90 -416v215h276v1362h-276v215h514v-1792h-514z" />
    <glyph glyph-name="asciicircum" unicode="^" horiz-adv-x="843" 
d="M812 968h-255l-150 176l-147 -176h-256l330 376h147z" />
    <glyph glyph-name="underscore" unicode="_" horiz-adv-x="844" 
d="M10 -196v171h817v-171h-817z" />
    <glyph glyph-name="grave" unicode="`" horiz-adv-x="670" 
d="M466 940l-380 221l144 182l326 -280z" />
    <glyph glyph-name="a" unicode="a" horiz-adv-x="1129" 
d="M721 0v133q-9 -20 -45.5 -58t-96.5 -68.5t-140 -30.5q-120 0 -210 58.5t-140 157t-50 218.5t50 218.5t140 157.5t210 59q77 0 135 -24.5t94 -58t50 -61.5v120h302v-821h-299zM337 410q0 -56 26 -100.5t69.5 -69.5t96.5 -25q55 0 97 25t66.5 69.5t24.5 100.5t-24.5 100.5
t-66.5 70t-97 25.5q-53 0 -96.5 -25.5t-69.5 -70t-26 -100.5z" />
    <glyph glyph-name="b" unicode="b" horiz-adv-x="1117" 
d="M79 0v1376h304v-675q9 28 46.5 61.5t99 58t139.5 24.5q120 0 208 -59t136 -157.5t48 -218.5t-48 -218.5t-136 -157t-208 -58.5q-66 0 -124.5 23.5t-101 60t-62.5 73.5v-133h-301zM762 410q0 56 -24.5 100.5t-67 70t-95.5 25.5q-55 0 -98.5 -25.5t-68.5 -70t-25 -100.5
t25 -100.5t68.5 -69.5t98.5 -25q53 0 95.5 25t67 69.5t24.5 100.5z" />
    <glyph glyph-name="c" unicode="c" horiz-adv-x="852" 
d="M529 215q57 0 94 19.5t50 31.5l139 -206q-16 -13 -55 -33.5t-97.5 -35.5t-133.5 -15q-141 0 -248 53.5t-166.5 151.5t-59.5 230q0 133 59.5 230t166.5 150.5t248 53.5q74 0 132.5 -15.5t98.5 -35t56 -33.5l-142 -208q-7 7 -25.5 20t-47.5 23t-69 10q-49 0 -91.5 -25
t-68.5 -69t-26 -101t26 -101.5t68.5 -69.5t91.5 -25z" />
    <glyph glyph-name="d" unicode="d" horiz-adv-x="1117" 
d="M436 -24q-119 0 -207 58.5t-136.5 157t-48.5 218.5t48.5 218.5t136.5 157.5t207 59q79 0 140 -24.5t99 -58t46 -61.5v675h304v-1376h-301v133q-19 -37 -62 -73.5t-101 -60t-125 -23.5zM529 215q55 0 98.5 25t68.5 69.5t25 100.5t-25 100.5t-68.5 70t-98.5 25.5
q-53 0 -95.5 -25.5t-67 -70t-24.5 -100.5t24.5 -100.5t67 -69.5t95.5 -25z" />
    <glyph glyph-name="e" unicode="e" horiz-adv-x="996" 
d="M326 346q3 -44 28 -78t69.5 -53.5t105.5 -19.5q58 0 104.5 12t81 30t53.5 37l118 -188q-25 -27 -70.5 -52.5t-119.5 -41.5t-187 -16q-136 0 -242 51t-167 150t-61 242q0 120 52.5 216.5t152.5 153t241 56.5q134 0 232.5 -49t152 -145.5t53.5 -240.5q0 -8 -0.5 -32
t-2.5 -32h-594zM637 505q-1 32 -17 63.5t-48 52t-82 20.5t-84.5 -19.5t-52.5 -50.5t-20 -66h304z" />
    <glyph glyph-name="f" unicode="f" horiz-adv-x="706" 
d="M21 821h136v217q0 120 51 200t132 121t168 41q108 0 164.5 -29t71.5 -43l-116 -223q-5 8 -25 23t-53 15q-21 0 -42 -11t-34.5 -39t-13.5 -82v-190h203v-250h-203v-571h-303v571h-136v250z" />
    <glyph glyph-name="g" unicode="g" horiz-adv-x="1131" 
d="M515 -439q-86 0 -170.5 15t-157.5 51t-123 99l178 185q23 -27 56.5 -53t83 -43t120.5 -17q66 0 115 23t76.5 67t27.5 107v20h299v-38q0 -136 -67.5 -229t-181.5 -140t-256 -47zM721 0v133q-9 -20 -45.5 -58t-96.5 -68.5t-140 -30.5q-120 0 -210 58.5t-140 157t-50 218.5
t50 218.5t140 157.5t210 59q77 0 135 -24.5t94 -58t50 -61.5v120h302v-821h-299zM337 410q0 -56 26 -100.5t69.5 -69.5t96.5 -25q55 0 97 25t66.5 69.5t24.5 100.5t-24.5 100.5t-66.5 70t-97 25.5q-53 0 -96.5 -25.5t-69.5 -70t-26 -100.5z" />
    <glyph glyph-name="h" unicode="h" horiz-adv-x="1108" 
d="M656 845q86 0 168 -35t135 -110.5t53 -198.5v-501h-304v451q0 88 -39.5 132.5t-107.5 44.5q-45 0 -86 -23.5t-66.5 -66t-25.5 -97.5v-441h-305v1376h305v-676q11 33 49.5 66.5t97 56t126.5 22.5z" />
    <glyph glyph-name="i" unicode="i" horiz-adv-x="524" 
d="M94 0v821h304v-821h-304zM250 990q-72 0 -122 50.5t-50 120.5t50.5 121.5t121.5 51.5q47 0 86 -23.5t63 -62.5t24 -87q0 -70 -51 -120.5t-122 -50.5z" />
    <glyph glyph-name="j" unicode="j" horiz-adv-x="538" 
d="M93 -440q-90 0 -148.5 17.5t-87.5 35.5l93 226q16 -13 34 -18.5t41 -5.5q27 0 45.5 15t28 44.5t9.5 72.5v874h304v-922q0 -95 -33 -172t-103 -122t-183 -45zM262 990q-70 0 -120.5 50.5t-50.5 120.5q0 47 23 86t62 63t86 24q48 0 87 -23.5t62.5 -62.5t23.5 -87
q0 -70 -50.5 -120.5t-122.5 -50.5z" />
    <glyph glyph-name="k" unicode="k" horiz-adv-x="1025" 
d="M644 821h344l-387 -392l427 -429h-352l-317 330v-330h-304v1376h304v-841z" />
    <glyph glyph-name="l" unicode="l" horiz-adv-x="500" 
d="M388 0h-305v1376h305v-1376z" />
    <glyph glyph-name="m" unicode="m" horiz-adv-x="1622" 
d="M1213 845q93 0 164 -38.5t111.5 -118.5t40.5 -206v-482h-299v436q0 86 -26 139t-103 53q-46 0 -81 -24t-54 -66.5t-19 -101.5v-436h-279v436q0 86 -28.5 139t-100.5 53q-46 0 -81 -23.5t-53.5 -66t-18.5 -102.5v-436h-302v821h302v-117q12 31 52.5 63.5t100.5 55
t127 22.5q73 0 122 -21.5t80.5 -57.5t50.5 -78q14 36 55.5 72.5t104 60.5t134.5 24z" />
    <glyph glyph-name="n" unicode="n" horiz-adv-x="1098" 
d="M649 845q86 0 168 -35t135 -110.5t53 -198.5v-501h-305v451q0 88 -42 132.5t-110 44.5q-45 0 -84.5 -23.5t-64 -66t-24.5 -97.5v-441h-304v821h304v-121q12 33 50.5 66.5t97 56t126.5 22.5z" />
    <glyph glyph-name="o" unicode="o" horiz-adv-x="1033" 
d="M502 -24q-135 0 -239.5 55.5t-164 153t-59.5 223.5t59.5 224.5t164 155.5t239.5 57t238 -57t161 -155.5t58 -224.5t-58 -223.5t-161 -153t-238 -55.5zM502 226q52 0 90 23t59 65t21 95q0 54 -21 96t-59 66t-90 24t-90.5 -24t-60 -66t-21.5 -96q0 -53 21.5 -95t60 -65
t90.5 -23z" />
    <glyph glyph-name="p" unicode="p" horiz-adv-x="1132" 
d="M383 -416h-301v1237h304v-120q14 28 53.5 61.5t101 58t139.5 24.5q120 0 205.5 -59t131.5 -157.5t46 -218.5t-49 -218.5t-137.5 -157t-208.5 -58.5q-86 0 -146.5 30.5t-95 68t-43.5 58.5v-549zM766 410q0 56 -25 100.5t-67.5 70t-95.5 25.5q-55 0 -98.5 -25.5t-68.5 -70
t-25 -100.5t25 -100.5t68.5 -69.5t98.5 -25q53 0 95.5 25t67.5 69.5t25 100.5z" />
    <glyph glyph-name="q" unicode="q" horiz-adv-x="1132" 
d="M750 -416v549q-8 -21 -43 -58.5t-95.5 -68t-147.5 -30.5q-119 0 -208 58.5t-138 157t-49 218.5t46 218.5t132 157.5t205 59q79 0 140.5 -24.5t101 -58t53.5 -61.5v120h303v-1237h-300zM554 215q56 0 99 25t68.5 69.5t25.5 100.5t-25.5 100.5t-68.5 70t-99 25.5
q-52 0 -94.5 -25.5t-67.5 -70t-25 -100.5t25 -100.5t67.5 -69.5t94.5 -25z" />
    <glyph glyph-name="r" unicode="r" horiz-adv-x="793" 
d="M362 0h-304v821h304v-127h-5q8 23 39 58.5t87 64t137 28.5q57 0 105 -17.5t70 -33.5l-118 -247q-14 17 -49.5 35.5t-88.5 18.5q-61 0 -100.5 -31t-58 -75t-18.5 -83v-412z" />
    <glyph glyph-name="s" unicode="s" horiz-adv-x="860" 
d="M452 845q81 0 148 -13.5t112.5 -30.5t58.5 -28l-99 -179q-19 14 -70.5 36t-114.5 22q-48 0 -81 -14.5t-33 -45.5t36.5 -49.5t105.5 -32.5q60 -12 122 -38t103.5 -76.5t41.5 -134.5q0 -86 -37 -142t-98 -87t-132 -43.5t-138 -12.5q-94 0 -163.5 17t-112.5 39t-60 35
l98 200q26 -22 85 -49.5t125 -27.5q64 0 99 19t35 50q0 25 -17 40t-48 26t-75 20q-40 8 -85 25t-85 46.5t-65 74.5t-25 109q0 82 53 136t137 81.5t179 27.5z" />
    <glyph glyph-name="t" unicode="t" horiz-adv-x="727" 
d="M14 821h140v337h301v-337h184v-250h-184v-229q0 -51 15 -82.5t55 -31.5q27 0 46 12t23 16l104 -216q-7 -6 -43.5 -22t-92.5 -29t-125 -13q-123 0 -203 69.5t-80 214.5v311h-140v250z" />
    <glyph glyph-name="u" unicode="u" horiz-adv-x="1096" 
d="M372 441q0 -98 37 -156.5t124 -58.5q89 0 125.5 58.5t36.5 156.5v380h300v-412q0 -132 -54.5 -229.5t-157.5 -150.5t-250 -53q-146 0 -249 53t-157 150.5t-54 229.5v412h299v-380z" />
    <glyph glyph-name="v" unicode="v" horiz-adv-x="1094" 
d="M10 821h325l198 -545l199 545h323l-344 -821h-356z" />
    <glyph glyph-name="w" unicode="w" horiz-adv-x="1460" 
d="M716 476l-191 -476h-279l-272 821h323l131 -496l189 480h200l186 -480l132 496h323l-271 -821h-278z" />
    <glyph glyph-name="x" unicode="x" horiz-adv-x="1087" 
d="M703 441l349 -441h-337l-194 253l-194 -253h-314l348 417l-313 404h340l152 -211l159 211h308z" />
    <glyph glyph-name="y" unicode="y" horiz-adv-x="1029" 
d="M498 263l222 558h298l-564 -1237h-304l190 416l-343 821h303z" />
    <glyph glyph-name="z" unicode="z" horiz-adv-x="899" 
d="M62 821h813l-410 -609h378v-212h-847l409 610h-343v211z" />
    <glyph glyph-name="braceleft" unicode="{" horiz-adv-x="732" 
d="M91 573q52 0 82.5 27t30.5 82v426q0 67 24.5 128t80.5 100.5t149 39.5h154v-221h-77q-47 0 -70.5 -23.5t-23.5 -73.5v-407q0 -68 -26.5 -109t-93.5 -63q69 -22 94.5 -64.5t25.5 -105.5v-407q0 -46 21.5 -71.5t72.5 -25.5h77v-221h-154q-93 0 -149 39.5t-80.5 101
t-24.5 127.5v426q0 55 -30.5 82.5t-82.5 27.5v185z" />
    <glyph glyph-name="bar" unicode="|" horiz-adv-x="442" 
d="M348 -254h-270v1674h270v-1674z" />
    <glyph glyph-name="braceright" unicode="}" horiz-adv-x="763" 
d="M107 -416v221h76q51 0 72.5 25.5t21.5 71.5v407q0 63 26 105.5t95 64.5q-67 22 -94 63t-27 109v407q0 50 -23 73.5t-71 23.5h-76v221h153q95 0 150 -39.5t79.5 -100.5t24.5 -128v-426q0 -55 30.5 -82t82.5 -27v-185q-52 0 -82.5 -27.5t-30.5 -82.5v-426
q0 -66 -24.5 -127.5t-79.5 -101t-150 -39.5h-153z" />
    <glyph glyph-name="asciitilde" unicode="~" horiz-adv-x="1159" 
d="M1047 713q-27 -48 -74 -100t-106.5 -88t-124.5 -36q-60 0 -106.5 20t-84.5 45t-71.5 44.5t-67.5 19.5q-33 0 -63.5 -17.5t-55 -43t-39.5 -48.5l-171 108q28 48 75 99.5t106.5 87.5t124.5 36q62 0 108.5 -19.5t83.5 -45t70 -44.5t67 -19t64.5 17.5t55.5 42.5t39 49z" />
    <glyph glyph-name="uni00A0" unicode="&#xa0;" horiz-adv-x="530" 
 />
    <glyph glyph-name="exclamdown" unicode="&#xa1;" horiz-adv-x="607" 
d="M141 -54l62 945h204l62 -945h-328zM304 981q-74 0 -127.5 54t-53.5 130q0 50 25 91t66 65.5t90 24.5q77 0 130 -53t53 -128q0 -76 -53 -130t-130 -54z" />
    <glyph glyph-name="cent" unicode="&#xa2;" horiz-adv-x="852" 
d="M407 1018h172v-228h-172v228zM407 21h172v-227h-172v227zM529 215q57 0 94 19.5t50 31.5l139 -206q-16 -13 -55 -33.5t-97.5 -35.5t-133.5 -15q-141 0 -248 53.5t-166.5 151.5t-59.5 230q0 133 59.5 230t166.5 150.5t248 53.5q74 0 132.5 -15.5t98.5 -35t56 -33.5
l-142 -208q-7 7 -25.5 20t-47.5 23t-69 10q-49 0 -91.5 -25t-68.5 -69t-26 -101t26 -101.5t68.5 -69.5t91.5 -25z" />
    <glyph glyph-name="sterling" unicode="&#xa3;" horiz-adv-x="1225" 
d="M259 631q-12 19 -26.5 51t-28.5 73t-23 87.5t-9 95.5q0 114 50.5 207t149.5 147t245 54q137 0 229 -49t144 -119t65 -135l-246 -123q-5 41 -26 84t-59 73t-96 30q-80 0 -121.5 -48.5t-41.5 -132.5q0 -37 9 -80.5t22 -86t26 -76.5t22 -52q33 -78 44.5 -134.5t11.5 -108.5
q0 -41 -11 -78t-15 -46q19 -2 41 -11.5t47.5 -20.5t55.5 -20t64 -9q39 0 63 19.5t37 43t15 34.5l240 -88q-13 -50 -52.5 -105.5t-105.5 -93t-159 -37.5q-74 0 -131 14.5t-105.5 32.5t-97 32.5t-106.5 14.5q-27 0 -48.5 -12.5t-35 -29t-18.5 -28.5h-213q1 79 37.5 142.5
t96 100.5t129.5 37q11 18 17.5 41t6.5 57q0 46 -26 113t-67 140zM83 647h750v-171h-750v171z" />
    <glyph glyph-name="currency" unicode="&#xa4;" horiz-adv-x="1045" 
d="M897 1059l122 -121l-162 -161l-120 122zM193 355l120 -122l-160 -160l-122 120zM153 1059l160 -160l-120 -122l-162 161zM857 355l162 -162l-122 -120l-160 160zM525 136q-134 0 -239 55.5t-164.5 153t-59.5 223.5t59.5 224.5t164.5 155.5t239 57q135 0 238 -57
t161.5 -155.5t58.5 -224.5t-58.5 -223.5t-161.5 -153t-238 -55.5zM525 386q53 0 91 23t58.5 65t20.5 95q0 54 -20.5 96t-58.5 66t-91 24q-52 0 -90.5 -24t-60 -66t-21.5 -96q0 -53 21.5 -95t60 -65t90.5 -23z" />
    <glyph glyph-name="yen" unicode="&#xa5;" horiz-adv-x="1201" 
d="M81 695h979v-185h-979v185zM81 388h979v-184h-979v184zM420 475l-455 845h363l241 -503l242 503h361l-453 -845v-475h-299v475z" />
    <glyph glyph-name="brokenbar" unicode="&#xa6;" horiz-adv-x="442" 
d="M329 845h-243v531h243v-531zM329 0h-243v531h243v-531z" />
    <glyph glyph-name="section" unicode="&#xa7;" horiz-adv-x="1073" 
d="M472 -440q-132 0 -221.5 47t-139.5 115t-64 131l266 71q7 -26 26 -54.5t52.5 -48.5t80.5 -20q48 0 77 12.5t42 35t13 52.5q0 34 -26.5 62.5t-83.5 56.5t-146 61q-153 54 -226.5 137t-73.5 206q0 73 40.5 135.5t96.5 105t103 57.5q-48 35 -86 78t-59.5 96.5t-21.5 117.5
q0 89 48.5 164t142 120.5t227.5 45.5q122 0 204.5 -45t129 -110.5t58.5 -127.5l-257 -61q-6 22 -24 46t-45 40.5t-63 16.5q-55 0 -86 -23.5t-31 -59.5q0 -32 19.5 -59.5t68.5 -54.5t138 -59q100 -37 176.5 -86t120 -117t43.5 -159q0 -72 -29.5 -129t-81 -99t-117.5 -71
q77 -45 116 -115.5t39 -164.5q0 -72 -29 -134.5t-85.5 -110t-139.5 -74.5t-192 -27zM447 623q-34 -10 -62.5 -30t-46 -48.5t-17.5 -63.5q0 -55 55 -92t124 -66q24 -9 48.5 -20.5t37.5 -18.5q34 9 64.5 27t49 46.5t18.5 67.5q0 33 -29.5 63t-75.5 56.5t-96 48.5q-5 2 -21.5 9
t-32 13.5t-16.5 7.5z" />
    <glyph glyph-name="dieresis" unicode="&#xa8;" horiz-adv-x="947" 
d="M660 972q-61 0 -104 43t-43 103t43 103.5t104 43.5q60 0 103 -43t43 -104t-43 -103.5t-103 -42.5zM258 972q-62 0 -104.5 43t-42.5 103t42.5 103.5t104.5 43.5q60 0 103 -43t43 -104t-43 -103.5t-103 -42.5z" />
    <glyph glyph-name="copyright" unicode="&#xa9;" horiz-adv-x="1491" 
d="M47 659q0 142 53 266t147.5 218t218 147.5t264.5 53.5q142 0 266 -53.5t218 -147.5t147.5 -218t53.5 -266q0 -141 -53.5 -264.5t-147.5 -218t-218 -147.5t-266 -53q-141 0 -264.5 53t-218 147.5t-147.5 218t-53 264.5zM222 659q0 -104 39.5 -196.5t109.5 -162t162 -109.5
t197 -40t197.5 40t163 109.5t110 162t39.5 196.5q0 105 -39.5 197.5t-110 162.5t-163 110t-196.5 40q-105 0 -197.5 -40t-162.5 -110t-109.5 -162.5t-39.5 -197.5zM774 810q31 0 63 -10.5t37 -14.5l67 138q-4 3 -54 28.5t-147 25.5q-89 0 -164.5 -43t-121.5 -116t-46 -163
q0 -87 46 -158.5t121.5 -114t164.5 -42.5q54 0 98 11.5t71 24.5t32 15l-69 139q-7 -6 -34 -15.5t-63 -9.5q-63 0 -104 44.5t-41 108.5q0 63 40.5 107.5t103.5 44.5z" />
    <glyph glyph-name="ordfeminine" unicode="&#xaa;" horiz-adv-x="848" 
d="M113 1074q0 74 32.5 135t89.5 98t131 37q54 0 95 -17.5t73 -46.5v49l174 -1v-507h-172v58h-2q-18 -19 -42.5 -36t-56 -27t-69.5 -10q-74 0 -131 36.5t-89.5 97.5t-32.5 134zM299 1074q0 -52 33.5 -86t85.5 -34t85.5 34t33.5 86q0 53 -35 87t-84 34t-84 -34t-35 -87z" />
    <glyph glyph-name="guillemotleft" unicode="&#xab;" horiz-adv-x="1009" 
d="M503 162l-146 -116l-312 399l312 399l146 -115l-221 -284zM903 162l-147 -116l-312 399l312 399l147 -115l-221 -284z" />
    <glyph glyph-name="logicalnot" unicode="&#xac;" horiz-adv-x="1027" 
d="M876 584v-466h-258v208h-512v258h770z" />
    <glyph glyph-name="uni00AD" unicode="&#xad;" horiz-adv-x="756" 
d="M106 326v258h515v-258h-515z" />
    <glyph glyph-name="registered" unicode="&#xae;" horiz-adv-x="839" 
d="M47 984q0 99 48.5 180.5t129.5 130.5t179 49q100 0 181.5 -49t130 -130.5t48.5 -180.5q0 -98 -48.5 -179.5t-130 -129.5t-181.5 -48q-98 0 -179 48t-129.5 129.5t-48.5 179.5zM147 984q0 -71 34.5 -129.5t93.5 -93t129 -34.5q73 0 132 34.5t94 93t35 129.5q0 72 -35 131
t-94 94t-132 35q-70 0 -129 -35t-93.5 -94t-34.5 -131zM295 1152h117q47 0 77.5 -25t30.5 -73q0 -38 -19 -61.5t-49 -34.5l116 -137h-97l-99 131h-2v-131h-75v331zM370 1006h7q21 0 42 5.5t21 36.5q0 33 -22.5 38t-41.5 5h-6v-85z" />
    <glyph glyph-name="macron" unicode="&#xaf;" horiz-adv-x="926" 
d="M124 1015v190h651v-190h-651z" />
    <glyph glyph-name="degree" unicode="&#xb0;" horiz-adv-x="619" 
d="M110 1235q0 73 54 118.5t132 45.5q76 0 129.5 -45.5t53.5 -118.5q0 -72 -51 -118t-132 -46q-82 0 -134 46t-52 118zM226 1235q0 -30 19.5 -52t50.5 -22q29 0 49.5 22t20.5 52q0 31 -20.5 52t-49.5 21t-49.5 -21t-20.5 -52z" />
    <glyph glyph-name="plusminus" unicode="&#xb1;" horiz-adv-x="1062" 
d="M394 389v288h-288v245h288v288h247v-288h286v-245h-286v-288h-247zM97 60v246h844v-246h-844z" />
    <glyph glyph-name="uni00B2" unicode="&#xb2;" horiz-adv-x="485" 
d="M251 1246q-26 0 -45.5 -12.5t-33 -29t-20.5 -30t-8 -15.5l-99 46q1 4 7.5 19.5t21 35.5t38 39.5t58 32t81.5 12.5q54 0 90.5 -15.5t57 -40.5t29.5 -54t9 -56q0 -34 -13.5 -65.5t-34.5 -59.5t-46 -51t-47.5 -40t-37.5 -27.5t-18 -12.5h193v-101h-369v92q6 5 26.5 19.5
t50 36.5t60 49t58 55t44.5 55.5t17 50.5q0 36 -18 51.5t-51 15.5z" />
    <glyph glyph-name="uni00B3" unicode="&#xb3;" horiz-adv-x="440" 
d="M36 1231q4 16 17 35.5t35 37.5t54 30t74 12q50 0 89.5 -18.5t61.5 -51.5t22 -78q0 -27 -9.5 -49t-24.5 -36.5t-32 -18.5q20 -4 39.5 -19t33.5 -41t14 -61q0 -50 -25.5 -89t-69.5 -61.5t-100 -22.5q-59 0 -100 21t-65 51t-32 58l110 54q4 -17 15.5 -36t29 -31.5
t41.5 -12.5t41.5 9.5t26.5 25.5t9 38t-10.5 37t-28 22t-38.5 7h-10v85h13q18 0 33 8t23.5 21.5t8.5 31.5q0 26 -17 43.5t-50 17.5q-19 0 -34.5 -7t-25 -17.5t-15.5 -21.5t-7 -19z" />
    <glyph glyph-name="acute" unicode="&#xb4;" horiz-adv-x="955" 
d="M318 940l-89 123l325 280l144 -182z" />
    <glyph glyph-name="uni00B5" unicode="&#xb5;" horiz-adv-x="1096" 
d="M73 821h299v-1213h-299v1213zM372 441q0 -98 37 -156.5t124 -58.5q89 0 125.5 58.5t36.5 156.5v380h300v-412q0 -132 -54.5 -229.5t-157.5 -150.5t-250 -53q-146 0 -249 53t-157 150.5t-54 229.5v412h299v-380z" />
    <glyph glyph-name="paragraph" unicode="&#xb6;" horiz-adv-x="1110" 
d="M1009 0h-162v1155h-99v-1155h-164v491h-152q-97 0 -174 34.5t-132 94t-84 135.5t-29 160q0 112 51 203.5t145 146.5t223 55h577v-1320z" />
    <glyph glyph-name="periodcentered" unicode="&#xb7;" horiz-adv-x="568" 
d="M285 249q-74 0 -127.5 53.5t-53.5 127.5q0 76 53.5 129.5t127.5 53.5q76 0 129 -53.5t53 -129.5q0 -74 -53 -127.5t-129 -53.5z" />
    <glyph glyph-name="cedilla" unicode="&#xb8;" horiz-adv-x="763" 
d="M388 -433q-95 0 -160.5 29t-90.5 56l100 113q18 -20 52.5 -41t73.5 -21q36 0 57.5 17t21.5 45q0 34 -27 50t-64 16q-31 0 -52.5 -4.5t-28.5 -9.5l-15 12l77 213l106 -36l-36 -90q56 4 106 -13t81.5 -52t31.5 -87q0 -62 -32 -106t-85.5 -67.5t-115.5 -23.5z" />
    <glyph glyph-name="uni00B9" unicode="&#xb9;" horiz-adv-x="258" 
d="M97 1177l-79 -42v108l139 78h53v-500h-113v356z" />
    <glyph glyph-name="ordmasculine" unicode="&#xba;" horiz-adv-x="865" 
d="M114 1074q0 79 41 140t111 95.5t154 34.5q85 0 153.5 -34.5t109 -95.5t40.5 -140q0 -78 -39.5 -138.5t-107.5 -95t-156 -34.5q-91 0 -160 34.5t-107.5 95t-38.5 138.5zM300 1074q0 -51 32.5 -85.5t86.5 -34.5q52 0 86 34.5t34 85.5q0 36 -16 63t-43.5 42.5t-60.5 15.5
q-32 0 -59.5 -15.5t-43.5 -42.5t-16 -63z" />
    <glyph glyph-name="guillemotright" unicode="&#xbb;" horiz-adv-x="1009" 
d="M625 46l-147 116l222 283l-222 284l147 115l312 -399zM226 46l-148 116l222 283l-222 284l148 115l311 -399z" />
    <glyph glyph-name="onequarter" unicode="&#xbc;" horiz-adv-x="1407" 
d="M224 1101l-123 -64v166l216 121h82v-774h-175v551zM1240 770v-455h89v-153h-89v-162h-174v162h-318v139l291 469h201zM1066 315v231h-2l-140 -231h142zM983 1320h182l-768 -1320h-182z" />
    <glyph glyph-name="onehalf" unicode="&#xbd;" horiz-adv-x="1526" 
d="M1165 634q-39 0 -68.5 -18.5t-49.5 -43.5t-30.5 -45t-11.5 -23l-150 69q1 6 11 29.5t31.5 53.5t57 59t87.5 48t123 19q82 0 136.5 -23.5t86 -61t44.5 -81.5t13 -85q0 -50 -20 -97t-52.5 -89t-69.5 -77t-70.5 -61t-57 -41.5t-27.5 -17.5h291v-153h-555v139q9 6 40 28.5
t75 56t90.5 73.5t87.5 82.5t67 83.5t26 76q0 55 -27.5 77.5t-77.5 22.5zM208 1101l-123 -64v166l216 121h82v-774h-175v551zM972 1320h181l-768 -1320h-181z" />
    <glyph glyph-name="threequarters" unicode="&#xbe;" horiz-adv-x="1535" 
d="M88 1178q6 23 25 51.5t51.5 55t79 43.5t108.5 17q73 0 130 -27t89.5 -75.5t32.5 -112.5q0 -39 -14 -71.5t-36.5 -54t-46.5 -28.5q29 -4 58 -26t48.5 -60.5t19.5 -88.5q0 -74 -36.5 -131t-101 -89.5t-146.5 -32.5q-86 0 -146 30.5t-95 74t-46 84.5l159 79
q7 -25 23.5 -52.5t42.5 -46.5t62 -19q35 0 60 14t38.5 38t13.5 56t-15.5 54t-41 32.5t-55.5 10.5h-16v124h20q26 0 48 11t34.5 31t12.5 48q0 37 -25 62.5t-73 25.5q-29 0 -50.5 -10t-36.5 -25t-23.5 -31.5t-10.5 -28.5zM1338 770v-455h89v-153h-89v-162h-174v162h-317v139
l291 469h200zM1164 315v231h-1l-140 -231h141zM1110 1320h181l-768 -1320h-181z" />
    <glyph glyph-name="questiondown" unicode="&#xbf;" horiz-adv-x="966" 
d="M466 -26q-123 0 -220 39t-153 110.5t-56 169.5q0 87 41 150t97 107t102 72q50 29 68 66.5t18 96.5v103h262v-186q0 -66 -31 -110t-85 -72q-36 -20 -70 -46.5t-56 -59.5t-22 -75q0 -59 37 -86t106 -27q52 0 87.5 24t57.5 57.5t31 62.5l248 -99q-2 -14 -19 -47.5t-50.5 -76
t-87.5 -82t-129 -65.5t-176 -26zM490 978q-76 0 -130 53t-54 130q0 75 54 128t130 53q74 0 127.5 -53t53.5 -128q0 -77 -53.5 -130t-127.5 -53z" />
    <glyph glyph-name="Agrave" unicode="&#xc0;" horiz-adv-x="1351" 
d="M511 1320h297l521 -1320h-319l-96 265h-508l-97 -265h-320zM506 527h309l-153 433h-3zM724 1376l-380 221l145 182l325 -281z" />
    <glyph glyph-name="Aacute" unicode="&#xc1;" horiz-adv-x="1351" 
d="M511 1320h297l521 -1320h-319l-96 265h-508l-97 -265h-320zM506 527h309l-153 433h-3zM575 1376l-90 122l325 281l145 -182z" />
    <glyph glyph-name="Acircumflex" unicode="&#xc2;" horiz-adv-x="1351" 
d="M511 1320h297l521 -1320h-319l-96 265h-508l-97 -265h-320zM506 527h309l-153 433h-3zM415 1397l-109 145l353 258l352 -259l-108 -144l-244 179z" />
    <glyph glyph-name="Atilde" unicode="&#xc3;" horiz-adv-x="1351" 
d="M511 1320h297l521 -1320h-319l-96 265h-508l-97 -265h-320zM506 527h309l-153 433h-3zM290 1409q9 59 36.5 122t72.5 107t109 44q63 0 111 -18.5t89.5 -37t86.5 -18.5q29 0 47.5 25.5t24.5 48.5h162q-10 -58 -37 -121.5t-72 -107.5t-109 -44q-63 0 -111 18.5t-90 37
t-87 18.5q-28 0 -46.5 -25t-25.5 -49h-161z" />
    <glyph glyph-name="Adieresis" unicode="&#xc4;" horiz-adv-x="1351" 
d="M511 1320h297l521 -1320h-319l-96 265h-508l-97 -265h-320zM506 527h309l-153 433h-3zM861 1400q-61 0 -103.5 43.5t-42.5 103.5t42.5 103.5t103.5 43.5t103.5 -43.5t42.5 -103.5q0 -61 -42.5 -104t-103.5 -43zM459 1400q-61 0 -103.5 43.5t-42.5 103.5t42.5 103.5
t103.5 43.5q60 0 103 -43.5t43 -103.5q0 -61 -43 -104t-103 -43z" />
    <glyph glyph-name="Aring" unicode="&#xc5;" horiz-adv-x="1351" 
d="M511 1320h297l521 -1320h-319l-96 265h-508l-97 -265h-320zM506 527h309l-153 433h-3zM660 1359q-102 0 -164.5 56.5t-62.5 145.5q0 87 66 143.5t161 56.5q96 0 161 -56.5t65 -143.5q0 -89 -63.5 -145.5t-162.5 -56.5zM660 1482q31 0 52 21.5t21 57.5q0 35 -22 55t-51 20
q-31 0 -53 -20t-22 -55q0 -37 21.5 -58t53.5 -21z" />
    <glyph glyph-name="AE" unicode="&#xc6;" horiz-adv-x="1719" 
d="M694 1320h312l-58 -1055h-502l-139 -265h-324zM559 492h246v432l-4 5zM787 1320h843v-262h-545v-269h540v-254h-540v-273h545v-262h-843v1320z" />
    <glyph glyph-name="Ccedilla" unicode="&#xc7;" horiz-adv-x="1289" 
d="M782 272q92 0 167.5 27t112.5 53l128 -254q-47 -40 -160.5 -81t-269.5 -41q-146 0 -274 51t-225.5 143.5t-153 217t-55.5 270.5t55 271.5t152.5 218.5t226 144.5t274.5 51.5q156 0 269.5 -41t160.5 -81l-128 -254q-37 27 -112.5 53.5t-167.5 26.5q-102 0 -178 -31.5
t-127 -86.5t-76 -124t-25 -145q0 -77 25 -146.5t76 -124.5t127 -86.5t178 -31.5zM772 -433q-95 0 -160.5 29t-90.5 56l100 113q18 -20 52.5 -41t73.5 -21q36 0 57.5 17t21.5 45q0 34 -27 50t-64 16q-31 0 -52.5 -4.5t-28.5 -9.5l-15 12l77 213l106 -36l-36 -90q56 4 106 -13
t81.5 -52t31.5 -87q0 -62 -32 -106t-85.5 -67.5t-115.5 -23.5z" />
    <glyph glyph-name="Egrave" unicode="&#xc8;" horiz-adv-x="1069" 
d="M83 1320h843v-262h-545v-269h540v-254h-540v-273h545v-262h-843v1320zM546 1376l-380 221l145 182l325 -281z" />
    <glyph glyph-name="Eacute" unicode="&#xc9;" horiz-adv-x="1069" 
d="M83 1320h843v-262h-545v-269h540v-254h-540v-273h545v-262h-843v1320zM397 1376l-90 122l325 281l145 -182z" />
    <glyph glyph-name="Ecircumflex" unicode="&#xca;" horiz-adv-x="1069" 
d="M83 1320h843v-262h-545v-269h540v-254h-540v-273h545v-262h-843v1320zM237 1397l-109 145l353 258l352 -259l-108 -144l-244 179z" />
    <glyph glyph-name="Edieresis" unicode="&#xcb;" horiz-adv-x="1069" 
d="M83 1320h843v-262h-545v-269h540v-254h-540v-273h545v-262h-843v1320zM683 1400q-61 0 -103.5 43.5t-42.5 103.5t42.5 103.5t103.5 43.5t103.5 -43.5t42.5 -103.5q0 -61 -42.5 -104t-103.5 -43zM281 1400q-61 0 -103.5 43.5t-42.5 103.5t42.5 103.5t103.5 43.5
q60 0 103 -43.5t43 -103.5q0 -61 -43 -104t-103 -43z" />
    <glyph glyph-name="Igrave" unicode="&#xcc;" horiz-adv-x="541" 
d="M94 1320h299v-1320h-299v1320zM307 1376l-380 221l145 182l325 -281z" />
    <glyph glyph-name="Iacute" unicode="&#xcd;" horiz-adv-x="541" 
d="M94 1320h299v-1320h-299v1320zM159 1376l-90 122l325 281l145 -182z" />
    <glyph glyph-name="Icircumflex" unicode="&#xce;" horiz-adv-x="541" 
d="M94 1320h299v-1320h-299v1320zM-1 1397l-109 145l353 258l352 -259l-108 -144l-244 179z" />
    <glyph glyph-name="Idieresis" unicode="&#xcf;" horiz-adv-x="541" 
d="M94 1320h299v-1320h-299v1320zM444 1400q-61 0 -103.5 43.5t-42.5 103.5t42.5 103.5t103.5 43.5t103.5 -43.5t42.5 -103.5q0 -61 -42.5 -104t-103.5 -43zM42 1400q-61 0 -103.5 43.5t-42.5 103.5t42.5 103.5t103.5 43.5q60 0 103 -43.5t43 -103.5q0 -61 -43 -104
t-103 -43z" />
    <glyph glyph-name="Eth" unicode="&#xd0;" horiz-adv-x="1201" 
d="M86 0v1320h397q211 0 349.5 -84.5t207.5 -233.5t69 -341q0 -193 -69 -342t-207.5 -234t-349.5 -85h-397zM-18 528v258h589v-258h-589zM384 265h72q113 0 187 51.5t111.5 141t37.5 201.5q0 113 -36.5 202.5t-111.5 141.5t-188 52h-72v-790z" />
    <glyph glyph-name="Ntilde" unicode="&#xd1;" horiz-adv-x="1446" 
d="M360 1046l22 -4v-1042h-299v1320h408l535 -1040l-22 -4v1044h299v-1320h-410zM350 1479q10 59 37 122t72.5 107t108.5 44t111 -18.5t90 -37t86 -18.5q29 0 47.5 25.5t25.5 48.5h161q-9 -59 -36.5 -122t-72.5 -107t-109 -44q-62 0 -110 18.5t-90.5 36.5t-86.5 18
q-28 0 -46.5 -25t-25.5 -48h-162z" />
    <glyph glyph-name="Ograve" unicode="&#xd2;" horiz-adv-x="1484" 
d="M352 661q0 -113 46.5 -204.5t129 -145.5t191.5 -54t191.5 54t129 145.5t46.5 204.5t-46.5 204t-129 145.5t-191.5 54.5t-191.5 -54.5t-129 -145.5t-46.5 -204zM41 661q0 144 51 268.5t143 217.5t216 145t268 52q146 0 269.5 -52t215 -145t142 -217.5t50.5 -268.5
q0 -145 -49 -269.5t-140 -218t-215 -145.5t-273 -52q-152 0 -276.5 52t-214.5 145.5t-138.5 218t-48.5 269.5zM783 1376l-380 221l145 182l325 -281z" />
    <glyph glyph-name="Oacute" unicode="&#xd3;" horiz-adv-x="1484" 
d="M352 661q0 -113 46.5 -204.5t129 -145.5t191.5 -54t191.5 54t129 145.5t46.5 204.5t-46.5 204t-129 145.5t-191.5 54.5t-191.5 -54.5t-129 -145.5t-46.5 -204zM41 661q0 144 51 268.5t143 217.5t216 145t268 52q146 0 269.5 -52t215 -145t142 -217.5t50.5 -268.5
q0 -145 -49 -269.5t-140 -218t-215 -145.5t-273 -52q-152 0 -276.5 52t-214.5 145.5t-138.5 218t-48.5 269.5zM634 1376l-90 122l325 281l145 -182z" />
    <glyph glyph-name="Ocircumflex" unicode="&#xd4;" horiz-adv-x="1484" 
d="M352 661q0 -113 46.5 -204.5t129 -145.5t191.5 -54t191.5 54t129 145.5t46.5 204.5t-46.5 204t-129 145.5t-191.5 54.5t-191.5 -54.5t-129 -145.5t-46.5 -204zM41 661q0 144 51 268.5t143 217.5t216 145t268 52q146 0 269.5 -52t215 -145t142 -217.5t50.5 -268.5
q0 -145 -49 -269.5t-140 -218t-215 -145.5t-273 -52q-152 0 -276.5 52t-214.5 145.5t-138.5 218t-48.5 269.5zM474 1397l-109 145l353 258l352 -259l-108 -144l-244 179z" />
    <glyph glyph-name="Otilde" unicode="&#xd5;" horiz-adv-x="1484" 
d="M352 661q0 -113 46.5 -204.5t129 -145.5t191.5 -54t191.5 54t129 145.5t46.5 204.5t-46.5 204t-129 145.5t-191.5 54.5t-191.5 -54.5t-129 -145.5t-46.5 -204zM41 661q0 144 51 268.5t143 217.5t216 145t268 52q146 0 269.5 -52t215 -145t142 -217.5t50.5 -268.5
q0 -145 -49 -269.5t-140 -218t-215 -145.5t-273 -52q-152 0 -276.5 52t-214.5 145.5t-138.5 218t-48.5 269.5zM365 1479q10 59 37 122t72.5 107t108.5 44t111 -18.5t90 -37t86 -18.5q29 0 47.5 25.5t25.5 48.5h161q-9 -59 -36.5 -122t-72.5 -107t-109 -44q-62 0 -110 18.5
t-90.5 36.5t-86.5 18q-28 0 -46.5 -25t-25.5 -48h-162z" />
    <glyph glyph-name="Odieresis" unicode="&#xd6;" horiz-adv-x="1484" 
d="M352 661q0 -113 46.5 -204.5t129 -145.5t191.5 -54t191.5 54t129 145.5t46.5 204.5t-46.5 204t-129 145.5t-191.5 54.5t-191.5 -54.5t-129 -145.5t-46.5 -204zM41 661q0 144 51 268.5t143 217.5t216 145t268 52q146 0 269.5 -52t215 -145t142 -217.5t50.5 -268.5
q0 -145 -49 -269.5t-140 -218t-215 -145.5t-273 -52q-152 0 -276.5 52t-214.5 145.5t-138.5 218t-48.5 269.5zM920 1400q-61 0 -103.5 43.5t-42.5 103.5t42.5 103.5t103.5 43.5t103.5 -43.5t42.5 -103.5q0 -61 -42.5 -104t-103.5 -43zM518 1400q-61 0 -103.5 43.5
t-42.5 103.5t42.5 103.5t103.5 43.5q60 0 103 -43.5t43 -103.5q0 -61 -43 -104t-103 -43z" />
    <glyph glyph-name="multiply" unicode="&#xd7;" horiz-adv-x="1034" 
d="M677 663l241 -240l-173 -173l-241 241l-241 -241l-174 176l239 238l-239 241l174 172l240 -238l240 238l175 -174z" />
    <glyph glyph-name="Oslash" unicode="&#xd8;" horiz-adv-x="1460" 
d="M1299 1372l105 -94l-1299 -1346l-106 95zM352 661q0 -113 46.5 -204.5t129 -145.5t191.5 -54t191.5 54t129 145.5t46.5 204.5t-46.5 204t-129 145.5t-191.5 54.5t-191.5 -54.5t-129 -145.5t-46.5 -204zM41 661q0 144 51 268.5t143 217.5t216 145t268 52q146 0 269.5 -52
t215 -145t142 -217.5t50.5 -268.5q0 -145 -49 -269.5t-140 -218t-215 -145.5t-273 -52q-152 0 -276.5 52t-214.5 145.5t-138.5 218t-48.5 269.5z" />
    <glyph glyph-name="Ugrave" unicode="&#xd9;" horiz-adv-x="1273" 
d="M846 1320h299v-811q0 -163 -64 -282.5t-183 -185t-284 -65.5q-166 0 -286 65.5t-183.5 185t-63.5 282.5v811h298v-795q0 -90 28.5 -152t81.5 -93.5t125 -31.5q71 0 123 31.5t80.5 93.5t28.5 152v795zM678 1376l-380 221l145 182l325 -281z" />
    <glyph glyph-name="Uacute" unicode="&#xda;" horiz-adv-x="1273" 
d="M846 1320h299v-811q0 -163 -64 -282.5t-183 -185t-284 -65.5q-166 0 -286 65.5t-183.5 185t-63.5 282.5v811h298v-795q0 -90 28.5 -152t81.5 -93.5t125 -31.5q71 0 123 31.5t80.5 93.5t28.5 152v795zM529 1376l-90 122l325 281l145 -182z" />
    <glyph glyph-name="Ucircumflex" unicode="&#xdb;" horiz-adv-x="1273" 
d="M846 1320h299v-811q0 -163 -64 -282.5t-183 -185t-284 -65.5q-166 0 -286 65.5t-183.5 185t-63.5 282.5v811h298v-795q0 -90 28.5 -152t81.5 -93.5t125 -31.5q71 0 123 31.5t80.5 93.5t28.5 152v795zM369 1397l-109 145l353 258l352 -259l-108 -144l-244 179z" />
    <glyph glyph-name="Udieresis" unicode="&#xdc;" horiz-adv-x="1273" 
d="M846 1320h299v-811q0 -163 -64 -282.5t-183 -185t-284 -65.5q-166 0 -286 65.5t-183.5 185t-63.5 282.5v811h298v-795q0 -90 28.5 -152t81.5 -93.5t125 -31.5q71 0 123 31.5t80.5 93.5t28.5 152v795zM815 1400q-61 0 -103.5 43.5t-42.5 103.5t42.5 103.5t103.5 43.5
t103.5 -43.5t42.5 -103.5q0 -61 -42.5 -104t-103.5 -43zM413 1400q-61 0 -103.5 43.5t-42.5 103.5t42.5 103.5t103.5 43.5q60 0 103 -43.5t43 -103.5q0 -61 -43 -104t-103 -43z" />
    <glyph glyph-name="Yacute" unicode="&#xdd;" horiz-adv-x="1201" 
d="M420 475l-455 845h363l241 -503l242 503h361l-453 -845v-475h-299v475zM485 1376l-90 122l325 281l145 -182z" />
    <glyph glyph-name="Thorn" unicode="&#xde;" horiz-adv-x="1102" 
d="M83 1320h298v-245h195q124 0 224.5 -44.5t159.5 -134.5t59 -227q0 -136 -59 -230.5t-159.5 -144t-224.5 -49.5h-195v-245h-298v1320zM381 481h134q80 0 128.5 47.5t48.5 136.5q0 90 -48.5 132t-128.5 42h-134v-358z" />
    <glyph glyph-name="germandbls" unicode="&#xdf;" horiz-adv-x="1127" 
d="M535 231q62 0 108 24t71.5 68.5t25.5 105.5q0 98 -56.5 146.5t-148.5 48.5v212q71 0 126 46t55 127q0 53 -19 87t-52.5 50.5t-81.5 16.5q-55 0 -93.5 -28.5t-58.5 -77t-20 -109.5v-948h-280v923q0 152 57.5 259t158 162.5t231.5 55.5q193 0 307 -97.5t114 -279.5
q0 -69 -25.5 -126t-67.5 -98t-91 -62q64 -17 119.5 -59.5t89.5 -110t34 -160.5q0 -126 -66.5 -223t-180 -152.5t-256.5 -55.5v255z" />
    <glyph glyph-name="agrave" unicode="&#xe0;" horiz-adv-x="1129" 
d="M721 0v133q-9 -20 -45.5 -58t-96.5 -68.5t-140 -30.5q-120 0 -210 58.5t-140 157t-50 218.5t50 218.5t140 157.5t210 59q77 0 135 -24.5t94 -58t50 -61.5v120h302v-821h-299zM337 410q0 -56 26 -100.5t69.5 -69.5t96.5 -25q55 0 97 25t66.5 69.5t24.5 100.5t-24.5 100.5
t-66.5 70t-97 25.5q-53 0 -96.5 -25.5t-69.5 -70t-26 -100.5zM705 940l-380 221l144 182l326 -280z" />
    <glyph glyph-name="aacute" unicode="&#xe1;" horiz-adv-x="1129" 
d="M721 0v133q-9 -20 -45.5 -58t-96.5 -68.5t-140 -30.5q-120 0 -210 58.5t-140 157t-50 218.5t50 218.5t140 157.5t210 59q77 0 135 -24.5t94 -58t50 -61.5v120h302v-821h-299zM337 410q0 -56 26 -100.5t69.5 -69.5t96.5 -25q55 0 97 25t66.5 69.5t24.5 100.5t-24.5 100.5
t-66.5 70t-97 25.5q-53 0 -96.5 -25.5t-69.5 -70t-26 -100.5zM414 912l-89 123l325 280l144 -181z" />
    <glyph glyph-name="acircumflex" unicode="&#xe2;" horiz-adv-x="1129" 
d="M721 0v133q-9 -20 -45.5 -58t-96.5 -68.5t-140 -30.5q-120 0 -210 58.5t-140 157t-50 218.5t50 218.5t140 157.5t210 59q77 0 135 -24.5t94 -58t50 -61.5v120h302v-821h-299zM337 410q0 -56 26 -100.5t69.5 -69.5t96.5 -25q55 0 97 25t66.5 69.5t24.5 100.5t-24.5 100.5
t-66.5 70t-97 25.5q-53 0 -96.5 -25.5t-69.5 -70t-26 -100.5zM788 889l-244 179l-244 -178l-109 144l353 258l353 -258z" />
    <glyph glyph-name="atilde" unicode="&#xe3;" horiz-adv-x="1129" 
d="M721 0v133q-9 -20 -45.5 -58t-96.5 -68.5t-140 -30.5q-120 0 -210 58.5t-140 157t-50 218.5t50 218.5t140 157.5t210 59q77 0 135 -24.5t94 -58t50 -61.5v120h302v-821h-299zM337 410q0 -56 26 -100.5t69.5 -69.5t96.5 -25q55 0 97 25t66.5 69.5t24.5 100.5t-24.5 100.5
t-66.5 70t-97 25.5q-53 0 -96.5 -25.5t-69.5 -70t-26 -100.5zM189 980q10 59 37 122t72.5 107t108.5 44t111 -18.5t90 -37t86 -18.5q29 0 47.5 25.5t25.5 48.5h161q-9 -59 -36.5 -122t-72.5 -107t-109 -44q-62 0 -110 18.5t-90.5 36.5t-86.5 18q-28 0 -46.5 -25t-25.5 -48
h-162z" />
    <glyph glyph-name="adieresis" unicode="&#xe4;" horiz-adv-x="1129" 
d="M721 0v133q-9 -20 -45.5 -58t-96.5 -68.5t-140 -30.5q-120 0 -210 58.5t-140 157t-50 218.5t50 218.5t140 157.5t210 59q77 0 135 -24.5t94 -58t50 -61.5v120h302v-821h-299zM337 410q0 -56 26 -100.5t69.5 -69.5t96.5 -25q55 0 97 25t66.5 69.5t24.5 100.5t-24.5 100.5
t-66.5 70t-97 25.5q-53 0 -96.5 -25.5t-69.5 -70t-26 -100.5zM759 964q-61 0 -104 43t-43 103t43 103.5t104 43.5q60 0 103 -43t43 -104t-43 -103.5t-103 -42.5zM357 964q-62 0 -104.5 43t-42.5 103t42.5 103.5t104.5 43.5q60 0 103 -43t43 -104t-43 -103.5t-103 -42.5z" />
    <glyph glyph-name="aring" unicode="&#xe5;" horiz-adv-x="1129" 
d="M721 0v133q-9 -20 -45.5 -58t-96.5 -68.5t-140 -30.5q-120 0 -210 58.5t-140 157t-50 218.5t50 218.5t140 157.5t210 59q77 0 135 -24.5t94 -58t50 -61.5v120h302v-821h-299zM337 410q0 -56 26 -100.5t69.5 -69.5t96.5 -25q55 0 97 25t66.5 69.5t24.5 100.5t-24.5 100.5
t-66.5 70t-97 25.5q-53 0 -96.5 -25.5t-69.5 -70t-26 -100.5zM543 919q-115 0 -186 63.5t-71 163.5q0 66 34.5 117.5t92.5 80.5t130 29t130 -29t92 -80.5t34 -117.5q0 -100 -72 -163.5t-184 -63.5zM543 1060q34 0 57.5 23.5t23.5 62.5t-24 61.5t-57 22.5q-34 0 -58.5 -22.5
t-24.5 -61.5q0 -40 24 -63t59 -23z" />
    <glyph glyph-name="ae" unicode="&#xe6;" horiz-adv-x="1576" 
d="M379 -24q-89 0 -159.5 33t-111 95.5t-40.5 151.5q0 72 43.5 130.5t119.5 93.5t173 35q65 0 109.5 -11.5t70.5 -25.5t36 -23v23q0 34 -13.5 63t-40 49.5t-66 32t-91.5 11.5q-80 0 -143 -21t-91 -41l-124 192q40 26 140.5 53.5t240.5 27.5q80 0 146 -21t112 -54.5t66 -73.5
q29 36 76 70t109 56.5t133 22.5q125 0 221.5 -46.5t151.5 -142.5t55 -246q0 -9 -1 -20t-1 -19h-596q0 -63 32.5 -101.5t76.5 -55.5t78 -17q45 0 88 14.5t78 36t57 44.5l163 -171q-42 -39 -100.5 -72t-133.5 -53t-169 -20q-71 0 -135.5 21t-116.5 57t-86 81q-18 -32 -65 -69
t-120.5 -63.5t-171.5 -26.5zM436 149q35 0 63.5 16t45 41.5t16.5 53.5q0 46 -34.5 75t-83.5 29q-30 0 -58.5 -13t-46 -37t-17.5 -57q0 -45 33.5 -76t81.5 -32zM912 524h322q-3 16 -11 40t-24.5 47.5t-44.5 39.5t-71 16q-69 0 -116.5 -41.5t-54.5 -101.5z" />
    <glyph glyph-name="ccedilla" unicode="&#xe7;" horiz-adv-x="817" 
d="M529 215q57 0 94 19.5t50 31.5l139 -206q-16 -13 -55 -33.5t-97.5 -35.5t-133.5 -15q-141 0 -248 53.5t-166.5 151.5t-59.5 230q0 133 59.5 230t166.5 150.5t248 53.5q74 0 132.5 -15.5t98.5 -35t56 -33.5l-142 -208q-7 7 -25.5 20t-47.5 23t-69 10q-49 0 -91.5 -25
t-68.5 -69t-26 -101t26 -101.5t68.5 -69.5t91.5 -25zM417 -433q-95 0 -160.5 29t-90.5 56l100 113q18 -20 52.5 -41t73.5 -21q36 0 57.5 17t21.5 45q0 34 -27 50t-64 16q-31 0 -52.5 -4.5t-28.5 -9.5l-15 12l77 213l106 -36l-36 -90q56 4 106 -13t81.5 -52t31.5 -87
q0 -62 -32 -106t-85.5 -67.5t-115.5 -23.5z" />
    <glyph glyph-name="egrave" unicode="&#xe8;" horiz-adv-x="998" 
d="M326 346q3 -44 28 -78t69.5 -53.5t105.5 -19.5q58 0 104.5 12t81 30t53.5 37l118 -188q-25 -27 -70.5 -52.5t-119.5 -41.5t-187 -16q-136 0 -242 51t-167 150t-61 242q0 120 52.5 216.5t152.5 153t241 56.5q134 0 232.5 -49t152 -145.5t53.5 -240.5q0 -8 -0.5 -32
t-2.5 -32h-594zM637 505q-1 32 -17 63.5t-48 52t-82 20.5t-84.5 -19.5t-52.5 -50.5t-20 -66h304zM656 940l-380 221l144 182l326 -280z" />
    <glyph glyph-name="eacute" unicode="&#xe9;" horiz-adv-x="998" 
d="M326 346q3 -44 28 -78t69.5 -53.5t105.5 -19.5q58 0 104.5 12t81 30t53.5 37l118 -188q-25 -27 -70.5 -52.5t-119.5 -41.5t-187 -16q-136 0 -242 51t-167 150t-61 242q0 120 52.5 216.5t152.5 153t241 56.5q134 0 232.5 -49t152 -145.5t53.5 -240.5q0 -8 -0.5 -32
t-2.5 -32h-594zM637 505q-1 32 -17 63.5t-48 52t-82 20.5t-84.5 -19.5t-52.5 -50.5t-20 -66h304zM365 912l-89 123l325 280l144 -181z" />
    <glyph glyph-name="ecircumflex" unicode="&#xea;" horiz-adv-x="998" 
d="M326 346q3 -44 28 -78t69.5 -53.5t105.5 -19.5q58 0 104.5 12t81 30t53.5 37l118 -188q-25 -27 -70.5 -52.5t-119.5 -41.5t-187 -16q-136 0 -242 51t-167 150t-61 242q0 120 52.5 216.5t152.5 153t241 56.5q134 0 232.5 -49t152 -145.5t53.5 -240.5q0 -8 -0.5 -32
t-2.5 -32h-594zM637 505q-1 32 -17 63.5t-48 52t-82 20.5t-84.5 -19.5t-52.5 -50.5t-20 -66h304zM739 889l-244 179l-244 -178l-109 144l353 258l353 -258z" />
    <glyph glyph-name="edieresis" unicode="&#xeb;" horiz-adv-x="998" 
d="M326 346q3 -44 28 -78t69.5 -53.5t105.5 -19.5q58 0 104.5 12t81 30t53.5 37l118 -188q-25 -27 -70.5 -52.5t-119.5 -41.5t-187 -16q-136 0 -242 51t-167 150t-61 242q0 120 52.5 216.5t152.5 153t241 56.5q134 0 232.5 -49t152 -145.5t53.5 -240.5q0 -8 -0.5 -32
t-2.5 -32h-594zM637 505q-1 32 -17 63.5t-48 52t-82 20.5t-84.5 -19.5t-52.5 -50.5t-20 -66h304zM710 964q-61 0 -104 43t-43 103t43 103.5t104 43.5q60 0 103 -43t43 -104t-43 -103.5t-103 -42.5zM308 964q-62 0 -104.5 43t-42.5 103t42.5 103.5t104.5 43.5q60 0 103 -43
t43 -104t-43 -103.5t-103 -42.5z" />
    <glyph glyph-name="igrave" unicode="&#xec;" horiz-adv-x="434" 
d="M63 0v821h281v-821h-281zM366 940l-380 221l144 182l326 -280z" />
    <glyph glyph-name="iacute" unicode="&#xed;" horiz-adv-x="434" 
d="M63 0v821h281v-821h-281zM75 912l-89 123l325 280l144 -181z" />
    <glyph glyph-name="icircumflex" unicode="&#xee;" horiz-adv-x="434" 
d="M63 0v821h281v-821h-281zM448 889l-244 179l-244 -178l-109 144l353 258l353 -258z" />
    <glyph glyph-name="idieresis" unicode="&#xef;" horiz-adv-x="434" 
d="M63 0v821h281v-821h-281zM420 964q-61 0 -104 43t-43 103t43 103.5t104 43.5q60 0 103 -43t43 -104t-43 -103.5t-103 -42.5zM18 964q-62 0 -104.5 43t-42.5 103t42.5 103.5t104.5 43.5q60 0 103 -43t43 -104t-43 -103.5t-103 -42.5z" />
    <glyph glyph-name="eth" unicode="&#xf0;" horiz-adv-x="1117" 
d="M64 410q0 110 40.5 191.5t106 135.5t143 81t152.5 27q66 0 106 -11t62.5 -26t34.5 -28q-11 37 -42 84t-71 90t-81 68l-151 -149l-123 123l101 100q-33 15 -68.5 28t-65 22.5t-45.5 13.5l66 237q30 -6 78 -21t106.5 -38t118.5 -52l115 114l121 -125l-84 -83
q101 -67 183 -171t130.5 -245.5t48.5 -321.5q0 -146 -63 -253.5t-173 -166t-251 -58.5q-149 0 -260 56t-173 154t-62 224zM363 410q0 -54 23.5 -98t66.5 -70t102 -26q63 0 105.5 26t65 70t22.5 98q0 92 -51 143.5t-142 51.5q-87 0 -139.5 -54.5t-52.5 -140.5z" />
    <glyph glyph-name="ntilde" unicode="&#xf1;" horiz-adv-x="1098" 
d="M649 845q86 0 168 -35t135 -110.5t53 -198.5v-501h-305v451q0 88 -42 132.5t-110 44.5q-45 0 -84.5 -23.5t-64 -66t-24.5 -97.5v-441h-304v821h304v-121q12 33 50.5 66.5t97 56t126.5 22.5zM170 980q10 59 37 122t72.5 107t108.5 44t111 -18.5t90 -37t86 -18.5
q29 0 47.5 25.5t25.5 48.5h161q-9 -59 -36.5 -122t-72.5 -107t-109 -44q-62 0 -110 18.5t-90.5 36.5t-86.5 18q-28 0 -46.5 -25t-25.5 -48h-162z" />
    <glyph glyph-name="ograve" unicode="&#xf2;" horiz-adv-x="1033" 
d="M502 -24q-135 0 -239.5 55.5t-164 153t-59.5 223.5t59.5 224.5t164 155.5t239.5 57t238 -57t161 -155.5t58 -224.5t-58 -223.5t-161 -153t-238 -55.5zM502 226q52 0 90 23t59 65t21 95q0 54 -21 96t-59 66t-90 24t-90.5 -24t-60 -66t-21.5 -96q0 -53 21.5 -95t60 -65
t90.5 -23zM661 940l-380 221l144 182l326 -280z" />
    <glyph glyph-name="oacute" unicode="&#xf3;" horiz-adv-x="1033" 
d="M502 -24q-135 0 -239.5 55.5t-164 153t-59.5 223.5t59.5 224.5t164 155.5t239.5 57t238 -57t161 -155.5t58 -224.5t-58 -223.5t-161 -153t-238 -55.5zM502 226q52 0 90 23t59 65t21 95q0 54 -21 96t-59 66t-90 24t-90.5 -24t-60 -66t-21.5 -96q0 -53 21.5 -95t60 -65
t90.5 -23zM370 912l-89 123l325 280l144 -181z" />
    <glyph glyph-name="ocircumflex" unicode="&#xf4;" horiz-adv-x="1033" 
d="M502 -24q-135 0 -239.5 55.5t-164 153t-59.5 223.5t59.5 224.5t164 155.5t239.5 57t238 -57t161 -155.5t58 -224.5t-58 -223.5t-161 -153t-238 -55.5zM502 226q52 0 90 23t59 65t21 95q0 54 -21 96t-59 66t-90 24t-90.5 -24t-60 -66t-21.5 -96q0 -53 21.5 -95t60 -65
t90.5 -23zM743 889l-244 179l-244 -178l-109 144l353 258l353 -258z" />
    <glyph glyph-name="otilde" unicode="&#xf5;" horiz-adv-x="1013" 
d="M502 -24q-135 0 -239.5 55.5t-164 153t-59.5 223.5t59.5 224.5t164 155.5t239.5 57t238 -57t161 -155.5t58 -224.5t-58 -223.5t-161 -153t-238 -55.5zM502 226q52 0 90 23t59 65t21 95q0 54 -21 96t-59 66t-90 24t-90.5 -24t-60 -66t-21.5 -96q0 -53 21.5 -95t60 -65
t90.5 -23zM121 985q10 59 37 122t72.5 107t108.5 44t111 -18.5t90 -36.5t86 -18q29 0 47.5 25t25.5 48h161q-9 -58 -36.5 -121.5t-72.5 -107.5t-109 -44q-62 0 -110 18.5t-90.5 37t-86.5 18.5q-28 0 -46.5 -25t-25.5 -49h-162z" />
    <glyph glyph-name="odieresis" unicode="&#xf6;" horiz-adv-x="1033" 
d="M502 -24q-135 0 -239.5 55.5t-164 153t-59.5 223.5t59.5 224.5t164 155.5t239.5 57t238 -57t161 -155.5t58 -224.5t-58 -223.5t-161 -153t-238 -55.5zM502 226q52 0 90 23t59 65t21 95q0 54 -21 96t-59 66t-90 24t-90.5 -24t-60 -66t-21.5 -96q0 -53 21.5 -95t60 -65
t90.5 -23zM715 964q-61 0 -104 43t-43 103t43 103.5t104 43.5q60 0 103 -43t43 -104t-43 -103.5t-103 -42.5zM313 964q-62 0 -104.5 43t-42.5 103t42.5 103.5t104.5 43.5q60 0 103 -43t43 -104t-43 -103.5t-103 -42.5z" />
    <glyph glyph-name="divide" unicode="&#xf7;" horiz-adv-x="1040" 
d="M503 1151q56 0 93.5 -38.5t37.5 -92.5q0 -52 -37.5 -89.5t-93.5 -37.5q-52 0 -89.5 37.5t-37.5 89.5q0 55 37.5 93t89.5 38zM96 540v246h820v-246h-820zM503 434q56 0 93.5 -38t37.5 -93q0 -52 -38 -89.5t-93 -37.5q-52 0 -89.5 37.5t-37.5 89.5q0 55 37.5 93t89.5 38z
" />
    <glyph glyph-name="oslash" unicode="&#xf8;" horiz-adv-x="1013" 
d="M870 871l81 -71l-830 -844l-82 71zM502 -24q-135 0 -239.5 55.5t-164 153t-59.5 223.5t59.5 224.5t164 155.5t239.5 57t238 -57t161 -155.5t58 -224.5t-58 -223.5t-161 -153t-238 -55.5zM502 226q52 0 90 23t59 65t21 95q0 54 -21 96t-59 66t-90 24t-90.5 -24t-60 -66
t-21.5 -96q0 -53 21.5 -95t60 -65t90.5 -23z" />
    <glyph glyph-name="ugrave" unicode="&#xf9;" horiz-adv-x="1096" 
d="M372 441q0 -98 37 -156.5t124 -58.5q89 0 125.5 58.5t36.5 156.5v380h300v-412q0 -132 -54.5 -229.5t-157.5 -150.5t-250 -53q-146 0 -249 53t-157 150.5t-54 229.5v412h299v-380zM695 940l-380 221l144 182l326 -280z" />
    <glyph glyph-name="uacute" unicode="&#xfa;" horiz-adv-x="1096" 
d="M372 441q0 -98 37 -156.5t124 -58.5q89 0 125.5 58.5t36.5 156.5v380h300v-412q0 -132 -54.5 -229.5t-157.5 -150.5t-250 -53q-146 0 -249 53t-157 150.5t-54 229.5v412h299v-380zM404 912l-89 123l325 280l144 -181z" />
    <glyph glyph-name="ucircumflex" unicode="&#xfb;" horiz-adv-x="1096" 
d="M372 441q0 -98 37 -156.5t124 -58.5q89 0 125.5 58.5t36.5 156.5v380h300v-412q0 -132 -54.5 -229.5t-157.5 -150.5t-250 -53q-146 0 -249 53t-157 150.5t-54 229.5v412h299v-380zM778 889l-244 179l-244 -178l-109 144l353 258l353 -258z" />
    <glyph glyph-name="udieresis" unicode="&#xfc;" horiz-adv-x="1096" 
d="M372 441q0 -98 37 -156.5t124 -58.5q89 0 125.5 58.5t36.5 156.5v380h300v-412q0 -132 -54.5 -229.5t-157.5 -150.5t-250 -53q-146 0 -249 53t-157 150.5t-54 229.5v412h299v-380zM749 964q-61 0 -104 43t-43 103t43 103.5t104 43.5q60 0 103 -43t43 -104t-43 -103.5
t-103 -42.5zM347 964q-62 0 -104.5 43t-42.5 103t42.5 103.5t104.5 43.5q60 0 103 -43t43 -104t-43 -103.5t-103 -42.5z" />
    <glyph glyph-name="yacute" unicode="&#xfd;" horiz-adv-x="1029" 
d="M498 263l222 558h298l-564 -1237h-304l190 416l-343 821h303zM371 912l-89 123l325 280l144 -181z" />
    <glyph glyph-name="thorn" unicode="&#xfe;" horiz-adv-x="1117" 
d="M79 0h301v-416h-301v416zM79 0v1376h304v-675q9 28 46.5 61.5t99 58t139.5 24.5q120 0 208 -59t136 -157.5t48 -218.5t-48 -218.5t-136 -157t-208 -58.5q-66 0 -124.5 23.5t-101 60t-62.5 73.5v-133h-301zM762 410q0 56 -24.5 100.5t-67 70t-95.5 25.5q-55 0 -98.5 -25.5
t-68.5 -70t-25 -100.5t25 -100.5t68.5 -69.5t98.5 -25q53 0 95.5 25t67 69.5t24.5 100.5z" />
    <glyph glyph-name="ydieresis" unicode="&#xff;" horiz-adv-x="1029" 
d="M498 263l222 558h298l-564 -1237h-304l190 416l-343 821h303zM716 964q-61 0 -104 43t-43 103t43 103.5t104 43.5q60 0 103 -43t43 -104t-43 -103.5t-103 -42.5zM314 964q-62 0 -104.5 43t-42.5 103t42.5 103.5t104.5 43.5q60 0 103 -43t43 -104t-43 -103.5t-103 -42.5z
" />
    <glyph glyph-name="Amacron" unicode="&#x100;" horiz-adv-x="1351" 
d="M511 1320h297l521 -1320h-319l-96 265h-508l-97 -265h-320zM506 527h309l-153 433h-3zM333 1446v190h652v-190h-652z" />
    <glyph glyph-name="amacron" unicode="&#x101;" horiz-adv-x="1117" 
d="M721 0v133q-9 -20 -45.5 -58t-96.5 -68.5t-140 -30.5q-120 0 -210 58.5t-140 157t-50 218.5t50 218.5t140 157.5t210 59q77 0 135 -24.5t94 -58t50 -61.5v120h302v-821h-299zM337 410q0 -56 26 -100.5t69.5 -69.5t96.5 -25q55 0 97 25t66.5 69.5t24.5 100.5t-24.5 100.5
t-66.5 70t-97 25.5q-53 0 -96.5 -25.5t-69.5 -70t-26 -100.5zM213 1015v190h651v-190h-651z" />
    <glyph glyph-name="Abreve" unicode="&#x102;" horiz-adv-x="1351" 
d="M511 1320h297l521 -1320h-319l-96 265h-508l-97 -265h-320zM506 527h309l-153 433h-3zM660 1389q-92 0 -162.5 32.5t-113 90t-51.5 133.5l176 44q4 -31 21 -65.5t49 -58.5t81 -24q48 0 80 24t49.5 58.5t20.5 65.5l176 -44q-7 -73 -49 -131t-112.5 -91.5t-164.5 -33.5z
" />
    <glyph glyph-name="abreve" unicode="&#x103;" horiz-adv-x="1117" 
d="M721 0v133q-9 -20 -45.5 -58t-96.5 -68.5t-140 -30.5q-120 0 -210 58.5t-140 157t-50 218.5t50 218.5t140 157.5t210 59q77 0 135 -24.5t94 -58t50 -61.5v120h302v-821h-299zM337 410q0 -56 26 -100.5t69.5 -69.5t96.5 -25q55 0 97 25t66.5 69.5t24.5 100.5t-24.5 100.5
t-66.5 70t-97 25.5q-53 0 -96.5 -25.5t-69.5 -70t-26 -100.5zM543 919q-102 0 -182 36.5t-128.5 101.5t-58.5 151l201 50q5 -35 23.5 -73.5t54.5 -65t90 -26.5t90 26.5t55 65t23 73.5l200 -50q-9 -83 -56.5 -148.5t-127 -103t-184.5 -37.5z" />
    <glyph glyph-name="Aogonek" unicode="&#x104;" horiz-adv-x="1356" 
d="M511 1320h297l521 -1320h-319l-96 265h-508l-97 -265h-320zM506 527h309l-153 433h-3zM1062 -435q-42 0 -88.5 17t-79 57t-32.5 109q0 46 27 100.5t66 105.5t75 87l89 -41q-21 -24 -43 -61t-38 -79t-16 -81q0 -35 19.5 -50.5t46.5 -15.5q26 0 48 16t32 31l113 -85
q-23 -37 -82.5 -73.5t-136.5 -36.5z" />
    <glyph glyph-name="aogonek" unicode="&#x105;" horiz-adv-x="1117" 
d="M721 0v133q-9 -20 -45.5 -58t-96.5 -68.5t-140 -30.5q-120 0 -210 58.5t-140 157t-50 218.5t50 218.5t140 157.5t210 59q77 0 135 -24.5t94 -58t50 -61.5v120h302v-821h-299zM337 410q0 -56 26 -100.5t69.5 -69.5t96.5 -25q55 0 97 25t66.5 69.5t24.5 100.5t-24.5 100.5
t-66.5 70t-97 25.5q-53 0 -96.5 -25.5t-69.5 -70t-26 -100.5zM866 -435q-42 0 -88.5 17t-79 57t-32.5 109q0 46 27 100.5t66 105.5t75 87l89 -41q-21 -24 -43 -61t-38 -79t-16 -81q0 -35 19.5 -50.5t46.5 -15.5q26 0 48 16t32 31l113 -85q-23 -37 -82.5 -73.5t-136.5 -36.5z
" />
    <glyph glyph-name="Cacute" unicode="&#x106;" horiz-adv-x="1289" 
d="M782 272q92 0 167.5 27t112.5 53l128 -254q-47 -40 -160.5 -81t-269.5 -41q-146 0 -274 51t-225.5 143.5t-153 217t-55.5 270.5t55 271.5t152.5 218.5t226 144.5t274.5 51.5q156 0 269.5 -41t160.5 -81l-128 -254q-37 27 -112.5 53.5t-167.5 26.5q-102 0 -178 -31.5
t-127 -86.5t-76 -124t-25 -145q0 -77 25 -146.5t76 -124.5t127 -86.5t178 -31.5zM629 1376l-90 122l325 281l145 -182z" />
    <glyph glyph-name="cacute" unicode="&#x107;" horiz-adv-x="817" 
d="M529 215q57 0 94 19.5t50 31.5l139 -206q-16 -13 -55 -33.5t-97.5 -35.5t-133.5 -15q-141 0 -248 53.5t-166.5 151.5t-59.5 230q0 133 59.5 230t166.5 150.5t248 53.5q74 0 132.5 -15.5t98.5 -35t56 -33.5l-142 -208q-7 7 -25.5 20t-47.5 23t-69 10q-49 0 -91.5 -25
t-68.5 -69t-26 -101t26 -101.5t68.5 -69.5t91.5 -25zM392 940l-89 123l325 280l144 -182z" />
    <glyph glyph-name="Ccircumflex" unicode="&#x108;" horiz-adv-x="1289" 
d="M782 272q92 0 167.5 27t112.5 53l128 -254q-47 -40 -160.5 -81t-269.5 -41q-146 0 -274 51t-225.5 143.5t-153 217t-55.5 270.5t55 271.5t152.5 218.5t226 144.5t274.5 51.5q156 0 269.5 -41t160.5 -81l-128 -254q-37 27 -112.5 53.5t-167.5 26.5q-102 0 -178 -31.5
t-127 -86.5t-76 -124t-25 -145q0 -77 25 -146.5t76 -124.5t127 -86.5t178 -31.5zM469 1397l-109 145l353 258l352 -259l-108 -144l-244 179z" />
    <glyph glyph-name="ccircumflex" unicode="&#x109;" horiz-adv-x="852" 
d="M529 215q57 0 94 19.5t50 31.5l139 -206q-16 -13 -55 -33.5t-97.5 -35.5t-133.5 -15q-141 0 -248 53.5t-166.5 151.5t-59.5 230q0 133 59.5 230t166.5 150.5t248 53.5q74 0 132.5 -15.5t98.5 -35t56 -33.5l-142 -208q-7 7 -25.5 20t-47.5 23t-69 10q-49 0 -91.5 -25
t-68.5 -69t-26 -101t26 -101.5t68.5 -69.5t91.5 -25zM750 889l-244 179l-244 -178l-109 144l353 258l353 -258z" />
    <glyph glyph-name="Cdotaccent" unicode="&#x10a;" horiz-adv-x="1289" 
d="M782 272q92 0 167.5 27t112.5 53l128 -254q-47 -40 -160.5 -81t-269.5 -41q-146 0 -274 51t-225.5 143.5t-153 217t-55.5 270.5t55 271.5t152.5 218.5t226 144.5t274.5 51.5q156 0 269.5 -41t160.5 -81l-128 -254q-37 27 -112.5 53.5t-167.5 26.5q-102 0 -178 -31.5
t-127 -86.5t-76 -124t-25 -145q0 -77 25 -146.5t76 -124.5t127 -86.5t178 -31.5zM713 1427q-61 0 -103.5 43.5t-42.5 103.5t42.5 103.5t103.5 43.5q60 0 103 -43.5t43 -103.5q0 -61 -43 -104t-103 -43z" />
    <glyph glyph-name="cdotaccent" unicode="&#x10b;" horiz-adv-x="817" 
d="M529 215q57 0 94 19.5t50 31.5l139 -206q-16 -13 -55 -33.5t-97.5 -35.5t-133.5 -15q-141 0 -248 53.5t-166.5 151.5t-59.5 230q0 133 59.5 230t166.5 150.5t248 53.5q74 0 132.5 -15.5t98.5 -35t56 -33.5l-142 -208q-7 7 -25.5 20t-47.5 23t-69 10q-49 0 -91.5 -25
t-68.5 -69t-26 -101t26 -101.5t68.5 -69.5t91.5 -25zM521 972q-61 0 -103.5 43t-42.5 103t42.5 103.5t103.5 43.5q60 0 103 -43t43 -104t-43 -103.5t-103 -42.5z" />
    <glyph glyph-name="Ccaron" unicode="&#x10c;" horiz-adv-x="1289" 
d="M782 272q92 0 167.5 27t112.5 53l128 -254q-47 -40 -160.5 -81t-269.5 -41q-146 0 -274 51t-225.5 143.5t-153 217t-55.5 270.5t55 271.5t152.5 218.5t226 144.5t274.5 51.5q156 0 269.5 -41t160.5 -81l-128 -254q-37 27 -112.5 53.5t-167.5 26.5q-102 0 -178 -31.5
t-127 -86.5t-76 -124t-25 -145q0 -77 25 -146.5t76 -124.5t127 -86.5t178 -31.5zM714 1409l-308 226l95 126l213 -155l213 155l94 -126z" />
    <glyph glyph-name="ccaron" unicode="&#x10d;" horiz-adv-x="817" 
d="M529 215q57 0 94 19.5t50 31.5l139 -206q-16 -13 -55 -33.5t-97.5 -35.5t-133.5 -15q-141 0 -248 53.5t-166.5 151.5t-59.5 230q0 133 59.5 230t166.5 150.5t248 53.5q74 0 132.5 -15.5t98.5 -35t56 -33.5l-142 -208q-7 7 -25.5 20t-47.5 23t-69 10q-49 0 -91.5 -25
t-68.5 -69t-26 -101t26 -101.5t68.5 -69.5t91.5 -25zM522 940l-353 258l109 145l244 -179l244 179l109 -145z" />
    <glyph glyph-name="Dcaron" unicode="&#x10e;" horiz-adv-x="1201" 
d="M86 1320h397q211 0 349.5 -84.5t207.5 -233.5t69 -341q0 -193 -69 -342t-207.5 -234t-349.5 -85h-397v1320zM384 1055v-790h72q113 0 187 51.5t111.5 141t37.5 201.5q0 113 -36.5 202.5t-111.5 141.5t-188 52h-72zM566 1409l-308 226l95 126l213 -155l213 155l94 -126z
" />
    <glyph glyph-name="dcaron" unicode="&#x10f;" horiz-adv-x="1235" 
d="M1197 972l-55 62q34 18 76 55.5t56 83.5q-14 -8 -38 -8q-41 0 -73.5 32t-32.5 87q0 52 36.5 87.5t87.5 35.5q52 0 88.5 -35.5t36.5 -104.5q0 -59 -25.5 -117t-67 -105t-89.5 -73zM436 -24q-119 0 -207 58.5t-136.5 157t-48.5 218.5t48.5 218.5t136.5 157.5t207 59
q79 0 140 -24.5t99 -58t46 -61.5v675h304v-1376h-301v133q-19 -37 -62 -73.5t-101 -60t-125 -23.5zM529 215q55 0 98.5 25t68.5 69.5t25 100.5t-25 100.5t-68.5 70t-98.5 25.5q-53 0 -95.5 -25.5t-67 -70t-24.5 -100.5t24.5 -100.5t67 -69.5t95.5 -25z" />
    <glyph glyph-name="Dcroat" unicode="&#x110;" horiz-adv-x="1201" 
d="M86 0v1320h397q211 0 349.5 -84.5t207.5 -233.5t69 -341q0 -193 -69 -342t-207.5 -234t-349.5 -85h-397zM-18 528v258h589v-258h-589zM384 265h72q113 0 187 51.5t111.5 141t37.5 201.5q0 113 -36.5 202.5t-111.5 141.5t-188 52h-72v-790z" />
    <glyph glyph-name="dcroat" unicode="&#x111;" horiz-adv-x="1117" 
d="M544 1005v181h577v-181h-577zM436 -24q-119 0 -207 58.5t-136.5 157t-48.5 218.5t48.5 218.5t136.5 157.5t207 59q79 0 140 -24.5t99 -58t46 -61.5v675h304v-1376h-301v133q-19 -37 -62 -73.5t-101 -60t-125 -23.5zM529 215q55 0 98.5 25t68.5 69.5t25 100.5t-25 100.5
t-68.5 70t-98.5 25.5q-53 0 -95.5 -25.5t-67 -70t-24.5 -100.5t24.5 -100.5t67 -69.5t95.5 -25z" />
    <glyph glyph-name="Emacron" unicode="&#x112;" horiz-adv-x="1069" 
d="M83 1320h843v-262h-545v-269h540v-254h-540v-273h545v-262h-843v1320zM155 1446v190h652v-190h-652z" />
    <glyph glyph-name="emacron" unicode="&#x113;" horiz-adv-x="1003" 
d="M326 346q3 -44 28 -78t69.5 -53.5t105.5 -19.5q58 0 104.5 12t81 30t53.5 37l118 -188q-25 -27 -70.5 -52.5t-119.5 -41.5t-187 -16q-136 0 -242 51t-167 150t-61 242q0 120 52.5 216.5t152.5 153t241 56.5q134 0 232.5 -49t152 -145.5t53.5 -240.5q0 -8 -0.5 -32
t-2.5 -32h-594zM637 505q-1 32 -17 63.5t-48 52t-82 20.5t-84.5 -19.5t-52.5 -50.5t-20 -66h304zM147 1015v190h651v-190h-651z" />
    <glyph glyph-name="Ebreve" unicode="&#x114;" horiz-adv-x="1069" 
d="M83 1320h843v-262h-545v-269h540v-254h-540v-273h545v-262h-843v1320zM482 1389q-92 0 -162.5 32.5t-113 90t-51.5 133.5l176 44q4 -31 21 -65.5t49 -58.5t81 -24q48 0 80 24t49.5 58.5t20.5 65.5l176 -44q-7 -73 -49 -131t-112.5 -91.5t-164.5 -33.5z" />
    <glyph glyph-name="ebreve" unicode="&#x115;" horiz-adv-x="998" 
d="M326 346q3 -44 28 -78t69.5 -53.5t105.5 -19.5q58 0 104.5 12t81 30t53.5 37l118 -188q-25 -27 -70.5 -52.5t-119.5 -41.5t-187 -16q-136 0 -242 51t-167 150t-61 242q0 120 52.5 216.5t152.5 153t241 56.5q134 0 232.5 -49t152 -145.5t53.5 -240.5q0 -8 -0.5 -32
t-2.5 -32h-594zM637 505q-1 32 -17 63.5t-48 52t-82 20.5t-84.5 -19.5t-52.5 -50.5t-20 -66h304zM494 919q-102 0 -182 36.5t-128.5 101.5t-58.5 151l201 50q5 -35 23.5 -73.5t54.5 -65t90 -26.5t90 26.5t55 65t23 73.5l200 -50q-9 -83 -56.5 -148.5t-127 -103t-184.5 -37.5
z" />
    <glyph glyph-name="Edotaccent" unicode="&#x116;" horiz-adv-x="1069" 
d="M83 1320h843v-262h-545v-269h540v-254h-540v-273h545v-262h-843v1320zM481 1427q-61 0 -103.5 43.5t-42.5 103.5t42.5 103.5t103.5 43.5q60 0 103 -43.5t43 -103.5q0 -61 -43 -104t-103 -43z" />
    <glyph glyph-name="edotaccent" unicode="&#x117;" horiz-adv-x="997" 
d="M326 346q3 -44 28 -78t69.5 -53.5t105.5 -19.5q58 0 104.5 12t81 30t53.5 37l118 -188q-25 -27 -70.5 -52.5t-119.5 -41.5t-187 -16q-136 0 -242 51t-167 150t-61 242q0 120 52.5 216.5t152.5 153t241 56.5q134 0 232.5 -49t152 -145.5t53.5 -240.5q0 -8 -0.5 -32
t-2.5 -32h-594zM637 505q-1 32 -17 63.5t-48 52t-82 20.5t-84.5 -19.5t-52.5 -50.5t-20 -66h304zM468 972q-61 0 -103.5 43t-42.5 103t42.5 103.5t103.5 43.5q60 0 103 -43t43 -104t-43 -103.5t-103 -42.5z" />
    <glyph glyph-name="Eogonek" unicode="&#x118;" horiz-adv-x="1069" 
d="M83 1320h843v-262h-545v-269h540v-254h-540v-273h545v-262h-843v1320zM643 -434q-42 0 -88.5 17t-79 57t-32.5 109q0 46 27 100.5t66 105.5t75 87l89 -41q-21 -24 -43 -61.5t-38 -80t-16 -83.5q0 -30 21 -46t42 -16q28 0 50.5 16t32.5 31l113 -85q-23 -37 -82.5 -73.5
t-136.5 -36.5z" />
    <glyph glyph-name="eogonek" unicode="&#x119;" horiz-adv-x="1003" 
d="M326 346q3 -44 28 -78t69.5 -53.5t105.5 -19.5q58 0 104.5 12t81 30t53.5 37l118 -188q-25 -27 -70.5 -52.5t-119.5 -41.5t-187 -16q-136 0 -242 51t-167 150t-61 242q0 120 52.5 216.5t152.5 153t241 56.5q134 0 232.5 -49t152 -145.5t53.5 -240.5q0 -8 -0.5 -32
t-2.5 -32h-594zM637 505q-1 32 -17 63.5t-48 52t-82 20.5t-84.5 -19.5t-52.5 -50.5t-20 -66h304zM583 -435q-42 0 -88.5 17t-79 57t-32.5 109q0 46 27 100.5t66 105.5t75 87l89 -41q-21 -24 -43 -61t-38 -79t-16 -81q0 -35 19.5 -50.5t46.5 -15.5q26 0 48 16t32 31l113 -85
q-23 -37 -82.5 -73.5t-136.5 -36.5z" />
    <glyph glyph-name="Ecaron" unicode="&#x11a;" horiz-adv-x="1069" 
d="M83 1320h843v-262h-545v-269h540v-254h-540v-273h545v-262h-843v1320zM482 1409l-308 226l95 126l213 -155l213 155l94 -126z" />
    <glyph glyph-name="ecaron" unicode="&#x11b;" horiz-adv-x="1003" 
d="M326 346q3 -44 28 -78t69.5 -53.5t105.5 -19.5q58 0 104.5 12t81 30t53.5 37l118 -188q-25 -27 -70.5 -52.5t-119.5 -41.5t-187 -16q-136 0 -242 51t-167 150t-61 242q0 120 52.5 216.5t152.5 153t241 56.5q134 0 232.5 -49t152 -145.5t53.5 -240.5q0 -8 -0.5 -32
t-2.5 -32h-594zM637 505q-1 32 -17 63.5t-48 52t-82 20.5t-84.5 -19.5t-52.5 -50.5t-20 -66h304zM468 940l-353 258l109 145l244 -179l244 179l109 -145z" />
    <glyph glyph-name="Gcircumflex" unicode="&#x11c;" horiz-adv-x="1470" 
d="M709 738h673v-84q0 -142 -47.5 -265t-135.5 -216t-210 -145t-270 -52q-153 0 -277.5 52.5t-214.5 146.5t-138 218.5t-48 267.5q0 142 48 266.5t138 218t214.5 146t277.5 52.5q125 0 220.5 -27t164.5 -72t117 -98.5t80 -104.5l-284 -134q-41 63 -111.5 110t-186.5 47
q-81 0 -148.5 -32t-116.5 -87.5t-75.5 -129t-26.5 -155.5q0 -83 26.5 -156t75.5 -129t116.5 -87.5t148.5 -31.5q71 0 129 18t100.5 52t67 80.5t29.5 102.5h-336v228zM476 1397l-109 145l353 258l352 -259l-108 -144l-244 179z" />
    <glyph glyph-name="gcircumflex" unicode="&#x11d;" horiz-adv-x="1131" 
d="M515 -439q-86 0 -170.5 15t-157.5 51t-123 99l178 185q23 -27 56.5 -53t83 -43t120.5 -17q66 0 115 23t76.5 67t27.5 107v20h299v-38q0 -136 -67.5 -229t-181.5 -140t-256 -47zM721 0v133q-9 -20 -45.5 -58t-96.5 -68.5t-140 -30.5q-120 0 -210 58.5t-140 157t-50 218.5
t50 218.5t140 157.5t210 59q77 0 135 -24.5t94 -58t50 -61.5v120h302v-821h-299zM337 410q0 -56 26 -100.5t69.5 -69.5t96.5 -25q55 0 97 25t66.5 69.5t24.5 100.5t-24.5 100.5t-66.5 70t-97 25.5q-53 0 -96.5 -25.5t-69.5 -70t-26 -100.5zM784 889l-244 179l-244 -178
l-109 144l353 258l353 -258z" />
    <glyph glyph-name="Gbreve" unicode="&#x11e;" horiz-adv-x="1470" 
d="M709 738h673v-84q0 -142 -47.5 -265t-135.5 -216t-210 -145t-270 -52q-153 0 -277.5 52.5t-214.5 146.5t-138 218.5t-48 267.5q0 142 48 266.5t138 218t214.5 146t277.5 52.5q125 0 220.5 -27t164.5 -72t117 -98.5t80 -104.5l-284 -134q-41 63 -111.5 110t-186.5 47
q-81 0 -148.5 -32t-116.5 -87.5t-75.5 -129t-26.5 -155.5q0 -83 26.5 -156t75.5 -129t116.5 -87.5t148.5 -31.5q71 0 129 18t100.5 52t67 80.5t29.5 102.5h-336v228zM720 1389q-92 0 -162.5 32.5t-113 90t-51.5 133.5l176 44q4 -31 21 -65.5t49 -58.5t81 -24q48 0 80 24
t49.5 58.5t20.5 65.5l176 -44q-7 -73 -49 -131t-112.5 -91.5t-164.5 -33.5z" />
    <glyph glyph-name="gbreve" unicode="&#x11f;" horiz-adv-x="1117" 
d="M515 -439q-86 0 -170.5 15t-157.5 51t-123 99l178 185q23 -27 56.5 -53t83 -43t120.5 -17q66 0 115 23t76.5 67t27.5 107v20h299v-38q0 -136 -67.5 -229t-181.5 -140t-256 -47zM721 0v133q-9 -20 -45.5 -58t-96.5 -68.5t-140 -30.5q-120 0 -210 58.5t-140 157t-50 218.5
t50 218.5t140 157.5t210 59q77 0 135 -24.5t94 -58t50 -61.5v120h302v-821h-299zM337 410q0 -56 26 -100.5t69.5 -69.5t96.5 -25q55 0 97 25t66.5 69.5t24.5 100.5t-24.5 100.5t-66.5 70t-97 25.5q-53 0 -96.5 -25.5t-69.5 -70t-26 -100.5zM540 919q-102 0 -182 36.5
t-128.5 101.5t-58.5 151l201 50q5 -35 23.5 -73.5t54.5 -65t90 -26.5t90 26.5t55 65t23 73.5l200 -50q-9 -83 -56.5 -148.5t-127 -103t-184.5 -37.5z" />
    <glyph glyph-name="Gdotaccent" unicode="&#x120;" horiz-adv-x="1470" 
d="M709 738h673v-84q0 -142 -47.5 -265t-135.5 -216t-210 -145t-270 -52q-153 0 -277.5 52.5t-214.5 146.5t-138 218.5t-48 267.5q0 142 48 266.5t138 218t214.5 146t277.5 52.5q125 0 220.5 -27t164.5 -72t117 -98.5t80 -104.5l-284 -134q-41 63 -111.5 110t-186.5 47
q-81 0 -148.5 -32t-116.5 -87.5t-75.5 -129t-26.5 -155.5q0 -83 26.5 -156t75.5 -129t116.5 -87.5t148.5 -31.5q71 0 129 18t100.5 52t67 80.5t29.5 102.5h-336v228zM720 1427q-61 0 -103.5 43.5t-42.5 103.5t42.5 103.5t103.5 43.5q60 0 103 -43.5t43 -103.5
q0 -61 -43 -104t-103 -43z" />
    <glyph glyph-name="gdotaccent" unicode="&#x121;" horiz-adv-x="1110" 
d="M515 -439q-86 0 -170.5 15t-157.5 51t-123 99l178 185q23 -27 56.5 -53t83 -43t120.5 -17q66 0 115 23t76.5 67t27.5 107v20h299v-38q0 -136 -67.5 -229t-181.5 -140t-256 -47zM721 0v133q-9 -20 -45.5 -58t-96.5 -68.5t-140 -30.5q-120 0 -210 58.5t-140 157t-50 218.5
t50 218.5t140 157.5t210 59q77 0 135 -24.5t94 -58t50 -61.5v120h302v-821h-299zM337 410q0 -56 26 -100.5t69.5 -69.5t96.5 -25q55 0 97 25t66.5 69.5t24.5 100.5t-24.5 100.5t-66.5 70t-97 25.5q-53 0 -96.5 -25.5t-69.5 -70t-26 -100.5zM502 972q-61 0 -103.5 43
t-42.5 103t42.5 103.5t103.5 43.5q60 0 103 -43t43 -104t-43 -103.5t-103 -42.5z" />
    <glyph glyph-name="uni0122" unicode="&#x122;" horiz-adv-x="1470" 
d="M709 738h673v-84q0 -142 -47.5 -265t-135.5 -216t-210 -145t-270 -52q-153 0 -277.5 52.5t-214.5 146.5t-138 218.5t-48 267.5q0 142 48 266.5t138 218t214.5 146t277.5 52.5q125 0 220.5 -27t164.5 -72t117 -98.5t80 -104.5l-284 -134q-41 63 -111.5 110t-186.5 47
q-81 0 -148.5 -32t-116.5 -87.5t-75.5 -129t-26.5 -155.5q0 -83 26.5 -156t75.5 -129t116.5 -87.5t148.5 -31.5q71 0 129 18t100.5 52t67 80.5t29.5 102.5h-336v228zM680 -585l-65 73q41 21 91 65.5t65 97.5q-16 -8 -44 -8q-48 0 -86.5 37.5t-38.5 101.5q0 62 43.5 104
t102.5 42q61 0 104 -41.5t43 -123.5q0 -71 -30 -139.5t-79 -123t-106 -85.5z" />
    <glyph glyph-name="uni0123" unicode="&#x123;" horiz-adv-x="1131" 
d="M515 -439q-86 0 -170.5 15t-157.5 51t-123 99l178 185q23 -27 56.5 -53t83 -43t120.5 -17q66 0 115 23t76.5 67t27.5 107v20h299v-38q0 -136 -67.5 -229t-181.5 -140t-256 -47zM721 0v133q-9 -20 -45.5 -58t-96.5 -68.5t-140 -30.5q-120 0 -210 58.5t-140 157t-50 218.5
t50 218.5t140 157.5t210 59q77 0 135 -24.5t94 -58t50 -61.5v120h302v-821h-299zM337 410q0 -56 26 -100.5t69.5 -69.5t96.5 -25q55 0 97 25t66.5 69.5t24.5 100.5t-24.5 100.5t-66.5 70t-97 25.5q-53 0 -96.5 -25.5t-69.5 -70t-26 -100.5zM512 959q-48 0 -83 34t-35 99
q0 57 24.5 111t63.5 98t84 68l52 -57q-33 -18 -72.5 -53t-52.5 -79q13 7 36 7q38 0 69 -30t31 -81q0 -49 -34.5 -83t-82.5 -34z" />
    <glyph glyph-name="Hcircumflex" unicode="&#x124;" horiz-adv-x="1277" 
d="M837 531h-456v-531h-298v1320h298v-528h456v528h297v-1320h-297v531zM365 1397l-109 145l353 258l352 -259l-108 -144l-244 179z" />
    <glyph glyph-name="hcircumflex" unicode="&#x125;" horiz-adv-x="1108" 
d="M656 845q86 0 168 -35t135 -110.5t53 -198.5v-501h-304v451q0 88 -39.5 132.5t-107.5 44.5q-45 0 -86 -23.5t-66.5 -66t-25.5 -97.5v-441h-305v1376h305v-676q11 33 49.5 66.5t97 56t126.5 22.5zM789 1473l-244 179l-244 -178l-109 144l353 258l353 -258z" />
    <glyph glyph-name="Hbar" unicode="&#x126;" horiz-adv-x="1277" 
d="M-3 1160h1217v-192h-1217v192zM837 531h-456v-531h-298v1320h298v-528h456v528h297v-1320h-297v531z" />
    <glyph glyph-name="hbar" unicode="&#x127;" horiz-adv-x="1108" 
d="M-23 1005v181h578v-181h-578zM656 845q86 0 168 -35t135 -110.5t53 -198.5v-501h-304v451q0 88 -39.5 132.5t-107.5 44.5q-45 0 -86 -23.5t-66.5 -66t-25.5 -97.5v-441h-305v1376h305v-676q11 33 49.5 66.5t97 56t126.5 22.5z" />
    <glyph glyph-name="Itilde" unicode="&#x128;" horiz-adv-x="541" 
d="M94 1320h299v-1320h-299v1320zM-127 1409q9 59 36.5 122t72.5 107t109 44q63 0 111 -18.5t89.5 -37t86.5 -18.5q29 0 47.5 25.5t24.5 48.5h162q-10 -58 -37 -121.5t-72 -107.5t-109 -44q-63 0 -111 18.5t-90 37t-87 18.5q-28 0 -46.5 -25t-25.5 -49h-161z" />
    <glyph glyph-name="itilde" unicode="&#x129;" horiz-adv-x="434" 
d="M63 0v821h281v-821h-281zM-150 980q10 59 37 122t72.5 107t108.5 44t111 -18.5t90 -37t86 -18.5q29 0 47.5 25.5t25.5 48.5h161q-9 -59 -36.5 -122t-72.5 -107t-109 -44q-62 0 -110 18.5t-90.5 36.5t-86.5 18q-28 0 -46.5 -25t-25.5 -48h-162z" />
    <glyph glyph-name="Imacron" unicode="&#x12a;" horiz-adv-x="541" 
d="M94 1320h299v-1320h-299v1320zM-83 1446v190h652v-190h-652z" />
    <glyph glyph-name="imacron" unicode="&#x12b;" horiz-adv-x="434" 
d="M63 0v821h281v-821h-281zM-122 1015v190h651v-190h-651z" />
    <glyph glyph-name="Ibreve" unicode="&#x12c;" horiz-adv-x="541" 
d="M94 1320h299v-1320h-299v1320zM243 1389q-92 0 -162.5 32.5t-113 90t-51.5 133.5l176 44q4 -31 21 -65.5t49 -58.5t81 -24q48 0 80 24t49.5 58.5t20.5 65.5l176 -44q-7 -73 -49 -131t-112.5 -91.5t-164.5 -33.5z" />
    <glyph glyph-name="ibreve" unicode="&#x12d;" horiz-adv-x="434" 
d="M63 0v821h281v-821h-281zM204 919q-102 0 -182 36.5t-128.5 101.5t-58.5 151l201 50q5 -35 23.5 -73.5t54.5 -65t90 -26.5t90 26.5t55 65t23 73.5l200 -50q-9 -83 -56.5 -148.5t-127 -103t-184.5 -37.5z" />
    <glyph glyph-name="Iogonek" unicode="&#x12e;" horiz-adv-x="541" 
d="M94 1320h299v-1320h-299v1320zM237 -435q-42 0 -88.5 17t-79 57t-32.5 109q0 46 27 100.5t66 105.5t75 87l89 -41q-21 -24 -43 -61t-38 -79t-16 -81q0 -35 19.5 -50.5t46.5 -15.5q26 0 48 16t32 31l113 -85q-23 -37 -82.5 -73.5t-136.5 -36.5z" />
    <glyph glyph-name="iogonek" unicode="&#x12f;" horiz-adv-x="524" 
d="M94 0v821h304v-821h-304zM250 990q-72 0 -122 50.5t-50 120.5t50.5 121.5t121.5 51.5q47 0 86 -23.5t63 -62.5t24 -87q0 -70 -51 -120.5t-122 -50.5zM234 -435q-42 0 -88.5 17t-79 57t-32.5 109q0 46 27 100.5t66 105.5t75 87l89 -41q-21 -24 -43 -61t-38 -79t-16 -81
q0 -35 19.5 -50.5t46.5 -15.5q26 0 48 16t32 31l113 -85q-23 -37 -82.5 -73.5t-136.5 -36.5z" />
    <glyph glyph-name="Idotaccent" unicode="&#x130;" horiz-adv-x="541" 
d="M94 1320h299v-1320h-299v1320zM243 1427q-61 0 -103.5 43.5t-42.5 103.5t42.5 103.5t103.5 43.5q60 0 103 -43.5t43 -103.5q0 -61 -43 -104t-103 -43z" />
    <glyph glyph-name="dotlessi" unicode="&#x131;" horiz-adv-x="434" 
d="M63 0v821h281v-821h-281z" />
    <glyph glyph-name="Jcircumflex" unicode="&#x134;" horiz-adv-x="821" 
d="M698 406q0 -135 -50.5 -231.5t-144 -147.5t-220.5 -51q-92 0 -160 23.5t-108 51t-49 41.5l112 259q12 -17 34 -37t54 -34.5t72 -14.5q46 0 82 19t57.5 63t21.5 117v856h299v-914zM310 1397l-109 145l353 258l352 -259l-108 -144l-244 179z" />
    <glyph glyph-name="jcircumflex" unicode="&#x135;" horiz-adv-x="538" 
d="M93 -440q-90 0 -148.5 17.5t-87.5 35.5l93 226q16 -13 34 -18.5t41 -5.5q27 0 45.5 15t28 44.5t9.5 72.5v874h304v-922q0 -95 -33 -172t-103 -122t-183 -45zM514 889l-244 179l-244 -178l-109 144l353 258l353 -258z" />
    <glyph glyph-name="uni0136" unicode="&#x136;" horiz-adv-x="1158" 
d="M622 682l502 -682h-357l-406 577v-577h-299v1320h299v-540l374 540h337zM505 -585l-65 73q41 21 91 65.5t65 97.5q-16 -8 -44 -8q-48 0 -86.5 37.5t-38.5 101.5q0 62 43.5 104t102.5 42q61 0 104 -41.5t43 -123.5q0 -71 -30 -139.5t-79 -123t-106 -85.5z" />
    <glyph glyph-name="uni0137" unicode="&#x137;" horiz-adv-x="1025" 
d="M644 821h344l-387 -392l427 -429h-352l-317 330v-330h-304v1376h304v-841zM430 -577l-65 73q40 21 90 65.5t65 97.5q-16 -8 -44 -8q-48 0 -86.5 37.5t-38.5 101.5q0 62 43.5 104.5t102.5 42.5q61 0 104.5 -42t43.5 -123q0 -72 -30.5 -140t-79.5 -123t-105 -86z" />
    <glyph glyph-name="kgreenlandic" unicode="&#x138;" horiz-adv-x="1042" 
d="M598 415l411 -415h-358l-290 310v-310h-299v821h299v-310l257 310h340z" />
    <glyph glyph-name="Lacute" unicode="&#x139;" horiz-adv-x="980" 
d="M91 1320h299v-1058h479v-262h-778v1320zM363 1376l-90 122l325 281l145 -182z" />
    <glyph glyph-name="lacute" unicode="&#x13a;" horiz-adv-x="500" 
d="M388 0h-305v1376h305v-1376zM171 1495l-89 123l325 280l144 -182z" />
    <glyph glyph-name="uni013B" unicode="&#x13b;" horiz-adv-x="980" 
d="M91 1320h299v-1058h479v-262h-778v1320zM411 -585l-65 73q41 21 91 65.5t65 97.5q-16 -8 -44 -8q-48 0 -86.5 37.5t-38.5 101.5q0 62 43.5 104t102.5 42q61 0 104 -41.5t43 -123.5q0 -71 -30 -139.5t-79 -123t-106 -85.5z" />
    <glyph glyph-name="uni013C" unicode="&#x13c;" horiz-adv-x="500" 
d="M388 0h-305v1376h305v-1376zM169 -577l-65 73q40 21 90 65.5t65 97.5q-16 -8 -44 -8q-48 0 -86.5 37.5t-38.5 101.5q0 62 43.5 104.5t102.5 42.5q61 0 104.5 -42t43.5 -123q0 -72 -30.5 -140t-79.5 -123t-105 -86z" />
    <glyph glyph-name="Lcaron" unicode="&#x13d;" horiz-adv-x="980" 
d="M834 902l-52 59q33 17 72 52.5t53 78.5q-13 -6 -36 -6q-39 0 -69.5 29.5t-30.5 82.5q0 49 34.5 83t82.5 34q49 0 83.5 -33.5t34.5 -99.5q0 -57 -24 -112t-63 -99t-85 -69zM91 1320h299v-1058h479v-262h-778v1320z" />
    <glyph glyph-name="lcaron" unicode="&#x13e;" horiz-adv-x="500" 
d="M559 939l-53 59q33 17 73 53t54 80q-14 -7 -36 -7q-39 0 -70.5 30.5t-31.5 82.5q0 50 35 85t84 35t84.5 -34.5t35.5 -100.5q0 -57 -24.5 -113t-64.5 -100.5t-86 -69.5zM388 0h-305v1376h305v-1376z" />
    <glyph glyph-name="Ldot" unicode="&#x13f;" horiz-adv-x="980" 
d="M91 1320h299v-1058h479v-262h-778v1320zM695 516q-74 0 -127.5 53.5t-53.5 127.5q0 76 53.5 129.5t127.5 53.5q76 0 129 -53.5t53 -129.5q0 -74 -53 -127.5t-129 -53.5z" />
    <glyph glyph-name="ldot" unicode="&#x140;" horiz-adv-x="802" 
d="M388 0h-305v1376h305v-1376zM621 512q-74 0 -127.5 53.5t-53.5 127.5q0 76 53.5 129.5t127.5 53.5q76 0 129 -53.5t53 -129.5q0 -74 -53 -127.5t-129 -53.5z" />
    <glyph glyph-name="Lslash" unicode="&#x141;" horiz-adv-x="1021" 
d="M153 0v496l-123 -94v243l123 95v580h297v-346l167 133v-244l-167 -132v-469h455v-262h-752z" />
    <glyph glyph-name="lslash" unicode="&#x142;" horiz-adv-x="583" 
d="M136 0v497l-120 -96v244l120 95v636h281v-415l123 96v-244l-123 -95v-718h-281z" />
    <glyph glyph-name="Nacute" unicode="&#x143;" horiz-adv-x="1446" 
d="M360 1046l22 -4v-1042h-299v1320h408l535 -1040l-22 -4v1044h299v-1320h-410zM619 1376l-90 122l325 281l145 -182z" />
    <glyph glyph-name="nacute" unicode="&#x144;" horiz-adv-x="1098" 
d="M649 845q86 0 168 -35t135 -110.5t53 -198.5v-501h-305v451q0 88 -42 132.5t-110 44.5q-45 0 -84.5 -23.5t-64 -66t-24.5 -97.5v-441h-304v821h304v-121q12 33 50.5 66.5t97 56t126.5 22.5zM395 912l-89 123l325 280l144 -181z" />
    <glyph glyph-name="uni0145" unicode="&#x145;" horiz-adv-x="1446" 
d="M360 1046l22 -4v-1042h-299v1320h408l535 -1040l-22 -4v1044h299v-1320h-410zM635 -585l-65 73q41 21 91 65.5t65 97.5q-16 -8 -44 -8q-48 0 -86.5 37.5t-38.5 101.5q0 62 43.5 104t102.5 42q61 0 104 -41.5t43 -123.5q0 -71 -30 -139.5t-79 -123t-106 -85.5z" />
    <glyph glyph-name="uni0146" unicode="&#x146;" horiz-adv-x="1098" 
d="M649 845q86 0 168 -35t135 -110.5t53 -198.5v-501h-305v451q0 88 -42 132.5t-110 44.5q-45 0 -84.5 -23.5t-64 -66t-24.5 -97.5v-441h-304v821h304v-121q12 33 50.5 66.5t97 56t126.5 22.5zM457 -577l-65 73q40 21 90 65.5t65 97.5q-16 -8 -44 -8q-48 0 -86.5 37.5
t-38.5 101.5q0 62 43.5 104.5t102.5 42.5q61 0 104.5 -42t43.5 -123q0 -72 -30.5 -140t-79.5 -123t-105 -86z" />
    <glyph glyph-name="Ncaron" unicode="&#x147;" horiz-adv-x="1446" 
d="M360 1046l22 -4v-1042h-299v1320h408l535 -1040l-22 -4v1044h299v-1320h-410zM704 1409l-308 226l95 126l213 -155l213 155l94 -126z" />
    <glyph glyph-name="ncaron" unicode="&#x148;" horiz-adv-x="1098" 
d="M649 845q86 0 168 -35t135 -110.5t53 -198.5v-501h-305v451q0 88 -42 132.5t-110 44.5q-45 0 -84.5 -23.5t-64 -66t-24.5 -97.5v-441h-304v821h304v-121q12 33 50.5 66.5t97 56t126.5 22.5zM513 940l-353 258l109 145l244 -179l244 179l109 -145z" />
    <glyph glyph-name="Eng" unicode="&#x14a;" horiz-adv-x="1447" 
d="M1303 0h-310v-40q0 -62 -24.5 -95.5t-65.5 -33.5q-20 0 -43 7t-37 14l-99 -233q32 -15 94 -35t162 -20q116 0 186.5 58.5t103.5 151t33 196.5v30zM360 1046l22 -4v-1042h-299v1320h408l535 -1040l-22 -4v1044h299v-1320h-410z" />
    <glyph glyph-name="eng" unicode="&#x14b;" horiz-adv-x="1098" 
d="M1005 0h-305v-37q0 -44 -7.5 -76.5t-24 -50t-43.5 -17.5q-24 0 -45 7.5t-31 14.5l-99 -226q22 -13 72.5 -32t152.5 -19q84 0 146.5 35t103 92t60.5 123t20 130v56zM649 845q86 0 168 -35t135 -110.5t53 -198.5v-501h-305v451q0 88 -42 132.5t-110 44.5q-45 0 -84.5 -23.5
t-64 -66t-24.5 -97.5v-441h-304v821h304v-121q12 33 50.5 66.5t97 56t126.5 22.5z" />
    <glyph glyph-name="Omacron" unicode="&#x14c;" horiz-adv-x="1484" 
d="M352 661q0 -113 46.5 -204.5t129 -145.5t191.5 -54t191.5 54t129 145.5t46.5 204.5t-46.5 204t-129 145.5t-191.5 54.5t-191.5 -54.5t-129 -145.5t-46.5 -204zM41 661q0 144 51 268.5t143 217.5t216 145t268 52q146 0 269.5 -52t215 -145t142 -217.5t50.5 -268.5
q0 -145 -49 -269.5t-140 -218t-215 -145.5t-273 -52q-152 0 -276.5 52t-214.5 145.5t-138.5 218t-48.5 269.5zM411 1514v190h651v-190h-651z" />
    <glyph glyph-name="omacron" unicode="&#x14d;" horiz-adv-x="1013" 
d="M502 -24q-135 0 -239.5 55.5t-164 153t-59.5 223.5t59.5 224.5t164 155.5t239.5 57t238 -57t161 -155.5t58 -224.5t-58 -223.5t-161 -153t-238 -55.5zM502 226q52 0 90 23t59 65t21 95q0 54 -21 96t-59 66t-90 24t-90.5 -24t-60 -66t-21.5 -96q0 -53 21.5 -95t60 -65
t90.5 -23zM168 1015v190h651v-190h-651z" />
    <glyph glyph-name="Obreve" unicode="&#x14e;" horiz-adv-x="1484" 
d="M352 661q0 -113 46.5 -204.5t129 -145.5t191.5 -54t191.5 54t129 145.5t46.5 204.5t-46.5 204t-129 145.5t-191.5 54.5t-191.5 -54.5t-129 -145.5t-46.5 -204zM41 661q0 144 51 268.5t143 217.5t216 145t268 52q146 0 269.5 -52t215 -145t142 -217.5t50.5 -268.5
q0 -145 -49 -269.5t-140 -218t-215 -145.5t-273 -52q-152 0 -276.5 52t-214.5 145.5t-138.5 218t-48.5 269.5zM719 1389q-92 0 -162.5 32.5t-113 90t-51.5 133.5l176 44q4 -31 21 -65.5t49 -58.5t81 -24q48 0 80 24t49.5 58.5t20.5 65.5l176 -44q-7 -73 -49 -131
t-112.5 -91.5t-164.5 -33.5z" />
    <glyph glyph-name="obreve" unicode="&#x14f;" horiz-adv-x="1033" 
d="M502 -24q-135 0 -239.5 55.5t-164 153t-59.5 223.5t59.5 224.5t164 155.5t239.5 57t238 -57t161 -155.5t58 -224.5t-58 -223.5t-161 -153t-238 -55.5zM502 226q52 0 90 23t59 65t21 95q0 54 -21 96t-59 66t-90 24t-90.5 -24t-60 -66t-21.5 -96q0 -53 21.5 -95t60 -65
t90.5 -23zM499 919q-102 0 -182 36.5t-128.5 101.5t-58.5 151l201 50q5 -35 23.5 -73.5t54.5 -65t90 -26.5t90 26.5t55 65t23 73.5l200 -50q-9 -83 -56.5 -148.5t-127 -103t-184.5 -37.5z" />
    <glyph glyph-name="Ohungarumlaut" unicode="&#x150;" horiz-adv-x="1460" 
d="M352 661q0 -113 46.5 -204.5t129 -145.5t191.5 -54t191.5 54t129 145.5t46.5 204.5t-46.5 204t-129 145.5t-191.5 54.5t-191.5 -54.5t-129 -145.5t-46.5 -204zM41 661q0 144 51 268.5t143 217.5t216 145t268 52q146 0 269.5 -52t215 -145t142 -217.5t50.5 -268.5
q0 -145 -49 -269.5t-140 -218t-215 -145.5t-273 -52q-152 0 -276.5 52t-214.5 145.5t-138.5 218t-48.5 269.5zM855 1439l-89 123l276 312l131 -165zM518 1439l-90 123l277 312l131 -165z" />
    <glyph glyph-name="ohungarumlaut" unicode="&#x151;" horiz-adv-x="1013" 
d="M502 -24q-135 0 -239.5 55.5t-164 153t-59.5 223.5t59.5 224.5t164 155.5t239.5 57t238 -57t161 -155.5t58 -224.5t-58 -223.5t-161 -153t-238 -55.5zM502 226q52 0 90 23t59 65t21 95q0 54 -21 96t-59 66t-90 24t-90.5 -24t-60 -66t-21.5 -96q0 -53 21.5 -95t60 -65
t90.5 -23zM635 940l-89 123l276 312l131 -165zM298 940l-90 123l277 312l131 -165z" />
    <glyph glyph-name="OE" unicode="&#x152;" horiz-adv-x="1660" 
d="M694 0q-136 0 -256.5 48.5t-212.5 136.5t-144 209t-52 266q0 144 52 265t144 209.5t212.5 137t256.5 48.5h835v-262h-456v-266h437v-261h-437v-269h456v-262h-835zM727 267h48v787h-48q-112 0 -197 -53t-132 -141.5t-47 -198.5q0 -111 47.5 -200t132 -141.5t196.5 -52.5z
" />
    <glyph glyph-name="oe" unicode="&#x153;" horiz-adv-x="1654" 
d="M502 -24q-135 0 -239.5 55.5t-164 153t-59.5 223.5t59.5 224.5t164 155.5t239.5 57t238 -57t161 -155.5t58 -224.5t-58 -223.5t-161 -153t-238 -55.5zM502 226q52 0 90 23t59 65t21 95q0 54 -21 96t-59 66t-90 24t-90.5 -24t-60 -66t-21.5 -96q0 -53 21.5 -95t60 -65
t90.5 -23zM982 346q3 -44 28 -78t69.5 -53.5t105.5 -19.5q58 0 104.5 12t81 30t53.5 37l118 -188q-25 -27 -70.5 -52.5t-119.5 -41.5t-187 -16q-136 0 -242 51t-167 150t-61 242q0 120 52.5 216.5t152.5 153t241 56.5q134 0 232.5 -49t152 -145.5t53.5 -240.5q0 -8 -0.5 -32
t-2.5 -32h-594zM1293 505q-1 32 -17 63.5t-48 52t-82 20.5t-84.5 -19.5t-52.5 -50.5t-20 -66h304z" />
    <glyph glyph-name="Racute" unicode="&#x154;" horiz-adv-x="1183" 
d="M77 1320h538q115 0 205 -48t142.5 -138.5t52.5 -215.5t-44.5 -204.5t-106.5 -119t-115 -47.5l321 -547h-336l-286 524h-72v-524h-299v1320zM376 731h132q80 0 140 39t60 138t-59 137.5t-139 38.5h-134v-353zM469 1376l-90 122l325 281l145 -182z" />
    <glyph glyph-name="racute" unicode="&#x155;" horiz-adv-x="812" 
d="M362 0h-304v821h304v-127h-5q8 23 39 58.5t87 64t137 28.5q57 0 105 -17.5t70 -33.5l-118 -247q-14 17 -49.5 35.5t-88.5 18.5q-61 0 -100.5 -31t-58 -75t-18.5 -83v-412zM319 940l-89 123l325 280l144 -182z" />
    <glyph glyph-name="uni0156" unicode="&#x156;" horiz-adv-x="1183" 
d="M77 1320h538q115 0 205 -48t142.5 -138.5t52.5 -215.5t-44.5 -204.5t-106.5 -119t-115 -47.5l321 -547h-336l-286 524h-72v-524h-299v1320zM376 731h132q80 0 140 39t60 138t-59 137.5t-139 38.5h-134v-353zM484 -585l-65 73q41 21 91 65.5t65 97.5q-16 -8 -44 -8
q-48 0 -86.5 37.5t-38.5 101.5q0 62 43.5 104t102.5 42q61 0 104 -41.5t43 -123.5q0 -71 -30 -139.5t-79 -123t-106 -85.5z" />
    <glyph glyph-name="uni0157" unicode="&#x157;" horiz-adv-x="793" 
d="M362 0h-304v821h304v-127h-5q8 23 39 58.5t87 64t137 28.5q57 0 105 -17.5t70 -33.5l-118 -247q-14 17 -49.5 35.5t-88.5 18.5q-61 0 -100.5 -31t-58 -75t-18.5 -83v-412zM315 -577l-65 73q40 21 90 65.5t65 97.5q-16 -8 -44 -8q-48 0 -86.5 37.5t-38.5 101.5
q0 62 43.5 104.5t102.5 42.5q61 0 104.5 -42t43.5 -123q0 -72 -30.5 -140t-79.5 -123t-105 -86z" />
    <glyph glyph-name="Rcaron" unicode="&#x158;" horiz-adv-x="1183" 
d="M77 1320h538q115 0 205 -48t142.5 -138.5t52.5 -215.5t-44.5 -204.5t-106.5 -119t-115 -47.5l321 -547h-336l-286 524h-72v-524h-299v1320zM376 731h132q80 0 140 39t60 138t-59 137.5t-139 38.5h-134v-353zM554 1409l-308 226l95 126l213 -155l213 155l94 -126z" />
    <glyph glyph-name="rcaron" unicode="&#x159;" horiz-adv-x="812" 
d="M362 0h-304v821h304v-127h-5q8 23 39 58.5t87 64t137 28.5q57 0 105 -17.5t70 -33.5l-118 -247q-14 17 -49.5 35.5t-88.5 18.5q-61 0 -100.5 -31t-58 -75t-18.5 -83v-412zM385 940l-353 258l109 145l244 -179l244 179l109 -145z" />
    <glyph glyph-name="Sacute" unicode="&#x15a;" horiz-adv-x="1119" 
d="M564 1344q123 0 215 -27t148 -57t68 -40l-144 -241q-16 12 -54.5 35t-91 41t-109.5 18q-77 0 -124.5 -27.5t-47.5 -81.5q0 -37 25.5 -66.5t78 -56t133.5 -57.5q74 -27 139 -64t114.5 -87.5t78.5 -116.5t29 -150q0 -100 -41 -173.5t-111.5 -121.5t-160 -71.5t-185.5 -23.5
q-136 0 -243.5 31t-173.5 67t-79 48l149 251q12 -9 46.5 -29t84.5 -41.5t106.5 -36.5t111.5 -15q92 0 138 35.5t46 93.5q0 43 -29 77t-87 64.5t-145 64.5q-87 35 -162.5 85t-122.5 125t-47 186t62.5 192.5t165 125.5t219.5 44zM444 1376l-90 122l325 281l145 -182z" />
    <glyph glyph-name="sacute" unicode="&#x15b;" horiz-adv-x="860" 
d="M452 845q81 0 148 -13.5t112.5 -30.5t58.5 -28l-99 -179q-19 14 -70.5 36t-114.5 22q-48 0 -81 -14.5t-33 -45.5t36.5 -49.5t105.5 -32.5q60 -12 122 -38t103.5 -76.5t41.5 -134.5q0 -86 -37 -142t-98 -87t-132 -43.5t-138 -12.5q-94 0 -163.5 17t-112.5 39t-60 35
l98 200q26 -22 85 -49.5t125 -27.5q64 0 99 19t35 50q0 25 -17 40t-48 26t-75 20q-40 8 -85 25t-85 46.5t-65 74.5t-25 109q0 82 53 136t137 81.5t179 27.5zM305 940l-89 123l325 280l144 -182z" />
    <glyph glyph-name="Scircumflex" unicode="&#x15c;" horiz-adv-x="1119" 
d="M564 1344q123 0 215 -27t148 -57t68 -40l-144 -241q-16 12 -54.5 35t-91 41t-109.5 18q-77 0 -124.5 -27.5t-47.5 -81.5q0 -37 25.5 -66.5t78 -56t133.5 -57.5q74 -27 139 -64t114.5 -87.5t78.5 -116.5t29 -150q0 -100 -41 -173.5t-111.5 -121.5t-160 -71.5t-185.5 -23.5
q-136 0 -243.5 31t-173.5 67t-79 48l149 251q12 -9 46.5 -29t84.5 -41.5t106.5 -36.5t111.5 -15q92 0 138 35.5t46 93.5q0 43 -29 77t-87 64.5t-145 64.5q-87 35 -162.5 85t-122.5 125t-47 186t62.5 192.5t165 125.5t219.5 44zM284 1397l-109 145l353 258l352 -259
l-108 -144l-244 179z" />
    <glyph glyph-name="scircumflex" unicode="&#x15d;" horiz-adv-x="860" 
d="M452 845q81 0 148 -13.5t112.5 -30.5t58.5 -28l-99 -179q-19 14 -70.5 36t-114.5 22q-48 0 -81 -14.5t-33 -45.5t36.5 -49.5t105.5 -32.5q60 -12 122 -38t103.5 -76.5t41.5 -134.5q0 -86 -37 -142t-98 -87t-132 -43.5t-138 -12.5q-94 0 -163.5 17t-112.5 39t-60 35
l98 200q26 -22 85 -49.5t125 -27.5q64 0 99 19t35 50q0 25 -17 40t-48 26t-75 20q-40 8 -85 25t-85 46.5t-65 74.5t-25 109q0 82 53 136t137 81.5t179 27.5zM683 889l-244 179l-244 -178l-109 144l353 258l353 -258z" />
    <glyph glyph-name="Scedilla" unicode="&#x15e;" horiz-adv-x="1119" 
d="M564 1344q123 0 215 -27t148 -57t68 -40l-144 -241q-16 12 -54.5 35t-91 41t-109.5 18q-77 0 -124.5 -27.5t-47.5 -81.5q0 -37 25.5 -66.5t78 -56t133.5 -57.5q74 -27 139 -64t114.5 -87.5t78.5 -116.5t29 -150q0 -100 -41 -173.5t-111.5 -121.5t-160 -71.5t-185.5 -23.5
q-136 0 -243.5 31t-173.5 67t-79 48l149 251q12 -9 46.5 -29t84.5 -41.5t106.5 -36.5t111.5 -15q92 0 138 35.5t46 93.5q0 43 -29 77t-87 64.5t-145 64.5q-87 35 -162.5 85t-122.5 125t-47 186t62.5 192.5t165 125.5t219.5 44zM537 -433q-95 0 -160.5 29t-90.5 56l100 113
q18 -20 52.5 -41t73.5 -21q36 0 57.5 17t21.5 45q0 34 -27 50t-64 16q-31 0 -52.5 -4.5t-28.5 -9.5l-15 12l77 213l106 -36l-36 -90q56 4 106 -13t81.5 -52t31.5 -87q0 -62 -32 -106t-85.5 -67.5t-115.5 -23.5z" />
    <glyph glyph-name="scedilla" unicode="&#x15f;" horiz-adv-x="860" 
d="M452 845q81 0 148 -13.5t112.5 -30.5t58.5 -28l-99 -179q-19 14 -70.5 36t-114.5 22q-48 0 -81 -14.5t-33 -45.5t36.5 -49.5t105.5 -32.5q60 -12 122 -38t103.5 -76.5t41.5 -134.5q0 -86 -37 -142t-98 -87t-132 -43.5t-138 -12.5q-94 0 -163.5 17t-112.5 39t-60 35
l98 200q26 -22 85 -49.5t125 -27.5q64 0 99 19t35 50q0 25 -17 40t-48 26t-75 20q-40 8 -85 25t-85 46.5t-65 74.5t-25 109q0 82 53 136t137 81.5t179 27.5zM411 -433q-95 0 -160.5 29t-90.5 56l100 113q18 -20 52.5 -41t73.5 -21q36 0 57.5 17t21.5 45q0 34 -27 50t-64 16
q-31 0 -52.5 -4.5t-28.5 -9.5l-15 12l77 213l106 -36l-36 -90q56 4 106 -13t81.5 -52t31.5 -87q0 -62 -32 -106t-85.5 -67.5t-115.5 -23.5z" />
    <glyph glyph-name="Scaron" unicode="&#x160;" horiz-adv-x="1119" 
d="M564 1344q123 0 215 -27t148 -57t68 -40l-144 -241q-16 12 -54.5 35t-91 41t-109.5 18q-77 0 -124.5 -27.5t-47.5 -81.5q0 -37 25.5 -66.5t78 -56t133.5 -57.5q74 -27 139 -64t114.5 -87.5t78.5 -116.5t29 -150q0 -100 -41 -173.5t-111.5 -121.5t-160 -71.5t-185.5 -23.5
q-136 0 -243.5 31t-173.5 67t-79 48l149 251q12 -9 46.5 -29t84.5 -41.5t106.5 -36.5t111.5 -15q92 0 138 35.5t46 93.5q0 43 -29 77t-87 64.5t-145 64.5q-87 35 -162.5 85t-122.5 125t-47 186t62.5 192.5t165 125.5t219.5 44zM529 1409l-308 226l95 126l213 -155l213 155
l94 -126z" />
    <glyph glyph-name="scaron" unicode="&#x161;" horiz-adv-x="860" 
d="M452 845q81 0 148 -13.5t112.5 -30.5t58.5 -28l-99 -179q-19 14 -70.5 36t-114.5 22q-48 0 -81 -14.5t-33 -45.5t36.5 -49.5t105.5 -32.5q60 -12 122 -38t103.5 -76.5t41.5 -134.5q0 -86 -37 -142t-98 -87t-132 -43.5t-138 -12.5q-94 0 -163.5 17t-112.5 39t-60 35
l98 200q26 -22 85 -49.5t125 -27.5q64 0 99 19t35 50q0 25 -17 40t-48 26t-75 20q-40 8 -85 25t-85 46.5t-65 74.5t-25 109q0 82 53 136t137 81.5t179 27.5zM455 940l-353 258l109 145l244 -179l244 179l109 -145z" />
    <glyph glyph-name="uni0162" unicode="&#x162;" horiz-adv-x="1020" 
d="M329 1058h-315v262h928v-262h-314v-1058h-299v1058zM515 -433q-95 0 -160.5 29t-90.5 56l100 113q18 -20 52.5 -41t73.5 -21q36 0 57.5 17t21.5 45q0 34 -27 50t-64 16q-31 0 -52.5 -4.5t-28.5 -9.5l-15 12l77 213l106 -36l-36 -90q56 4 106 -13t81.5 -52t31.5 -87
q0 -62 -32 -106t-85.5 -67.5t-115.5 -23.5z" />
    <glyph glyph-name="uni0163" unicode="&#x163;" horiz-adv-x="727" 
d="M14 821h140v337h301v-337h184v-250h-184v-229q0 -51 15 -82.5t55 -31.5q27 0 46 12t23 16l104 -216q-7 -6 -43.5 -22t-92.5 -29t-125 -13q-123 0 -203 69.5t-80 214.5v311h-140v250zM450 -441q-95 0 -160.5 29t-90.5 56l100 113q18 -20 52.5 -41t73.5 -21q36 0 57.5 17
t21.5 45q0 34 -27 50t-64 16q-31 0 -52.5 -4.5t-28.5 -9.5l-15 12l77 213l106 -36l-36 -90q56 4 106 -13t81.5 -52t31.5 -87q0 -62 -32 -106t-85.5 -67.5t-115.5 -23.5z" />
    <glyph glyph-name="Tcaron" unicode="&#x164;" horiz-adv-x="1020" 
d="M329 1058h-315v262h928v-262h-314v-1058h-299v1058zM479 1409l-308 226l95 126l213 -155l213 155l94 -126z" />
    <glyph glyph-name="tcaron" unicode="&#x165;" horiz-adv-x="713" 
d="M437 -24q-123 0 -203 69.5t-80 214.5v311h-140v250h140v337h301v-337h184v-250h-184v-229q0 -51 15 -82.5t55 -31.5q27 0 46 12t23 16l104 -216q-7 -6 -43.5 -22t-92.5 -29t-125 -13zM659 898l-48 54q30 16 67 49t49 73q-10 -6 -33 -6q-36 0 -64 27.5t-28 74.5
q0 45 31.5 77t75.5 32q45 0 77 -31.5t32 -91.5q0 -52 -22 -102.5t-58.5 -91.5t-78.5 -64z" />
    <glyph glyph-name="Tbar" unicode="&#x166;" horiz-adv-x="1020" 
d="M19 789h914v-217h-914v217zM329 1058h-315v262h928v-262h-314v-1058h-299v1058z" />
    <glyph glyph-name="tbar" unicode="&#x167;" horiz-adv-x="713" 
d="M15 493h623v-113h-623v113zM14 821h140v337h301v-337h184v-250h-184v-229q0 -51 15 -82.5t55 -31.5q27 0 46 12t23 16l104 -216q-7 -6 -43.5 -22t-92.5 -29t-125 -13q-123 0 -203 69.5t-80 214.5v311h-140v250z" />
    <glyph glyph-name="Utilde" unicode="&#x168;" horiz-adv-x="1273" 
d="M846 1320h299v-811q0 -163 -64 -282.5t-183 -185t-284 -65.5q-166 0 -286 65.5t-183.5 185t-63.5 282.5v811h298v-795q0 -90 28.5 -152t81.5 -93.5t125 -31.5q71 0 123 31.5t80.5 93.5t28.5 152v795zM244 1409q9 59 36.5 122t72.5 107t109 44q63 0 111 -18.5t89.5 -37
t86.5 -18.5q29 0 47.5 25.5t24.5 48.5h162q-10 -58 -37 -121.5t-72 -107.5t-109 -44q-63 0 -111 18.5t-90 37t-87 18.5q-28 0 -46.5 -25t-25.5 -49h-161z" />
    <glyph glyph-name="utilde" unicode="&#x169;" horiz-adv-x="1096" 
d="M372 441q0 -98 37 -156.5t124 -58.5q89 0 125.5 58.5t36.5 156.5v380h300v-412q0 -132 -54.5 -229.5t-157.5 -150.5t-250 -53q-146 0 -249 53t-157 150.5t-54 229.5v412h299v-380zM179 980q10 59 37 122t72.5 107t108.5 44t111 -18.5t90 -37t86 -18.5q29 0 47.5 25.5
t25.5 48.5h161q-9 -59 -36.5 -122t-72.5 -107t-109 -44q-62 0 -110 18.5t-90.5 36.5t-86.5 18q-28 0 -46.5 -25t-25.5 -48h-162z" />
    <glyph glyph-name="Umacron" unicode="&#x16a;" horiz-adv-x="1273" 
d="M846 1320h299v-811q0 -163 -64 -282.5t-183 -185t-284 -65.5q-166 0 -286 65.5t-183.5 185t-63.5 282.5v811h298v-795q0 -90 28.5 -152t81.5 -93.5t125 -31.5q71 0 123 31.5t80.5 93.5t28.5 152v795zM287 1446v190h652v-190h-652z" />
    <glyph glyph-name="umacron" unicode="&#x16b;" horiz-adv-x="1096" 
d="M372 441q0 -98 37 -156.5t124 -58.5q89 0 125.5 58.5t36.5 156.5v380h300v-412q0 -132 -54.5 -229.5t-157.5 -150.5t-250 -53q-146 0 -249 53t-157 150.5t-54 229.5v412h299v-380zM182 1015v190h651v-190h-651z" />
    <glyph glyph-name="Ubreve" unicode="&#x16c;" horiz-adv-x="1273" 
d="M846 1320h299v-811q0 -163 -64 -282.5t-183 -185t-284 -65.5q-166 0 -286 65.5t-183.5 185t-63.5 282.5v811h298v-795q0 -90 28.5 -152t81.5 -93.5t125 -31.5q71 0 123 31.5t80.5 93.5t28.5 152v795zM614 1389q-92 0 -162.5 32.5t-113 90t-51.5 133.5l176 44
q4 -31 21 -65.5t49 -58.5t81 -24q48 0 80 24t49.5 58.5t20.5 65.5l176 -44q-7 -73 -49 -131t-112.5 -91.5t-164.5 -33.5z" />
    <glyph glyph-name="ubreve" unicode="&#x16d;" horiz-adv-x="1096" 
d="M372 441q0 -98 37 -156.5t124 -58.5q89 0 125.5 58.5t36.5 156.5v380h300v-412q0 -132 -54.5 -229.5t-157.5 -150.5t-250 -53q-146 0 -249 53t-157 150.5t-54 229.5v412h299v-380zM533 919q-102 0 -182 36.5t-128.5 101.5t-58.5 151l201 50q5 -35 23.5 -73.5t54.5 -65
t90 -26.5t90 26.5t55 65t23 73.5l200 -50q-9 -83 -56.5 -148.5t-127 -103t-184.5 -37.5z" />
    <glyph glyph-name="Uring" unicode="&#x16e;" horiz-adv-x="1273" 
d="M846 1320h299v-811q0 -163 -64 -282.5t-183 -185t-284 -65.5q-166 0 -286 65.5t-183.5 185t-63.5 282.5v811h298v-795q0 -90 28.5 -152t81.5 -93.5t125 -31.5q71 0 123 31.5t80.5 93.5t28.5 152v795zM614 1359q-102 0 -164.5 56.5t-62.5 145.5q0 87 66 143.5t161 56.5
q96 0 161 -56.5t65 -143.5q0 -89 -63.5 -145.5t-162.5 -56.5zM614 1482q31 0 52 21.5t21 57.5q0 35 -22 55t-51 20q-31 0 -53 -20t-22 -55q0 -37 21.5 -58t53.5 -21z" />
    <glyph glyph-name="uring" unicode="&#x16f;" horiz-adv-x="1096" 
d="M372 441q0 -98 37 -156.5t124 -58.5q89 0 125.5 58.5t36.5 156.5v380h300v-412q0 -132 -54.5 -229.5t-157.5 -150.5t-250 -53q-146 0 -249 53t-157 150.5t-54 229.5v412h299v-380zM533 919q-115 0 -186 63.5t-71 163.5q0 66 34.5 117.5t92.5 80.5t130 29t130 -29
t92 -80.5t34 -117.5q0 -100 -72 -163.5t-184 -63.5zM533 1060q34 0 57.5 23.5t23.5 62.5t-24 61.5t-57 22.5q-34 0 -58.5 -22.5t-24.5 -61.5q0 -40 24 -63t59 -23z" />
    <glyph glyph-name="Uhungarumlaut" unicode="&#x170;" horiz-adv-x="1273" 
d="M846 1320h299v-811q0 -163 -64 -282.5t-183 -185t-284 -65.5q-166 0 -286 65.5t-183.5 185t-63.5 282.5v811h298v-795q0 -90 28.5 -152t81.5 -93.5t125 -31.5q71 0 123 31.5t80.5 93.5t28.5 152v795zM320 1384l-90 89l277 241l131 -122zM678 1384l-88 89l276 241
l131 -122z" />
    <glyph glyph-name="uhungarumlaut" unicode="&#x171;" horiz-adv-x="1096" 
d="M372 441q0 -98 37 -156.5t124 -58.5q89 0 125.5 58.5t36.5 156.5v380h300v-412q0 -132 -54.5 -229.5t-157.5 -150.5t-250 -53q-146 0 -249 53t-157 150.5t-54 229.5v412h299v-380zM669 940l-89 123l276 312l131 -165zM332 940l-90 123l277 312l131 -165z" />
    <glyph glyph-name="Uogonek" unicode="&#x172;" horiz-adv-x="1262" 
d="M846 1320h299v-811q0 -163 -64 -282.5t-183 -185t-284 -65.5q-166 0 -286 65.5t-183.5 185t-63.5 282.5v811h298v-795q0 -90 28.5 -152t81.5 -93.5t125 -31.5q71 0 123 31.5t80.5 93.5t28.5 152v795zM639 -435q-42 0 -88.5 17t-79 57t-32.5 109q0 46 27 100.5t66 105.5
t75 87l89 -41q-21 -24 -43 -61t-38 -79t-16 -81q0 -35 19.5 -50.5t46.5 -15.5q26 0 48 16t32 31l113 -85q-23 -37 -82.5 -73.5t-136.5 -36.5z" />
    <glyph glyph-name="uogonek" unicode="&#x173;" horiz-adv-x="1096" 
d="M372 441q0 -98 37 -156.5t124 -58.5q89 0 125.5 58.5t36.5 156.5v380h300v-412q0 -132 -54.5 -229.5t-157.5 -150.5t-250 -53q-146 0 -249 53t-157 150.5t-54 229.5v412h299v-380zM542 -435q-42 0 -88.5 17t-79 57t-32.5 109q0 46 27 100.5t66 105.5t75 87l89 -41
q-21 -24 -43 -61t-38 -79t-16 -81q0 -35 19.5 -50.5t46.5 -15.5q26 0 48 16t32 31l113 -85q-23 -37 -82.5 -73.5t-136.5 -36.5z" />
    <glyph glyph-name="Wcircumflex" unicode="&#x174;" horiz-adv-x="1830" 
d="M1435 0h-359l-224 921h54l-224 -921h-361l-301 1320h343l159 -926h-4l248 926h225l249 -926h-4l159 926h343zM646 1397l-109 145l353 258l352 -259l-108 -144l-244 179z" />
    <glyph glyph-name="wcircumflex" unicode="&#x175;" horiz-adv-x="1460" 
d="M716 476l-191 -476h-279l-272 821h323l131 -496l189 480h200l186 -480l132 496h323l-271 -821h-278zM961 889l-244 179l-244 -178l-109 144l353 258l353 -258z" />
    <glyph glyph-name="Ycircumflex" unicode="&#x176;" horiz-adv-x="1201" 
d="M420 475l-455 845h363l241 -503l242 503h361l-453 -845v-475h-299v475zM325 1397l-109 145l353 258l352 -259l-108 -144l-244 179z" />
    <glyph glyph-name="ycircumflex" unicode="&#x177;" horiz-adv-x="1029" 
d="M498 263l222 558h298l-564 -1237h-304l190 416l-343 821h303zM745 889l-244 179l-244 -178l-109 144l353 258l353 -258z" />
    <glyph glyph-name="Ydieresis" unicode="&#x178;" horiz-adv-x="1201" 
d="M420 475l-455 845h363l241 -503l242 503h361l-453 -845v-475h-299v475zM770 1400q-61 0 -103.5 43.5t-42.5 103.5t42.5 103.5t103.5 43.5t103.5 -43.5t42.5 -103.5q0 -61 -42.5 -104t-103.5 -43zM368 1400q-61 0 -103.5 43.5t-42.5 103.5t42.5 103.5t103.5 43.5
q60 0 103 -43.5t43 -103.5q0 -61 -43 -104t-103 -43z" />
    <glyph glyph-name="Zacute" unicode="&#x179;" horiz-adv-x="1260" 
d="M103 1320h1084l-655 -1058h612v-262h-1134l654 1058h-561v262zM515 1376l-90 122l325 281l145 -182z" />
    <glyph glyph-name="zacute" unicode="&#x17a;" horiz-adv-x="899" 
d="M62 821h813l-410 -609h378v-212h-847l409 610h-343v211zM376 940l-89 123l325 280l144 -182z" />
    <glyph glyph-name="Zdotaccent" unicode="&#x17b;" horiz-adv-x="1260" 
d="M103 1320h1084l-655 -1058h612v-262h-1134l654 1058h-561v262zM599 1427q-61 0 -103.5 43.5t-42.5 103.5t42.5 103.5t103.5 43.5q60 0 103 -43.5t43 -103.5q0 -61 -43 -104t-103 -43z" />
    <glyph glyph-name="zdotaccent" unicode="&#x17c;" horiz-adv-x="899" 
d="M62 821h813l-410 -609h378v-212h-847l409 610h-343v211zM438 972q-61 0 -103.5 43t-42.5 103t42.5 103.5t103.5 43.5q60 0 103 -43t43 -104t-43 -103.5t-103 -42.5z" />
    <glyph glyph-name="Zcaron" unicode="&#x17d;" horiz-adv-x="1260" 
d="M103 1320h1084l-655 -1058h612v-262h-1134l654 1058h-561v262zM600 1409l-308 226l95 126l213 -155l213 155l94 -126z" />
    <glyph glyph-name="zcaron" unicode="&#x17e;" horiz-adv-x="899" 
d="M62 821h813l-410 -609h378v-212h-847l409 610h-343v211zM449 940l-353 258l109 145l244 -179l244 179l109 -145z" />
    <glyph glyph-name="uni018F" unicode="&#x18f;" horiz-adv-x="1384" 
d="M657 -22q-142 0 -256 51t-194.5 143.5t-123 218.5t-42.5 275v25.5t1 39.5t2 24h950q0 94 -41.5 166t-117.5 113t-179 41q-72 0 -127 -17.5t-95.5 -43.5t-67.5 -54t-43 -49l-225 196q30 40 106 96t190.5 98.5t260.5 42.5q179 0 324 -77t231 -227.5t86 -371.5
q0 -211 -79 -366.5t-222 -239.5t-338 -84zM660 226q83 0 144.5 28t102 75t60.5 104.5t20 117.5h-645q0 -57 19 -114.5t58.5 -105.5t99.5 -76.5t141 -28.5z" />
    <glyph glyph-name="florin" unicode="&#x192;" horiz-adv-x="706" 
d="M-38 -433q-98 0 -155.5 22t-62.5 27l137 234q4 -3 22 -14t49 -11q23 0 46 10.5t41 39t26 81.5l85 615h-135l35 250h136l30 217q17 120 79 200t148 121t174 41q99 0 156.5 -21.5t62.5 -27.5l-138 -234q-3 3 -20.5 14.5t-50.5 11.5q-21 0 -44.5 -11t-41.5 -39t-25 -82
l-27 -190h180l-35 -250h-180l-90 -642q-16 -120 -78.5 -200.5t-149 -121t-174.5 -40.5z" />
    <glyph glyph-name="Ohorn" unicode="&#x1a0;" horiz-adv-x="1484" 
d="M352 661q0 -113 46.5 -204.5t129 -145.5t191.5 -54t191.5 54t129 145.5t46.5 204.5t-46.5 204t-129 145.5t-191.5 54.5t-191.5 -54.5t-129 -145.5t-46.5 -204zM41 661q0 144 51 268.5t143 217.5t216 145t268 52q146 0 269.5 -52t215 -145t142 -217.5t50.5 -268.5
q0 -145 -49 -269.5t-140 -218t-215 -145.5t-273 -52q-152 0 -276.5 52t-214.5 145.5t-138.5 218t-48.5 269.5zM1228 1023q-34 0 -59 8t-48 21v147q15 -13 35.5 -21t50.5 -8q50 0 77 38.5t27 86.5q0 43 -6 70t-18 55h192q8 -14 20.5 -49.5t12.5 -96.5q0 -73 -40 -130
t-104.5 -89t-139.5 -32z" />
    <glyph glyph-name="ohorn" unicode="&#x1a1;" horiz-adv-x="1033" 
d="M502 -24q-135 0 -239.5 55.5t-164 153t-59.5 223.5t59.5 224.5t164 155.5t239.5 57t238 -57t161 -155.5t58 -224.5t-58 -223.5t-161 -153t-238 -55.5zM502 226q52 0 90 23t59 65t21 95q0 54 -21 96t-59 66t-90 24t-90.5 -24t-60 -66t-21.5 -96q0 -53 21.5 -95t60 -65
t90.5 -23zM835 612q-34 0 -59 7.5t-48 20.5v147q15 -13 35.5 -21t50.5 -8q50 0 77 38.5t27 86.5q0 43 -6 70t-18 55h192q8 -13 20.5 -49t12.5 -96q0 -74 -40 -130.5t-104.5 -88.5t-139.5 -32z" />
    <glyph glyph-name="Uhorn" unicode="&#x1af;" horiz-adv-x="1533" 
d="M846 1320h299v-811q0 -163 -64 -282.5t-183 -185t-284 -65.5q-166 0 -286 65.5t-183.5 185t-63.5 282.5v811h298v-795q0 -90 28.5 -152t81.5 -93.5t125 -31.5q71 0 123 31.5t80.5 93.5t28.5 152v795zM1252 1145q-34 0 -59 7.5t-48 20.5v147q15 -13 35.5 -21t50.5 -8
q50 0 77 38.5t27 86.5q0 43 -6 70t-18 55h192q8 -13 20.5 -49t12.5 -96q0 -74 -40 -130.5t-104.5 -88.5t-139.5 -32z" />
    <glyph glyph-name="uhorn" unicode="&#x1b0;" horiz-adv-x="1383" 
d="M372 441q0 -98 37 -156.5t124 -58.5q89 0 125.5 58.5t36.5 156.5v380h300v-412q0 -132 -54.5 -229.5t-157.5 -150.5t-250 -53q-146 0 -249 53t-157 150.5t-54 229.5v412h299v-380zM1102 646q-34 0 -59 7.5t-48 20.5v147q15 -13 35.5 -21t50.5 -8q50 0 77 38.5t27 86.5
q0 43 -6 70t-18 55h192q8 -13 20.5 -49t12.5 -96q0 -74 -40 -130.5t-104.5 -88.5t-139.5 -32z" />
    <glyph glyph-name="uni01C4" unicode="&#x1c4;" horiz-adv-x="2461" 
d="M86 1320h397q211 0 349.5 -84.5t207.5 -233.5t69 -341q0 -193 -69 -342t-207.5 -234t-349.5 -85h-397v1320zM384 1055v-790h72q113 0 187 51.5t111.5 141t37.5 201.5q0 113 -36.5 202.5t-111.5 141.5t-188 52h-72zM1304 1320h1084l-655 -1058h612v-262h-1134l654 1058
h-561v262zM1817 1439l-353 258l109 145l244 -179l244 179l109 -145z" />
    <glyph glyph-name="uni01C5" unicode="&#x1c5;" horiz-adv-x="2099" 
d="M86 1320h397q211 0 349.5 -84.5t207.5 -233.5t69 -341q0 -193 -69 -342t-207.5 -234t-349.5 -85h-397v1320zM384 1055v-790h72q113 0 187 51.5t111.5 141t37.5 201.5q0 113 -36.5 202.5t-111.5 141.5t-188 52h-72zM1263 821h813l-410 -609h378v-212h-847l409 610h-343
v211zM1654 940l-353 258l109 145l244 -179l244 179l109 -145z" />
    <glyph glyph-name="uni01C6" unicode="&#x1c6;" horiz-adv-x="2016" 
d="M436 -24q-119 0 -207 58.5t-136.5 157t-48.5 218.5t48.5 218.5t136.5 157.5t207 59q79 0 140 -24.5t99 -58t46 -61.5v675h304v-1376h-301v133q-19 -37 -62 -73.5t-101 -60t-125 -23.5zM529 215q55 0 98.5 25t68.5 69.5t25 100.5t-25 100.5t-68.5 70t-98.5 25.5
q-53 0 -95.5 -25.5t-67 -70t-24.5 -100.5t24.5 -100.5t67 -69.5t95.5 -25zM1179 821h813l-410 -609h378v-212h-847l409 610h-343v211zM1570 940l-353 258l109 145l244 -179l244 179l109 -145z" />
    <glyph glyph-name="uni01C7" unicode="&#x1c7;" horiz-adv-x="1801" 
d="M91 1320h299v-1058h479v-262h-778v1320zM1678 406q0 -135 -50.5 -231.5t-144 -147.5t-220.5 -51q-92 0 -160 23.5t-108 51t-49 41.5l112 259q12 -17 34 -37t54 -34.5t72 -14.5q46 0 82 19t57.5 63t21.5 117v856h299v-914z" />
    <glyph glyph-name="uni01C8" unicode="&#x1c8;" horiz-adv-x="1518" 
d="M91 1320h299v-1058h479v-262h-778v1320zM1073 -440q-90 0 -148.5 17.5t-87.5 35.5l93 226q16 -13 34 -18.5t41 -5.5q27 0 45.5 15t28 44.5t9.5 72.5v874h304v-922q0 -95 -33 -172t-103 -122t-183 -45zM1242 990q-70 0 -120.5 50.5t-50.5 120.5q0 47 23 86t62 63t86 24
q48 0 87 -23.5t62.5 -62.5t23.5 -87q0 -70 -50.5 -120.5t-122.5 -50.5z" />
    <glyph glyph-name="uni01C9" unicode="&#x1c9;" horiz-adv-x="1037" 
d="M388 0h-305v1376h305v-1376zM593 -440q-90 0 -148.5 17.5t-87.5 35.5l93 226q16 -13 34 -18.5t41 -5.5q27 0 45.5 15t28 44.5t9.5 72.5v874h304v-922q0 -95 -33 -172t-103 -122t-183 -45zM762 990q-70 0 -120.5 50.5t-50.5 120.5q0 47 23 86t62 63t86 24q48 0 87 -23.5
t62.5 -62.5t23.5 -87q0 -70 -50.5 -120.5t-122.5 -50.5z" />
    <glyph glyph-name="uni01CA" unicode="&#x1ca;" horiz-adv-x="2266" 
d="M360 1046l22 -4v-1042h-299v1320h408l535 -1040l-22 -4v1044h299v-1320h-410zM2144 406q0 -135 -50.5 -231.5t-144 -147.5t-220.5 -51q-92 0 -160 23.5t-108 51t-49 41.5l112 259q12 -17 34 -37t54 -34.5t72 -14.5q46 0 82 19t57.5 63t21.5 117v856h299v-914z" />
    <glyph glyph-name="uni01CB" unicode="&#x1cb;" horiz-adv-x="1983" 
d="M360 1046l22 -4v-1042h-299v1320h408l535 -1040l-22 -4v1044h299v-1320h-410zM1539 -440q-90 0 -148.5 17.5t-87.5 35.5l93 226q16 -13 34 -18.5t41 -5.5q27 0 45.5 15t28 44.5t9.5 72.5v874h304v-922q0 -95 -33 -172t-103 -122t-183 -45zM1708 990q-70 0 -120.5 50.5
t-50.5 120.5q0 47 23 86t62 63t86 24q48 0 87 -23.5t62.5 -62.5t23.5 -87q0 -70 -50.5 -120.5t-122.5 -50.5z" />
    <glyph glyph-name="uni01CC" unicode="&#x1cc;" horiz-adv-x="1636" 
d="M649 845q86 0 168 -35t135 -110.5t53 -198.5v-501h-305v451q0 88 -42 132.5t-110 44.5q-45 0 -84.5 -23.5t-64 -66t-24.5 -97.5v-441h-304v821h304v-121q12 33 50.5 66.5t97 56t126.5 22.5zM1191 -440q-90 0 -148.5 17.5t-87.5 35.5l93 226q16 -13 34 -18.5t41 -5.5
q27 0 45.5 15t28 44.5t9.5 72.5v874h304v-922q0 -95 -33 -172t-103 -122t-183 -45zM1360 990q-70 0 -120.5 50.5t-50.5 120.5q0 47 23 86t62 63t86 24q48 0 87 -23.5t62.5 -62.5t23.5 -87q0 -70 -50.5 -120.5t-122.5 -50.5z" />
    <glyph glyph-name="uni01CE" unicode="&#x1ce;" horiz-adv-x="1129" 
d="M721 0v133q-9 -20 -45.5 -58t-96.5 -68.5t-140 -30.5q-120 0 -210 58.5t-140 157t-50 218.5t50 218.5t140 157.5t210 59q77 0 135 -24.5t94 -58t50 -61.5v120h302v-821h-299zM337 410q0 -56 26 -100.5t69.5 -69.5t96.5 -25q55 0 97 25t66.5 69.5t24.5 100.5t-24.5 100.5
t-66.5 70t-97 25.5q-53 0 -96.5 -25.5t-69.5 -70t-26 -100.5zM560 940l-353 258l109 145l244 -179l244 179l109 -145z" />
    <glyph glyph-name="uni01D0" unicode="&#x1d0;" horiz-adv-x="434" 
d="M63 0v821h281v-821h-281zM220 940l-353 258l109 145l244 -179l244 179l109 -145z" />
    <glyph glyph-name="uni01D2" unicode="&#x1d2;" horiz-adv-x="1033" 
d="M502 -24q-135 0 -239.5 55.5t-164 153t-59.5 223.5t59.5 224.5t164 155.5t239.5 57t238 -57t161 -155.5t58 -224.5t-58 -223.5t-161 -153t-238 -55.5zM502 226q52 0 90 23t59 65t21 95q0 54 -21 96t-59 66t-90 24t-90.5 -24t-60 -66t-21.5 -96q0 -53 21.5 -95t60 -65
t90.5 -23zM515 940l-353 258l109 145l244 -179l244 179l109 -145z" />
    <glyph glyph-name="uni01D4" unicode="&#x1d4;" horiz-adv-x="1096" 
d="M372 441q0 -98 37 -156.5t124 -58.5q89 0 125.5 58.5t36.5 156.5v380h300v-412q0 -132 -54.5 -229.5t-157.5 -150.5t-250 -53q-146 0 -249 53t-157 150.5t-54 229.5v412h299v-380zM550 940l-353 258l109 145l244 -179l244 179l109 -145z" />
    <glyph glyph-name="uni01D6" unicode="&#x1d6;" horiz-adv-x="1096" 
d="M372 441q0 -98 37 -156.5t124 -58.5q89 0 125.5 58.5t36.5 156.5v380h300v-412q0 -132 -54.5 -229.5t-157.5 -150.5t-250 -53q-146 0 -249 53t-157 150.5t-54 229.5v412h299v-380zM749 964q-61 0 -104 43t-43 103t43 103.5t104 43.5q60 0 103 -43t43 -104t-43 -103.5
t-103 -42.5zM347 964q-62 0 -104.5 43t-42.5 103t42.5 103.5t104.5 43.5q60 0 103 -43t43 -104t-43 -103.5t-103 -42.5zM226 1367v190h651v-190h-651z" />
    <glyph glyph-name="uni01D8" unicode="&#x1d8;" horiz-adv-x="1096" 
d="M372 441q0 -98 37 -156.5t124 -58.5q89 0 125.5 58.5t36.5 156.5v380h300v-412q0 -132 -54.5 -229.5t-157.5 -150.5t-250 -53q-146 0 -249 53t-157 150.5t-54 229.5v412h299v-380zM749 964q-61 0 -104 43t-43 103t43 103.5t104 43.5q60 0 103 -43t43 -104t-43 -103.5
t-103 -42.5zM347 964q-62 0 -104.5 43t-42.5 103t42.5 103.5t104.5 43.5q60 0 103 -43t43 -104t-43 -103.5t-103 -42.5zM404 1277l-89 123l325 280l144 -181z" />
    <glyph glyph-name="uni01DA" unicode="&#x1da;" horiz-adv-x="1096" 
d="M372 441q0 -98 37 -156.5t124 -58.5q89 0 125.5 58.5t36.5 156.5v380h300v-412q0 -132 -54.5 -229.5t-157.5 -150.5t-250 -53q-146 0 -249 53t-157 150.5t-54 229.5v412h299v-380zM749 964q-61 0 -104 43t-43 103t43 103.5t104 43.5q60 0 103 -43t43 -104t-43 -103.5
t-103 -42.5zM347 964q-62 0 -104.5 43t-42.5 103t42.5 103.5t104.5 43.5q60 0 103 -43t43 -104t-43 -103.5t-103 -42.5zM550 1306l-353 258l109 145l244 -179l244 179l109 -145z" />
    <glyph glyph-name="uni01DC" unicode="&#x1dc;" horiz-adv-x="1096" 
d="M372 441q0 -98 37 -156.5t124 -58.5q89 0 125.5 58.5t36.5 156.5v380h300v-412q0 -132 -54.5 -229.5t-157.5 -150.5t-250 -53q-146 0 -249 53t-157 150.5t-54 229.5v412h299v-380zM749 964q-61 0 -104 43t-43 103t43 103.5t104 43.5q60 0 103 -43t43 -104t-43 -103.5
t-103 -42.5zM347 964q-62 0 -104.5 43t-42.5 103t42.5 103.5t104.5 43.5q60 0 103 -43t43 -104t-43 -103.5t-103 -42.5zM695 1306l-380 221l144 182l326 -280z" />
    <glyph glyph-name="Gcaron" unicode="&#x1e6;" horiz-adv-x="1470" 
d="M709 738h673v-84q0 -142 -47.5 -265t-135.5 -216t-210 -145t-270 -52q-153 0 -277.5 52.5t-214.5 146.5t-138 218.5t-48 267.5q0 142 48 266.5t138 218t214.5 146t277.5 52.5q125 0 220.5 -27t164.5 -72t117 -98.5t80 -104.5l-284 -134q-41 63 -111.5 110t-186.5 47
q-81 0 -148.5 -32t-116.5 -87.5t-75.5 -129t-26.5 -155.5q0 -83 26.5 -156t75.5 -129t116.5 -87.5t148.5 -31.5q71 0 129 18t100.5 52t67 80.5t29.5 102.5h-336v228zM721 1409l-308 226l95 126l213 -155l213 155l94 -126z" />
    <glyph glyph-name="gcaron" unicode="&#x1e7;" horiz-adv-x="1131" 
d="M515 -439q-86 0 -170.5 15t-157.5 51t-123 99l178 185q23 -27 56.5 -53t83 -43t120.5 -17q66 0 115 23t76.5 67t27.5 107v20h299v-38q0 -136 -67.5 -229t-181.5 -140t-256 -47zM721 0v133q-9 -20 -45.5 -58t-96.5 -68.5t-140 -30.5q-120 0 -210 58.5t-140 157t-50 218.5
t50 218.5t140 157.5t210 59q77 0 135 -24.5t94 -58t50 -61.5v120h302v-821h-299zM337 410q0 -56 26 -100.5t69.5 -69.5t96.5 -25q55 0 97 25t66.5 69.5t24.5 100.5t-24.5 100.5t-66.5 70t-97 25.5q-53 0 -96.5 -25.5t-69.5 -70t-26 -100.5zM556 940l-353 258l109 145
l244 -179l244 179l109 -145z" />
    <glyph glyph-name="uni01EA" unicode="&#x1ea;" horiz-adv-x="1484" 
d="M352 661q0 -113 46.5 -204.5t129 -145.5t191.5 -54t191.5 54t129 145.5t46.5 204.5t-46.5 204t-129 145.5t-191.5 54.5t-191.5 -54.5t-129 -145.5t-46.5 -204zM41 661q0 144 51 268.5t143 217.5t216 145t268 52q146 0 269.5 -52t215 -145t142 -217.5t50.5 -268.5
q0 -145 -49 -269.5t-140 -218t-215 -145.5t-273 -52q-152 0 -276.5 52t-214.5 145.5t-138.5 218t-48.5 269.5zM818 -435q-42 0 -88.5 17t-79 57t-32.5 109q0 46 27 100.5t66 105.5t75 87l89 -41q-21 -24 -43 -61.5t-38 -80t-16 -83.5q0 -30 21 -46t42 -16q28 0 50.5 16
t32.5 31l113 -85q-23 -37 -82.5 -73.5t-136.5 -36.5z" />
    <glyph glyph-name="uni01EB" unicode="&#x1eb;" horiz-adv-x="1033" 
d="M502 -24q-135 0 -239.5 55.5t-164 153t-59.5 223.5t59.5 224.5t164 155.5t239.5 57t238 -57t161 -155.5t58 -224.5t-58 -223.5t-161 -153t-238 -55.5zM502 226q52 0 90 23t59 65t21 95q0 54 -21 96t-59 66t-90 24t-90.5 -24t-60 -66t-21.5 -96q0 -53 21.5 -95t60 -65
t90.5 -23zM606 -435q-42 0 -88.5 17t-79 57t-32.5 109q0 46 27 100.5t66 105.5t75 87l89 -41q-21 -24 -43 -61.5t-38 -80t-16 -83.5q0 -30 21 -46t42 -16q28 0 50.5 16t32.5 31l113 -85q-23 -37 -82.5 -73.5t-136.5 -36.5z" />
    <glyph glyph-name="Aringacute" unicode="&#x1fa;" horiz-adv-x="1351" 
d="M511 1320h297l521 -1320h-319l-96 265h-508l-97 -265h-320zM506 527h309l-153 433h-3zM660 1359q-102 0 -164.5 56.5t-62.5 145.5q0 87 66 143.5t161 56.5q96 0 161 -56.5t65 -143.5q0 -89 -63.5 -145.5t-162.5 -56.5zM660 1482q31 0 52 21.5t21 57.5q0 35 -22 55t-51 20
q-31 0 -53 -20t-22 -55q0 -37 21.5 -58t53.5 -21zM575 1817l-90 122l325 281l145 -182z" />
    <glyph glyph-name="aringacute" unicode="&#x1fb;" horiz-adv-x="1129" 
d="M721 0v133q-9 -20 -45.5 -58t-96.5 -68.5t-140 -30.5q-120 0 -210 58.5t-140 157t-50 218.5t50 218.5t140 157.5t210 59q77 0 135 -24.5t94 -58t50 -61.5v120h302v-821h-299zM337 410q0 -56 26 -100.5t69.5 -69.5t96.5 -25q55 0 97 25t66.5 69.5t24.5 100.5t-24.5 100.5
t-66.5 70t-97 25.5q-53 0 -96.5 -25.5t-69.5 -70t-26 -100.5zM543 919q-115 0 -186 63.5t-71 163.5q0 66 34.5 117.5t92.5 80.5t130 29t130 -29t92 -80.5t34 -117.5q0 -100 -72 -163.5t-184 -63.5zM543 1060q34 0 57.5 23.5t23.5 62.5t-24 61.5t-57 22.5q-34 0 -58.5 -22.5
t-24.5 -61.5q0 -40 24 -63t59 -23zM414 1375l-89 123l325 280l144 -181z" />
    <glyph glyph-name="AEacute" unicode="&#x1fc;" horiz-adv-x="1719" 
d="M694 1320h312l-58 -1055h-502l-139 -265h-324zM559 492h246v432l-4 5zM787 1320h843v-262h-545v-269h540v-254h-540v-273h545v-262h-843v1320zM1057 1411l-89 123l325 280l144 -181z" />
    <glyph glyph-name="aeacute" unicode="&#x1fd;" horiz-adv-x="1576" 
d="M379 -24q-89 0 -159.5 33t-111 95.5t-40.5 151.5q0 72 43.5 130.5t119.5 93.5t173 35q65 0 109.5 -11.5t70.5 -25.5t36 -23v23q0 34 -13.5 63t-40 49.5t-66 32t-91.5 11.5q-80 0 -143 -21t-91 -41l-124 192q40 26 140.5 53.5t240.5 27.5q80 0 146 -21t112 -54.5t66 -73.5
q29 36 76 70t109 56.5t133 22.5q125 0 221.5 -46.5t151.5 -142.5t55 -246q0 -9 -1 -20t-1 -19h-596q0 -63 32.5 -101.5t76.5 -55.5t78 -17q45 0 88 14.5t78 36t57 44.5l163 -171q-42 -39 -100.5 -72t-133.5 -53t-169 -20q-71 0 -135.5 21t-116.5 57t-86 81q-18 -32 -65 -69
t-120.5 -63.5t-171.5 -26.5zM436 149q35 0 63.5 16t45 41.5t16.5 53.5q0 46 -34.5 75t-83.5 29q-30 0 -58.5 -13t-46 -37t-17.5 -57q0 -45 33.5 -76t81.5 -32zM912 524h322q-3 16 -11 40t-24.5 47.5t-44.5 39.5t-71 16q-69 0 -116.5 -41.5t-54.5 -101.5zM667 912l-89 123
l325 280l144 -181z" />
    <glyph glyph-name="Oslashacute" unicode="&#x1fe;" horiz-adv-x="1460" 
d="M1299 1372l105 -94l-1299 -1346l-106 95zM352 661q0 -113 46.5 -204.5t129 -145.5t191.5 -54t191.5 54t129 145.5t46.5 204.5t-46.5 204t-129 145.5t-191.5 54.5t-191.5 -54.5t-129 -145.5t-46.5 -204zM41 661q0 144 51 268.5t143 217.5t216 145t268 52q146 0 269.5 -52
t215 -145t142 -217.5t50.5 -268.5q0 -145 -49 -269.5t-140 -218t-215 -145.5t-273 -52q-152 0 -276.5 52t-214.5 145.5t-138.5 218t-48.5 269.5zM590 1411l-89 123l325 280l144 -181z" />
    <glyph glyph-name="oslashacute" unicode="&#x1ff;" horiz-adv-x="1013" 
d="M870 871l81 -71l-830 -844l-82 71zM502 -24q-135 0 -239.5 55.5t-164 153t-59.5 223.5t59.5 224.5t164 155.5t239.5 57t238 -57t161 -155.5t58 -224.5t-58 -223.5t-161 -153t-238 -55.5zM502 226q52 0 90 23t59 65t21 95q0 54 -21 96t-59 66t-90 24t-90.5 -24t-60 -66
t-21.5 -96q0 -53 21.5 -95t60 -65t90.5 -23zM370 912l-89 123l325 280l144 -181z" />
    <glyph glyph-name="uni0200" unicode="&#x200;" horiz-adv-x="1351" 
d="M511 1320h297l521 -1320h-319l-96 265h-508l-97 -265h-320zM506 527h309l-153 433h-3zM986 1376l-380 221l144 182l326 -280zM563 1376l-380 221l144 182l326 -280z" />
    <glyph glyph-name="uni0201" unicode="&#x201;" horiz-adv-x="1129" 
d="M721 0v133q-9 -20 -45.5 -58t-96.5 -68.5t-140 -30.5q-120 0 -210 58.5t-140 157t-50 218.5t50 218.5t140 157.5t210 59q77 0 135 -24.5t94 -58t50 -61.5v120h302v-821h-299zM337 410q0 -56 26 -100.5t69.5 -69.5t96.5 -25q55 0 97 25t66.5 69.5t24.5 100.5t-24.5 100.5
t-66.5 70t-97 25.5q-53 0 -96.5 -25.5t-69.5 -70t-26 -100.5zM868 940l-380 221l144 182l326 -280zM445 940l-380 221l144 182l326 -280z" />
    <glyph glyph-name="uni0202" unicode="&#x202;" horiz-adv-x="1351" 
d="M511 1320h297l521 -1320h-319l-96 265h-508l-97 -265h-320zM506 527h309l-153 433h-3zM509 1389l-174 43q8 73 49.5 130.5t112 91t162.5 33.5q91 0 161 -32.5t113 -89.5t51 -133l-175 -43q-4 31 -21 65t-49 57.5t-80 23.5t-80 -23.5t-49 -57.5t-21 -65z" />
    <glyph glyph-name="uni0203" unicode="&#x203;" horiz-adv-x="1129" 
d="M721 0v133q-9 -20 -45.5 -58t-96.5 -68.5t-140 -30.5q-120 0 -210 58.5t-140 157t-50 218.5t50 218.5t140 157.5t210 59q77 0 135 -24.5t94 -58t50 -61.5v120h302v-821h-299zM337 410q0 -56 26 -100.5t69.5 -69.5t96.5 -25q55 0 97 25t66.5 69.5t24.5 100.5t-24.5 100.5
t-66.5 70t-97 25.5q-53 0 -96.5 -25.5t-69.5 -70t-26 -100.5zM374 906l-200 50q10 83 57 148.5t126.5 103t184.5 37.5q103 0 182 -36.5t128 -101.5t59 -151l-201 -50q-4 36 -23 74.5t-54.5 64.5t-90.5 26q-54 0 -90 -26t-55 -64.5t-23 -74.5z" />
    <glyph glyph-name="uni0204" unicode="&#x204;" horiz-adv-x="1069" 
d="M83 1320h843v-262h-545v-269h540v-254h-540v-273h545v-262h-843v1320zM808 1376l-380 221l144 182l326 -280zM385 1376l-380 221l144 182l326 -280z" />
    <glyph glyph-name="uni0205" unicode="&#x205;" horiz-adv-x="998" 
d="M326 346q3 -44 28 -78t69.5 -53.5t105.5 -19.5q58 0 104.5 12t81 30t53.5 37l118 -188q-25 -27 -70.5 -52.5t-119.5 -41.5t-187 -16q-136 0 -242 51t-167 150t-61 242q0 120 52.5 216.5t152.5 153t241 56.5q134 0 232.5 -49t152 -145.5t53.5 -240.5q0 -8 -0.5 -32
t-2.5 -32h-594zM637 505q-1 32 -17 63.5t-48 52t-82 20.5t-84.5 -19.5t-52.5 -50.5t-20 -66h304zM818 940l-380 221l144 182l326 -280zM395 940l-380 221l144 182l326 -280z" />
    <glyph glyph-name="uni0206" unicode="&#x206;" horiz-adv-x="1069" 
d="M83 1320h843v-262h-545v-269h540v-254h-540v-273h545v-262h-843v1320zM331 1389l-174 43q8 73 49.5 130.5t112 91t162.5 33.5q91 0 161 -32.5t113 -89.5t51 -133l-175 -43q-4 31 -21 65t-49 57.5t-80 23.5t-80 -23.5t-49 -57.5t-21 -65z" />
    <glyph glyph-name="uni0207" unicode="&#x207;" horiz-adv-x="998" 
d="M326 346q3 -44 28 -78t69.5 -53.5t105.5 -19.5q58 0 104.5 12t81 30t53.5 37l118 -188q-25 -27 -70.5 -52.5t-119.5 -41.5t-187 -16q-136 0 -242 51t-167 150t-61 242q0 120 52.5 216.5t152.5 153t241 56.5q134 0 232.5 -49t152 -145.5t53.5 -240.5q0 -8 -0.5 -32
t-2.5 -32h-594zM637 505q-1 32 -17 63.5t-48 52t-82 20.5t-84.5 -19.5t-52.5 -50.5t-20 -66h304zM325 906l-200 50q10 83 57 148.5t126.5 103t184.5 37.5q103 0 182 -36.5t128 -101.5t59 -151l-201 -50q-4 36 -23 74.5t-54.5 64.5t-90.5 26q-54 0 -90 -26t-55 -64.5
t-23 -74.5z" />
    <glyph glyph-name="uni0208" unicode="&#x208;" horiz-adv-x="541" 
d="M94 1320h299v-1320h-299v1320zM570 1376l-380 221l144 182l326 -280zM147 1376l-380 221l144 182l326 -280z" />
    <glyph glyph-name="uni0209" unicode="&#x209;" horiz-adv-x="434" 
d="M63 0v821h281v-821h-281zM528 940l-380 221l144 182l326 -280zM105 940l-380 221l144 182l326 -280z" />
    <glyph glyph-name="uni020A" unicode="&#x20a;" horiz-adv-x="541" 
d="M94 1320h299v-1320h-299v1320zM92 1389l-174 43q8 73 49.5 130.5t112 91t162.5 33.5q91 0 161 -32.5t113 -89.5t51 -133l-175 -43q-4 31 -21 65t-49 57.5t-80 23.5t-80 -23.5t-49 -57.5t-21 -65z" />
    <glyph glyph-name="uni020B" unicode="&#x20b;" horiz-adv-x="434" 
d="M63 0v821h281v-821h-281zM35 906l-200 50q10 83 57 148.5t126.5 103t184.5 37.5q103 0 182 -36.5t128 -101.5t59 -151l-201 -50q-4 36 -23 74.5t-54.5 64.5t-90.5 26q-54 0 -90 -26t-55 -64.5t-23 -74.5z" />
    <glyph glyph-name="uni020C" unicode="&#x20c;" horiz-adv-x="1484" 
d="M352 661q0 -113 46.5 -204.5t129 -145.5t191.5 -54t191.5 54t129 145.5t46.5 204.5t-46.5 204t-129 145.5t-191.5 54.5t-191.5 -54.5t-129 -145.5t-46.5 -204zM41 661q0 144 51 268.5t143 217.5t216 145t268 52q146 0 269.5 -52t215 -145t142 -217.5t50.5 -268.5
q0 -145 -49 -269.5t-140 -218t-215 -145.5t-273 -52q-152 0 -276.5 52t-214.5 145.5t-138.5 218t-48.5 269.5zM1045 1376l-380 221l144 182l326 -280zM622 1376l-380 221l144 182l326 -280z" />
    <glyph glyph-name="uni020D" unicode="&#x20d;" horiz-adv-x="1033" 
d="M502 -24q-135 0 -239.5 55.5t-164 153t-59.5 223.5t59.5 224.5t164 155.5t239.5 57t238 -57t161 -155.5t58 -224.5t-58 -223.5t-161 -153t-238 -55.5zM502 226q52 0 90 23t59 65t21 95q0 54 -21 96t-59 66t-90 24t-90.5 -24t-60 -66t-21.5 -96q0 -53 21.5 -95t60 -65
t90.5 -23zM823 940l-380 221l144 182l326 -280zM400 940l-380 221l144 182l326 -280z" />
    <glyph glyph-name="uni020E" unicode="&#x20e;" horiz-adv-x="1484" 
d="M352 661q0 -113 46.5 -204.5t129 -145.5t191.5 -54t191.5 54t129 145.5t46.5 204.5t-46.5 204t-129 145.5t-191.5 54.5t-191.5 -54.5t-129 -145.5t-46.5 -204zM41 661q0 144 51 268.5t143 217.5t216 145t268 52q146 0 269.5 -52t215 -145t142 -217.5t50.5 -268.5
q0 -145 -49 -269.5t-140 -218t-215 -145.5t-273 -52q-152 0 -276.5 52t-214.5 145.5t-138.5 218t-48.5 269.5zM550 1405l-200 50q10 83 57 148.5t126.5 103t184.5 37.5q103 0 182 -36.5t128 -101.5t59 -151l-201 -50q-4 36 -23 74.5t-54.5 64.5t-90.5 26q-54 0 -90 -26
t-55 -64.5t-23 -74.5z" />
    <glyph glyph-name="uni020F" unicode="&#x20f;" horiz-adv-x="1033" 
d="M502 -24q-135 0 -239.5 55.5t-164 153t-59.5 223.5t59.5 224.5t164 155.5t239.5 57t238 -57t161 -155.5t58 -224.5t-58 -223.5t-161 -153t-238 -55.5zM502 226q52 0 90 23t59 65t21 95q0 54 -21 96t-59 66t-90 24t-90.5 -24t-60 -66t-21.5 -96q0 -53 21.5 -95t60 -65
t90.5 -23zM330 906l-200 50q10 83 57 148.5t126.5 103t184.5 37.5q103 0 182 -36.5t128 -101.5t59 -151l-201 -50q-4 36 -23 74.5t-54.5 64.5t-90.5 26q-54 0 -90 -26t-55 -64.5t-23 -74.5z" />
    <glyph glyph-name="uni0210" unicode="&#x210;" horiz-adv-x="1183" 
d="M77 1320h538q115 0 205 -48t142.5 -138.5t52.5 -215.5t-44.5 -204.5t-106.5 -119t-115 -47.5l321 -547h-336l-286 524h-72v-524h-299v1320zM376 731h132q80 0 140 39t60 138t-59 137.5t-139 38.5h-134v-353zM880 1376l-380 221l144 182l326 -280zM457 1376l-380 221
l144 182l326 -280z" />
    <glyph glyph-name="uni0211" unicode="&#x211;" horiz-adv-x="793" 
d="M362 0h-304v821h304v-127h-5q8 23 39 58.5t87 64t137 28.5q57 0 105 -17.5t70 -33.5l-118 -247q-14 17 -49.5 35.5t-88.5 18.5q-61 0 -100.5 -31t-58 -75t-18.5 -83v-412zM706 940l-380 221l144 182l326 -280zM283 940l-380 221l144 182l326 -280z" />
    <glyph glyph-name="uni0212" unicode="&#x212;" horiz-adv-x="1183" 
d="M77 1320h538q115 0 205 -48t142.5 -138.5t52.5 -215.5t-44.5 -204.5t-106.5 -119t-115 -47.5l321 -547h-336l-286 524h-72v-524h-299v1320zM376 731h132q80 0 140 39t60 138t-59 137.5t-139 38.5h-134v-353zM403 1389l-174 43q8 73 49.5 130.5t112 91t162.5 33.5
q91 0 161 -32.5t113 -89.5t51 -133l-175 -43q-4 31 -21 65t-49 57.5t-80 23.5t-80 -23.5t-49 -57.5t-21 -65z" />
    <glyph glyph-name="uni0213" unicode="&#x213;" horiz-adv-x="793" 
d="M362 0h-304v821h304v-127h-5q8 23 39 58.5t87 64t137 28.5q57 0 105 -17.5t70 -33.5l-118 -247q-14 17 -49.5 35.5t-88.5 18.5q-61 0 -100.5 -31t-58 -75t-18.5 -83v-412zM213 906l-200 50q10 83 57 148.5t126.5 103t184.5 37.5q103 0 182 -36.5t128 -101.5t59 -151
l-201 -50q-4 36 -23 74.5t-54.5 64.5t-90.5 26q-54 0 -90 -26t-55 -64.5t-23 -74.5z" />
    <glyph glyph-name="uni0214" unicode="&#x214;" horiz-adv-x="1273" 
d="M846 1320h299v-811q0 -163 -64 -282.5t-183 -185t-284 -65.5q-166 0 -286 65.5t-183.5 185t-63.5 282.5v811h298v-795q0 -90 28.5 -152t81.5 -93.5t125 -31.5q71 0 123 31.5t80.5 93.5t28.5 152v795zM940 1376l-380 221l144 182l326 -280zM517 1376l-380 221l144 182
l326 -280z" />
    <glyph glyph-name="uni0215" unicode="&#x215;" horiz-adv-x="1096" 
d="M372 441q0 -98 37 -156.5t124 -58.5q89 0 125.5 58.5t36.5 156.5v380h300v-412q0 -132 -54.5 -229.5t-157.5 -150.5t-250 -53q-146 0 -249 53t-157 150.5t-54 229.5v412h299v-380zM857 940l-380 221l144 182l326 -280zM434 940l-380 221l144 182l326 -280z" />
    <glyph glyph-name="uni0216" unicode="&#x216;" horiz-adv-x="1273" 
d="M846 1320h299v-811q0 -163 -64 -282.5t-183 -185t-284 -65.5q-166 0 -286 65.5t-183.5 185t-63.5 282.5v811h298v-795q0 -90 28.5 -152t81.5 -93.5t125 -31.5q71 0 123 31.5t80.5 93.5t28.5 152v795zM463 1389l-174 43q8 73 49.5 130.5t112 91t162.5 33.5q91 0 161 -32.5
t113 -89.5t51 -133l-175 -43q-4 31 -21 65t-49 57.5t-80 23.5t-80 -23.5t-49 -57.5t-21 -65z" />
    <glyph glyph-name="uni0217" unicode="&#x217;" horiz-adv-x="1096" 
d="M372 441q0 -98 37 -156.5t124 -58.5q89 0 125.5 58.5t36.5 156.5v380h300v-412q0 -132 -54.5 -229.5t-157.5 -150.5t-250 -53q-146 0 -249 53t-157 150.5t-54 229.5v412h299v-380zM364 906l-200 50q10 83 57 148.5t126.5 103t184.5 37.5q103 0 182 -36.5t128 -101.5
t59 -151l-201 -50q-4 36 -23 74.5t-54.5 64.5t-90.5 26q-54 0 -90 -26t-55 -64.5t-23 -74.5z" />
    <glyph glyph-name="uni0218" unicode="&#x218;" horiz-adv-x="1119" 
d="M564 1344q123 0 215 -27t148 -57t68 -40l-144 -241q-16 12 -54.5 35t-91 41t-109.5 18q-77 0 -124.5 -27.5t-47.5 -81.5q0 -37 25.5 -66.5t78 -56t133.5 -57.5q74 -27 139 -64t114.5 -87.5t78.5 -116.5t29 -150q0 -100 -41 -173.5t-111.5 -121.5t-160 -71.5t-185.5 -23.5
q-136 0 -243.5 31t-173.5 67t-79 48l149 251q12 -9 46.5 -29t84.5 -41.5t106.5 -36.5t111.5 -15q92 0 138 35.5t46 93.5q0 43 -29 77t-87 64.5t-145 64.5q-87 35 -162.5 85t-122.5 125t-47 186t62.5 192.5t165 125.5t219.5 44zM459 -585l-65 73q41 21 91 65.5t65 97.5
q-16 -8 -44 -8q-48 0 -86.5 37.5t-38.5 101.5q0 62 43.5 104t102.5 42q61 0 104 -41.5t43 -123.5q0 -71 -30 -139.5t-79 -123t-106 -85.5z" />
    <glyph glyph-name="uni0219" unicode="&#x219;" horiz-adv-x="860" 
d="M452 845q81 0 148 -13.5t112.5 -30.5t58.5 -28l-99 -179q-19 14 -70.5 36t-114.5 22q-48 0 -81 -14.5t-33 -45.5t36.5 -49.5t105.5 -32.5q60 -12 122 -38t103.5 -76.5t41.5 -134.5q0 -86 -37 -142t-98 -87t-132 -43.5t-138 -12.5q-94 0 -163.5 17t-112.5 39t-60 35
l98 200q26 -22 85 -49.5t125 -27.5q64 0 99 19t35 50q0 25 -17 40t-48 26t-75 20q-40 8 -85 25t-85 46.5t-65 74.5t-25 109q0 82 53 136t137 81.5t179 27.5zM350 -577l-65 73q40 21 90 65.5t65 97.5q-16 -8 -44 -8q-48 0 -86.5 37.5t-38.5 101.5q0 62 43.5 104.5t102.5 42.5
q61 0 104.5 -42t43.5 -123q0 -72 -30.5 -140t-79.5 -123t-105 -86z" />
    <glyph glyph-name="uni021A" unicode="&#x21a;" horiz-adv-x="1020" 
d="M329 1058h-315v262h928v-262h-314v-1058h-299v1058zM409 -585l-65 73q41 21 91 65.5t65 97.5q-16 -8 -44 -8q-48 0 -86.5 37.5t-38.5 101.5q0 62 43.5 104t102.5 42q61 0 104 -41.5t43 -123.5q0 -71 -30 -139.5t-79 -123t-106 -85.5z" />
    <glyph glyph-name="uni021B" unicode="&#x21b;" horiz-adv-x="727" 
d="M14 821h140v337h301v-337h184v-250h-184v-229q0 -51 15 -82.5t55 -31.5q27 0 46 12t23 16l104 -216q-7 -6 -43.5 -22t-92.5 -29t-125 -13q-123 0 -203 69.5t-80 214.5v311h-140v250zM347 -585l-65 73q40 21 90 65.5t65 97.5q-16 -8 -44 -8q-48 0 -86.5 37.5t-38.5 101.5
q0 62 43.5 104.5t102.5 42.5q61 0 104.5 -42t43.5 -123q0 -72 -30.5 -140t-79.5 -123t-105 -86z" />
    <glyph glyph-name="uni022A" unicode="&#x22a;" horiz-adv-x="1484" 
d="M352 661q0 -113 46.5 -204.5t129 -145.5t191.5 -54t191.5 54t129 145.5t46.5 204.5t-46.5 204t-129 145.5t-191.5 54.5t-191.5 -54.5t-129 -145.5t-46.5 -204zM41 661q0 144 51 268.5t143 217.5t216 145t268 52q146 0 269.5 -52t215 -145t142 -217.5t50.5 -268.5
q0 -145 -49 -269.5t-140 -218t-215 -145.5t-273 -52q-152 0 -276.5 52t-214.5 145.5t-138.5 218t-48.5 269.5zM920 1400q-61 0 -103.5 43.5t-42.5 103.5t42.5 103.5t103.5 43.5t103.5 -43.5t42.5 -103.5q0 -61 -42.5 -104t-103.5 -43zM518 1400q-61 0 -103.5 43.5
t-42.5 103.5t42.5 103.5t103.5 43.5q60 0 103 -43.5t43 -103.5q0 -61 -43 -104t-103 -43zM392 1820v190h652v-190h-652z" />
    <glyph glyph-name="uni022B" unicode="&#x22b;" horiz-adv-x="1033" 
d="M502 -24q-135 0 -239.5 55.5t-164 153t-59.5 223.5t59.5 224.5t164 155.5t239.5 57t238 -57t161 -155.5t58 -224.5t-58 -223.5t-161 -153t-238 -55.5zM502 226q52 0 90 23t59 65t21 95q0 54 -21 96t-59 66t-90 24t-90.5 -24t-60 -66t-21.5 -96q0 -53 21.5 -95t60 -65
t90.5 -23zM715 964q-61 0 -104 43t-43 103t43 103.5t104 43.5q60 0 103 -43t43 -104t-43 -103.5t-103 -42.5zM313 964q-62 0 -104.5 43t-42.5 103t42.5 103.5t104.5 43.5q60 0 103 -43t43 -104t-43 -103.5t-103 -42.5zM191 1364v190h651v-190h-651z" />
    <glyph glyph-name="uni022C" unicode="&#x22c;" horiz-adv-x="1484" 
d="M352 661q0 -113 46.5 -204.5t129 -145.5t191.5 -54t191.5 54t129 145.5t46.5 204.5t-46.5 204t-129 145.5t-191.5 54.5t-191.5 -54.5t-129 -145.5t-46.5 -204zM41 661q0 144 51 268.5t143 217.5t216 145t268 52q146 0 269.5 -52t215 -145t142 -217.5t50.5 -268.5
q0 -145 -49 -269.5t-140 -218t-215 -145.5t-273 -52q-152 0 -276.5 52t-214.5 145.5t-138.5 218t-48.5 269.5zM365 1479q10 59 37 122t72.5 107t108.5 44t111 -18.5t90 -37t86 -18.5q29 0 47.5 25.5t25.5 48.5h161q-9 -59 -36.5 -122t-72.5 -107t-109 -44q-62 0 -110 18.5
t-90.5 36.5t-86.5 18q-28 0 -46.5 -25t-25.5 -48h-162zM411 1853v190h651v-190h-651z" />
    <glyph glyph-name="uni022D" unicode="&#x22d;" horiz-adv-x="1033" 
d="M502 -24q-135 0 -239.5 55.5t-164 153t-59.5 223.5t59.5 224.5t164 155.5t239.5 57t238 -57t161 -155.5t58 -224.5t-58 -223.5t-161 -153t-238 -55.5zM502 226q52 0 90 23t59 65t21 95q0 54 -21 96t-59 66t-90 24t-90.5 -24t-60 -66t-21.5 -96q0 -53 21.5 -95t60 -65
t90.5 -23zM145 980q10 59 37 122t72.5 107t108.5 44t111 -18.5t90 -37t86 -18.5q29 0 47.5 25.5t25.5 48.5h161q-9 -59 -36.5 -122t-72.5 -107t-109 -44q-62 0 -110 18.5t-90.5 36.5t-86.5 18q-28 0 -46.5 -25t-25.5 -48h-162zM191 1354v190h651v-190h-651z" />
    <glyph glyph-name="uni0230" unicode="&#x230;" horiz-adv-x="1484" 
d="M352 661q0 -113 46.5 -204.5t129 -145.5t191.5 -54t191.5 54t129 145.5t46.5 204.5t-46.5 204t-129 145.5t-191.5 54.5t-191.5 -54.5t-129 -145.5t-46.5 -204zM41 661q0 144 51 268.5t143 217.5t216 145t268 52q146 0 269.5 -52t215 -145t142 -217.5t50.5 -268.5
q0 -145 -49 -269.5t-140 -218t-215 -145.5t-273 -52q-152 0 -276.5 52t-214.5 145.5t-138.5 218t-48.5 269.5zM718 1427q-61 0 -103.5 43.5t-42.5 103.5t42.5 103.5t103.5 43.5q60 0 103 -43.5t43 -103.5q0 -61 -43 -104t-103 -43zM392 1801v190h652v-190h-652z" />
    <glyph glyph-name="uni0231" unicode="&#x231;" horiz-adv-x="1033" 
d="M502 -24q-135 0 -239.5 55.5t-164 153t-59.5 223.5t59.5 224.5t164 155.5t239.5 57t238 -57t161 -155.5t58 -224.5t-58 -223.5t-161 -153t-238 -55.5zM502 226q52 0 90 23t59 65t21 95q0 54 -21 96t-59 66t-90 24t-90.5 -24t-60 -66t-21.5 -96q0 -53 21.5 -95t60 -65
t90.5 -23zM515 972q-61 0 -103.5 43t-42.5 103t42.5 103.5t103.5 43.5q60 0 103 -43t43 -104t-43 -103.5t-103 -42.5zM207 1357v190h651v-190h-651z" />
    <glyph glyph-name="uni0232" unicode="&#x232;" horiz-adv-x="1201" 
d="M420 475l-455 845h363l241 -503l242 503h361l-453 -845v-475h-299v475zM243 1446v190h652v-190h-652z" />
    <glyph glyph-name="uni0233" unicode="&#x233;" horiz-adv-x="1029" 
d="M498 263l222 558h298l-564 -1237h-304l190 416l-343 821h303zM192 1015v190h651v-190h-651z" />
    <glyph glyph-name="uni0237" unicode="&#x237;" horiz-adv-x="538" 
d="M93 -440q-90 0 -148.5 17.5t-87.5 35.5l93 226q16 -13 34 -18.5t41 -5.5q27 0 45.5 15t28 44.5t9.5 72.5v874h304v-922q0 -95 -33 -172t-103 -122t-183 -45z" />
    <glyph glyph-name="uni0259" unicode="&#x259;" horiz-adv-x="998" 
d="M512 -24q-134 0 -232.5 49t-152.5 146t-54 240q0 8 1 27.5t2 26.5h593q-3 44 -28 79.5t-69 57t-105 21.5q-56 0 -103 -11.5t-81 -29t-54 -36.5l-118 190q26 27 70.5 52t118.5 41t188 16q137 0 243 -50.5t166.5 -149.5t60.5 -244q0 -119 -52.5 -215.5t-152 -153
t-241.5 -56.5zM507 177q50 0 83.5 20t51.5 54.5t19 79.5h-299q2 -42 17.5 -76.5t47.5 -56t80 -21.5z" />
    <glyph glyph-name="uni02BC" unicode="&#x2bc;" horiz-adv-x="930" 
d="M170 761q-17 67 -35.5 142t-31 149t-12.5 137q0 77 41 116t95 39q55 0 95.5 -39.5t40.5 -115.5q0 -97 -36 -212t-73 -216h-84z" />
    <glyph glyph-name="circumflex" unicode="&#x2c6;" horiz-adv-x="980" 
d="M233 941l-109 144l353 258l353 -258l-109 -145l-244 179z" />
    <glyph glyph-name="caron" unicode="&#x2c7;" horiz-adv-x="980" 
d="M477 940l-353 258l109 145l244 -179l244 179l109 -145z" />
    <glyph glyph-name="uni02C9" unicode="&#x2c9;" horiz-adv-x="930" 
d="M124 1015v190h651v-190h-651z" />
    <glyph glyph-name="breve" unicode="&#x2d8;" horiz-adv-x="866" 
d="M433 1005q-102 0 -181.5 36.5t-128.5 101.5t-58 151l200 50q5 -35 23.5 -74t54.5 -65t90 -26t90 26t55.5 65t22.5 74l200 -50q-9 -83 -56.5 -148.5t-126.5 -103t-185 -37.5z" />
    <glyph glyph-name="dotaccent" unicode="&#x2d9;" horiz-adv-x="567" 
d="M269 972q-61 0 -103.5 43t-42.5 103t42.5 103.5t103.5 43.5q60 0 103 -43t43 -104t-43 -103.5t-103 -42.5z" />
    <glyph glyph-name="ring" unicode="&#x2da;" horiz-adv-x="788" 
d="M380 945q-115 0 -186 63.5t-71 163.5q0 66 34.5 117.5t92.5 80.5t130 29t130 -29t92 -80.5t34 -117.5q0 -100 -72 -163.5t-184 -63.5zM380 1086q34 0 57.5 23.5t23.5 62.5t-24 61.5t-57 22.5q-34 0 -58.5 -22.5t-24.5 -61.5q0 -40 24 -63t59 -23z" />
    <glyph glyph-name="ogonek" unicode="&#x2db;" horiz-adv-x="694" 
d="M324 -435q-42 0 -88.5 17t-79 57t-32.5 109q0 46 27 100.5t66 105.5t75 87l89 -41q-21 -24 -43 -61t-38 -79t-16 -81q0 -35 19.5 -50.5t46.5 -15.5q26 0 48 16t32 31l113 -85q-23 -37 -82.5 -73.5t-136.5 -36.5z" />
    <glyph glyph-name="tilde" unicode="&#x2dc;" horiz-adv-x="1012" 
d="M122 985q10 59 37 122t72.5 107t108.5 44t111 -18.5t90 -36.5t86 -18q29 0 47.5 25t25.5 48h161q-9 -58 -36.5 -121.5t-72.5 -107.5t-109 -44q-62 0 -110 18.5t-90.5 37t-86.5 18.5q-28 0 -46.5 -25t-25.5 -49h-162z" />
    <glyph glyph-name="hungarumlaut" unicode="&#x2dd;" horiz-adv-x="1019" 
d="M254 940l-90 123l277 312l131 -165zM591 940l-89 123l276 312l131 -165z" />
    <glyph glyph-name="gravecomb" unicode="&#x300;" 
d="M482 940l-380 221l144 182l326 -280z" />
    <glyph glyph-name="acutecomb" unicode="&#x301;" 
d="M334 917l-89 123l325 280l144 -181z" />
    <glyph glyph-name="uni0302" unicode="&#x302;" 
d="M737 940l-244 179l-244 -178l-109 144l353 258l353 -258z" />
    <glyph glyph-name="tildecomb" unicode="&#x303;" 
d="M138 980q10 59 37 122t72.5 107t108.5 44t111 -18.5t90 -37t86 -18.5q29 0 47.5 25.5t25.5 48.5h161q-9 -59 -36.5 -122t-72.5 -107t-109 -44q-62 0 -110 18.5t-90.5 36.5t-86.5 18q-28 0 -46.5 -25t-25.5 -48h-162z" />
    <glyph glyph-name="uni0304" unicode="&#x304;" 
d="M140 1015v190h651v-190h-651z" />
    <glyph glyph-name="uni0306" unicode="&#x306;" 
d="M445 1037q-102 0 -182 36.5t-128.5 101.5t-58.5 151l201 50q5 -35 23.5 -73.5t54.5 -65t90 -26.5t90 26.5t55 65t23 73.5l200 -50q-9 -83 -56.5 -148.5t-127 -103t-184.5 -37.5z" />
    <glyph glyph-name="uni0307" unicode="&#x307;" 
d="M285 972q-61 0 -103.5 43t-42.5 103t42.5 103.5t103.5 43.5q60 0 103 -43t43 -104t-43 -103.5t-103 -42.5z" />
    <glyph glyph-name="uni0308" unicode="&#x308;" 
d="M676 972q-61 0 -104 43t-43 103t43 103.5t104 43.5q60 0 103 -43t43 -104t-43 -103.5t-103 -42.5zM274 972q-62 0 -104.5 43t-42.5 103t42.5 103.5t104.5 43.5q60 0 103 -43t43 -104t-43 -103.5t-103 -42.5z" />
    <glyph glyph-name="hookabovecomb" unicode="&#x309;" 
d="M538 864l-73 113q22 7 57.5 25.5t63.5 47.5t28 66t-15 53.5t-40 21.5t-56 5q-43 0 -87 -15t-74 -31v155q18 12 64.5 30t135.5 18q64 0 122.5 -20.5t95.5 -67t37 -125.5q0 -63 -28.5 -110.5t-71 -81t-86 -53.5t-73.5 -31z" />
    <glyph glyph-name="uni030A" unicode="&#x30a;" 
d="M396 945q-115 0 -186 63.5t-71 163.5q0 66 34.5 117.5t92.5 80.5t130 29t130 -29t92 -80.5t34 -117.5q0 -100 -72 -163.5t-184 -63.5zM396 1086q34 0 57.5 23.5t23.5 62.5t-24 61.5t-57 22.5q-34 0 -58.5 -22.5t-24.5 -61.5q0 -40 24 -63t59 -23z" />
    <glyph glyph-name="uni030B" unicode="&#x30b;" 
d="M607 940l-89 123l276 312l131 -165zM270 940l-90 123l277 312l131 -165z" />
    <glyph glyph-name="uni030C" unicode="&#x30c;" 
d="M493 940l-353 258l109 145l244 -179l244 179l109 -145z" />
    <glyph glyph-name="uni030F" unicode="&#x30f;" 
d="M902 940l-380 221l144 182l326 -280zM479 940l-380 221l144 182l326 -280z" />
    <glyph glyph-name="uni0311" unicode="&#x311;" 
d="M319 906l-200 50q10 83 57 148.5t126.5 103t184.5 37.5q103 0 182 -36.5t128 -101.5t59 -151l-201 -50q-4 36 -23 74.5t-54.5 64.5t-90.5 26q-54 0 -90 -26t-55 -64.5t-23 -74.5z" />
    <glyph glyph-name="uni0312" unicode="&#x312;" 
d="M227 959q-48 0 -83 34t-35 99q0 57 24.5 111t63.5 98t84 68l52 -57q-33 -18 -72.5 -53t-52.5 -79q13 7 36 7q38 0 69 -30t31 -81q0 -49 -34.5 -83t-82.5 -34z" />
    <glyph glyph-name="uni031B" unicode="&#x31b;" 
d="M501 889q-34 0 -59 7.5t-48 20.5v147q15 -13 35.5 -21t50.5 -8q50 0 77 38.5t27 86.5q0 43 -6 70t-18 55h192q8 -13 20.5 -49t12.5 -96q0 -74 -40 -130.5t-104.5 -88.5t-139.5 -32z" />
    <glyph glyph-name="dotbelowcomb" unicode="&#x323;" 
d="M322 -306q-49 0 -82.5 34t-33.5 81t33.5 81.5t82.5 34.5q47 0 80.5 -34.5t33.5 -81.5t-33.5 -81t-80.5 -34z" />
    <glyph glyph-name="uni0324" unicode="&#x324;" 
d="M669 -340q-56 0 -95.5 40t-39.5 94q0 56 39.5 95.5t95.5 39.5q55 0 94.5 -39.5t39.5 -95.5q0 -54 -39.5 -94t-94.5 -40zM296 -340q-56 0 -95 40t-39 94q0 56 39 95.5t95 39.5q55 0 94.5 -39.5t39.5 -95.5q0 -54 -39.5 -94t-94.5 -40z" />
    <glyph glyph-name="uni0326" unicode="&#x326;" 
d="M209 -577l-65 73q40 21 90 65.5t65 97.5q-16 -8 -44 -8q-48 0 -86.5 37.5t-38.5 101.5q0 62 43.5 104.5t102.5 42.5q61 0 104.5 -42t43.5 -123q0 -72 -30.5 -140t-79.5 -123t-105 -86z" />
    <glyph glyph-name="uni0327" unicode="&#x327;" 
d="M404 -433q-95 0 -160.5 29t-90.5 56l100 113q18 -20 52.5 -41t73.5 -21q36 0 57.5 17t21.5 45q0 34 -27 50t-64 16q-31 0 -52.5 -4.5t-28.5 -9.5l-15 12l77 213l106 -36l-36 -90q56 4 106 -13t81.5 -52t31.5 -87q0 -62 -32 -106t-85.5 -67.5t-115.5 -23.5z" />
    <glyph glyph-name="uni0328" unicode="&#x328;" 
d="M340 -435q-42 0 -88.5 17t-79 57t-32.5 109q0 46 27 100.5t66 105.5t75 87l89 -41q-21 -24 -43 -61.5t-38 -80t-16 -83.5q0 -30 21 -46t42 -16q28 0 50.5 16t32.5 31l113 -85q-23 -37 -82.5 -73.5t-136.5 -36.5z" />
    <glyph glyph-name="uni032E" unicode="&#x32e;" 
d="M488 -396q-102 0 -182 36.5t-128.5 102t-58.5 150.5l201 50q4 -35 23 -73.5t55 -65t90 -26.5t89.5 26.5t55 65t23.5 73.5l200 -50q-9 -83 -56.5 -148t-127 -103t-184.5 -38z" />
    <glyph glyph-name="uni0331" unicode="&#x331;" 
d="M170 -268v190h652v-190h-652z" />
    <glyph glyph-name="Wgrave" unicode="&#x1e80;" horiz-adv-x="1830" 
d="M1435 0h-359l-224 921h54l-224 -921h-361l-301 1320h343l159 -926h-4l248 926h225l249 -926h-4l159 926h343zM955 1376l-380 221l145 182l325 -281z" />
    <glyph glyph-name="wgrave" unicode="&#x1e81;" horiz-adv-x="1460" 
d="M716 476l-191 -476h-279l-272 821h323l131 -496l189 480h200l186 -480l132 496h323l-271 -821h-278zM878 940l-380 221l144 182l326 -280z" />
    <glyph glyph-name="Wacute" unicode="&#x1e82;" horiz-adv-x="1830" 
d="M1435 0h-359l-224 921h54l-224 -921h-361l-301 1320h343l159 -926h-4l248 926h225l249 -926h-4l159 926h343zM806 1376l-90 122l325 281l145 -182z" />
    <glyph glyph-name="wacute" unicode="&#x1e83;" horiz-adv-x="1460" 
d="M716 476l-191 -476h-279l-272 821h323l131 -496l189 480h200l186 -480l132 496h323l-271 -821h-278zM587 912l-89 123l325 280l144 -181z" />
    <glyph glyph-name="Wdieresis" unicode="&#x1e84;" horiz-adv-x="1830" 
d="M1435 0h-359l-224 921h54l-224 -921h-361l-301 1320h343l159 -926h-4l248 926h225l249 -926h-4l159 926h343zM1091 1400q-61 0 -103.5 43.5t-42.5 103.5t42.5 103.5t103.5 43.5t103.5 -43.5t42.5 -103.5q0 -61 -42.5 -104t-103.5 -43zM689 1400q-61 0 -103.5 43.5
t-42.5 103.5t42.5 103.5t103.5 43.5q60 0 103 -43.5t43 -103.5q0 -61 -43 -104t-103 -43z" />
    <glyph glyph-name="wdieresis" unicode="&#x1e85;" horiz-adv-x="1460" 
d="M716 476l-191 -476h-279l-272 821h323l131 -496l189 480h200l186 -480l132 496h323l-271 -821h-278zM932 964q-61 0 -104 43t-43 103t43 103.5t104 43.5q60 0 103 -43t43 -104t-43 -103.5t-103 -42.5zM530 964q-62 0 -104.5 43t-42.5 103t42.5 103.5t104.5 43.5
q60 0 103 -43t43 -104t-43 -103.5t-103 -42.5z" />
    <glyph glyph-name="uni1E9E" unicode="&#x1e9e;" horiz-adv-x="1285" 
d="M497 250q47 -15 94.5 -22.5t96.5 -7.5q88 0 144.5 47t56.5 126q0 89 -90.5 137t-263.5 27v259l228 276q-34 7 -76 10t-67 3q-94 0 -145 -39t-70.5 -109t-19.5 -163v-794h-294v923q0 149 68 243.5t193.5 139.5t295.5 45q58 0 129 -8t144 -21.5t136 -31.5l-1 -238
l-253 -299q68 0 136.5 -15t125.5 -55.5t91.5 -114.5t34.5 -192q0 -137 -64.5 -226.5t-171 -133t-231.5 -43.5q-117 0 -227 27v250z" />
    <glyph glyph-name="uni1EA0" unicode="&#x1ea0;" horiz-adv-x="1351" 
d="M511 1320h297l521 -1320h-319l-96 265h-508l-97 -265h-320zM506 527h309l-153 433h-3zM659 -319q-48 0 -81.5 34t-33.5 81t33.5 81.5t81.5 34.5q47 0 81 -34.5t34 -81.5q0 -48 -34 -81.5t-81 -33.5z" />
    <glyph glyph-name="uni1EA1" unicode="&#x1ea1;" horiz-adv-x="1129" 
d="M721 0v133q-9 -20 -45.5 -58t-96.5 -68.5t-140 -30.5q-120 0 -210 58.5t-140 157t-50 218.5t50 218.5t140 157.5t210 59q77 0 135 -24.5t94 -58t50 -61.5v120h302v-821h-299zM337 410q0 -56 26 -100.5t69.5 -69.5t96.5 -25q55 0 97 25t66.5 69.5t24.5 100.5t-24.5 100.5
t-66.5 70t-97 25.5q-53 0 -96.5 -25.5t-69.5 -70t-26 -100.5zM549 -306q-49 0 -82.5 34t-33.5 81t33.5 81.5t82.5 34.5q47 0 80.5 -34.5t33.5 -81.5t-33.5 -81t-80.5 -34z" />
    <glyph glyph-name="uni1EA2" unicode="&#x1ea2;" horiz-adv-x="1351" 
d="M511 1320h297l521 -1320h-319l-96 265h-508l-97 -265h-320zM506 527h309l-153 433h-3zM628 1390l-73 97q22 5 57.5 20.5t63.5 40.5t28 55q0 32 -15 47.5t-40 19.5t-56 4q-43 0 -87 -14t-74 -27v132q18 11 64.5 26.5t135.5 15.5q64 0 122.5 -17.5t95.5 -57.5t37 -109
q0 -53 -28.5 -93t-71 -68t-86 -45.5t-73.5 -26.5z" />
    <glyph glyph-name="uni1EA3" unicode="&#x1ea3;" horiz-adv-x="1129" 
d="M721 0v133q-9 -20 -45.5 -58t-96.5 -68.5t-140 -30.5q-120 0 -210 58.5t-140 157t-50 218.5t50 218.5t140 157.5t210 59q77 0 135 -24.5t94 -58t50 -61.5v120h302v-821h-299zM337 410q0 -56 26 -100.5t69.5 -69.5t96.5 -25q55 0 97 25t66.5 69.5t24.5 100.5t-24.5 100.5
t-66.5 70t-97 25.5q-53 0 -96.5 -25.5t-69.5 -70t-26 -100.5zM511 864l-73 113q22 7 57.5 25.5t63.5 47.5t28 66t-15 53.5t-40 21.5t-56 5q-43 0 -87 -15t-74 -31v155q18 12 64.5 30t135.5 18q64 0 122.5 -20.5t95.5 -67t37 -125.5q0 -63 -28.5 -110.5t-71 -81t-86 -53.5
t-73.5 -31z" />
    <glyph glyph-name="uni1EA4" unicode="&#x1ea4;" horiz-adv-x="1351" 
d="M511 1320h297l521 -1320h-319l-96 265h-508l-97 -265h-320zM506 527h309l-153 433h-3zM905 1386l-244 178l-244 -178l-109 144l353 258l353 -258zM915 1680l-89 122l325 281l144 -182z" />
    <glyph glyph-name="uni1EA5" unicode="&#x1ea5;" horiz-adv-x="1129" 
d="M721 0v133q-9 -20 -45.5 -58t-96.5 -68.5t-140 -30.5q-120 0 -210 58.5t-140 157t-50 218.5t50 218.5t140 157.5t210 59q77 0 135 -24.5t94 -58t50 -61.5v120h302v-821h-299zM337 410q0 -56 26 -100.5t69.5 -69.5t96.5 -25q55 0 97 25t66.5 69.5t24.5 100.5t-24.5 100.5
t-66.5 70t-97 25.5q-53 0 -96.5 -25.5t-69.5 -70t-26 -100.5zM789 887l-244 178l-244 -178l-109 144l353 258l353 -258zM799 1181l-89 122l325 281l144 -182z" />
    <glyph glyph-name="uni1EA6" unicode="&#x1ea6;" horiz-adv-x="1351" 
d="M511 1320h297l521 -1320h-319l-96 265h-508l-97 -265h-320zM506 527h309l-153 433h-3zM906 1389l-244 179l-244 -178l-109 144l353 258l353 -258zM1072 1663l-380 221l144 182l325 -280z" />
    <glyph glyph-name="uni1EA7" unicode="&#x1ea7;" horiz-adv-x="1129" 
d="M721 0v133q-9 -20 -45.5 -58t-96.5 -68.5t-140 -30.5q-120 0 -210 58.5t-140 157t-50 218.5t50 218.5t140 157.5t210 59q77 0 135 -24.5t94 -58t50 -61.5v120h302v-821h-299zM337 410q0 -56 26 -100.5t69.5 -69.5t96.5 -25q55 0 97 25t66.5 69.5t24.5 100.5t-24.5 100.5
t-66.5 70t-97 25.5q-53 0 -96.5 -25.5t-69.5 -70t-26 -100.5zM790 890l-244 179l-244 -178l-109 144l353 258l353 -258zM956 1164l-380 221l144 182l325 -280z" />
    <glyph glyph-name="uni1EA8" unicode="&#x1ea8;" horiz-adv-x="1351" 
d="M511 1320h297l521 -1320h-319l-96 265h-508l-97 -265h-320zM506 527h309l-153 433h-3zM861 1703l-73 114q22 6 57.5 24.5t63.5 47.5t28 66t-15 54t-40 22t-56 5q-43 0 -87 -15.5t-74 -30.5v154q18 12 64.5 30t135.5 18q64 0 122.5 -20.5t95.5 -67t37 -125.5
q0 -63 -28.5 -110t-71 -80.5t-86 -54t-73.5 -31.5zM907 1386l-244 178l-244 -178l-109 144l353 258l353 -258z" />
    <glyph glyph-name="uni1EA9" unicode="&#x1ea9;" horiz-adv-x="1129" 
d="M721 0v133q-9 -20 -45.5 -58t-96.5 -68.5t-140 -30.5q-120 0 -210 58.5t-140 157t-50 218.5t50 218.5t140 157.5t210 59q77 0 135 -24.5t94 -58t50 -61.5v120h302v-821h-299zM337 410q0 -56 26 -100.5t69.5 -69.5t96.5 -25q55 0 97 25t66.5 69.5t24.5 100.5t-24.5 100.5
t-66.5 70t-97 25.5q-53 0 -96.5 -25.5t-69.5 -70t-26 -100.5zM744 1204l-73 114q22 6 57.5 24.5t63.5 47.5t28 66t-15 54t-40 22t-56 5q-43 0 -87 -15.5t-74 -30.5v154q18 12 64.5 30t135.5 18q64 0 122.5 -20.5t95.5 -67t37 -125.5q0 -63 -28.5 -110t-71 -80.5t-86 -54
t-73.5 -31.5zM790 887l-244 178l-244 -178l-109 144l353 258l353 -258z" />
    <glyph glyph-name="uni1EAA" unicode="&#x1eaa;" horiz-adv-x="1351" 
d="M511 1320h297l521 -1320h-319l-96 265h-508l-97 -265h-320zM506 527h309l-153 433h-3zM301 1818q9 58 36.5 121.5t72.5 107.5t109 44q63 0 111 -18.5t89.5 -37t86.5 -18.5q29 0 47.5 25.5t24.5 48.5h162q-10 -59 -37 -122t-72 -107t-109 -44q-63 0 -111 18.5t-90 36.5
t-87 18q-28 0 -46.5 -25t-25.5 -48h-161zM902 1386l-244 178l-244 -178l-109 144l353 258l353 -258z" />
    <glyph glyph-name="uni1EAB" unicode="&#x1eab;" horiz-adv-x="1129" 
d="M721 0v133q-9 -20 -45.5 -58t-96.5 -68.5t-140 -30.5q-120 0 -210 58.5t-140 157t-50 218.5t50 218.5t140 157.5t210 59q77 0 135 -24.5t94 -58t50 -61.5v120h302v-821h-299zM337 410q0 -56 26 -100.5t69.5 -69.5t96.5 -25q55 0 97 25t66.5 69.5t24.5 100.5t-24.5 100.5
t-66.5 70t-97 25.5q-53 0 -96.5 -25.5t-69.5 -70t-26 -100.5zM185 1319q9 58 36.5 121.5t72.5 107.5t109 44q63 0 111 -18.5t89.5 -37t86.5 -18.5q29 0 47.5 25.5t24.5 48.5h162q-10 -59 -37 -122t-72 -107t-109 -44q-63 0 -111 18.5t-90 36.5t-87 18q-28 0 -46.5 -25
t-25.5 -48h-161zM786 887l-244 178l-244 -178l-109 144l353 258l353 -258z" />
    <glyph glyph-name="uni1EAC" unicode="&#x1eac;" horiz-adv-x="1351" 
d="M511 1320h297l521 -1320h-319l-96 265h-508l-97 -265h-320zM506 527h309l-153 433h-3zM659 -319q-48 0 -81.5 34t-33.5 81t33.5 81.5t81.5 34.5q47 0 81 -34.5t34 -81.5q0 -48 -34 -81.5t-81 -33.5zM415 1397l-109 145l353 258l352 -259l-108 -144l-244 179z" />
    <glyph glyph-name="uni1EAD" unicode="&#x1ead;" horiz-adv-x="1129" 
d="M721 0v133q-9 -20 -45.5 -58t-96.5 -68.5t-140 -30.5q-120 0 -210 58.5t-140 157t-50 218.5t50 218.5t140 157.5t210 59q77 0 135 -24.5t94 -58t50 -61.5v120h302v-821h-299zM337 410q0 -56 26 -100.5t69.5 -69.5t96.5 -25q55 0 97 25t66.5 69.5t24.5 100.5t-24.5 100.5
t-66.5 70t-97 25.5q-53 0 -96.5 -25.5t-69.5 -70t-26 -100.5zM549 -306q-49 0 -82.5 34t-33.5 81t33.5 81.5t82.5 34.5q47 0 80.5 -34.5t33.5 -81.5t-33.5 -81t-80.5 -34zM788 889l-244 179l-244 -178l-109 144l353 258l353 -258z" />
    <glyph glyph-name="uni1EAE" unicode="&#x1eae;" horiz-adv-x="1351" 
d="M511 1320h297l521 -1320h-319l-96 265h-508l-97 -265h-320zM506 527h309l-153 433h-3zM660 1418q-102 0 -181.5 36t-128.5 101.5t-59 150.5l201 50q5 -35 23.5 -73.5t54.5 -65t90 -26.5t90 26.5t55.5 65t22.5 73.5l200 -50q-9 -83 -56.5 -148t-126.5 -102.5t-185 -37.5z
M572 1774l-90 122l326 281l144 -182z" />
    <glyph glyph-name="uni1EAF" unicode="&#x1eaf;" horiz-adv-x="1129" 
d="M721 0v133q-9 -20 -45.5 -58t-96.5 -68.5t-140 -30.5q-120 0 -210 58.5t-140 157t-50 218.5t50 218.5t140 157.5t210 59q77 0 135 -24.5t94 -58t50 -61.5v120h302v-821h-299zM337 410q0 -56 26 -100.5t69.5 -69.5t96.5 -25q55 0 97 25t66.5 69.5t24.5 100.5t-24.5 100.5
t-66.5 70t-97 25.5q-53 0 -96.5 -25.5t-69.5 -70t-26 -100.5zM543 919q-102 0 -181.5 36t-128.5 101.5t-59 150.5l201 50q5 -35 23.5 -73.5t54.5 -65t90 -26.5t90 26.5t55.5 65t22.5 73.5l200 -50q-9 -83 -56.5 -148t-126.5 -102.5t-185 -37.5zM455 1275l-90 122l326 281
l144 -182z" />
    <glyph glyph-name="uni1EB0" unicode="&#x1eb0;" horiz-adv-x="1351" 
d="M511 1320h297l521 -1320h-319l-96 265h-508l-97 -265h-320zM506 527h309l-153 433h-3zM748 1779l-380 221l144 182l326 -280zM659 1418q-104 0 -183.5 37.5t-127 102.5t-57.5 148l200 50q4 -35 23.5 -73.5t55 -65t89.5 -26.5q55 0 90.5 26.5t54.5 65t23 73.5l201 -50
q-10 -85 -58.5 -150t-127.5 -101.5t-183 -36.5z" />
    <glyph glyph-name="uni1EB1" unicode="&#x1eb1;" horiz-adv-x="1129" 
d="M721 0v133q-9 -20 -45.5 -58t-96.5 -68.5t-140 -30.5q-120 0 -210 58.5t-140 157t-50 218.5t50 218.5t140 157.5t210 59q77 0 135 -24.5t94 -58t50 -61.5v120h302v-821h-299zM337 410q0 -56 26 -100.5t69.5 -69.5t96.5 -25q55 0 97 25t66.5 69.5t24.5 100.5t-24.5 100.5
t-66.5 70t-97 25.5q-53 0 -96.5 -25.5t-69.5 -70t-26 -100.5zM631 1280l-380 221l144 182l326 -280zM542 919q-104 0 -183.5 37.5t-127 102.5t-57.5 148l200 50q4 -35 23.5 -73.5t55 -65t89.5 -26.5q55 0 90.5 26.5t54.5 65t23 73.5l201 -50q-10 -85 -58.5 -150
t-127.5 -101.5t-183 -36.5z" />
    <glyph glyph-name="uni1EB2" unicode="&#x1eb2;" horiz-adv-x="1351" 
d="M511 1320h297l521 -1320h-319l-96 265h-508l-97 -265h-320zM506 527h309l-153 433h-3zM628 1755l-73 114q22 6 57.5 24.5t63.5 47.5t28 66t-15 54t-40 22t-56 5q-43 0 -87 -15.5t-74 -30.5v154q18 12 64.5 30t135.5 18q64 0 122.5 -20.5t95.5 -67t37 -125.5
q0 -63 -28.5 -110t-71 -80.5t-86 -54t-73.5 -31.5zM660 1418q-102 0 -181.5 36t-128.5 101.5t-59 150.5l201 50q5 -35 23.5 -73.5t54.5 -65t90 -26.5t90 26.5t55.5 65t22.5 73.5l200 -50q-9 -83 -56.5 -148t-126.5 -102.5t-185 -37.5z" />
    <glyph glyph-name="uni1EB3" unicode="&#x1eb3;" horiz-adv-x="1129" 
d="M721 0v133q-9 -20 -45.5 -58t-96.5 -68.5t-140 -30.5q-120 0 -210 58.5t-140 157t-50 218.5t50 218.5t140 157.5t210 59q77 0 135 -24.5t94 -58t50 -61.5v120h302v-821h-299zM337 410q0 -56 26 -100.5t69.5 -69.5t96.5 -25q55 0 97 25t66.5 69.5t24.5 100.5t-24.5 100.5
t-66.5 70t-97 25.5q-53 0 -96.5 -25.5t-69.5 -70t-26 -100.5zM511 1256l-73 114q22 6 57.5 24.5t63.5 47.5t28 66t-15 54t-40 22t-56 5q-43 0 -87 -15.5t-74 -30.5v154q18 12 64.5 30t135.5 18q64 0 122.5 -20.5t95.5 -67t37 -125.5q0 -63 -28.5 -110t-71 -80.5t-86 -54
t-73.5 -31.5zM543 919q-102 0 -181.5 36t-128.5 101.5t-59 150.5l201 50q5 -35 23.5 -73.5t54.5 -65t90 -26.5t90 26.5t55.5 65t22.5 73.5l200 -50q-9 -83 -56.5 -148t-126.5 -102.5t-185 -37.5z" />
    <glyph glyph-name="uni1EB4" unicode="&#x1eb4;" horiz-adv-x="1351" 
d="M511 1320h297l521 -1320h-319l-96 265h-508l-97 -265h-320zM506 527h309l-153 433h-3zM306 1857q10 59 37 122t72.5 107t108.5 44t111 -18.5t90 -37t86 -18.5q29 0 47 23.5t26 50.5h161q-8 -54 -35.5 -118t-73 -109.5t-109.5 -45.5q-62 0 -110 18.5t-90.5 37t-86.5 18.5
q-28 0 -46.5 -25t-25.5 -49h-162zM660 1418q-102 0 -181.5 36t-128.5 101.5t-59 150.5l201 50q5 -35 23.5 -73.5t54.5 -65t90 -26.5t90 26.5t55.5 65t22.5 73.5l200 -50q-9 -83 -56.5 -148t-126.5 -102.5t-185 -37.5z" />
    <glyph glyph-name="uni1EB5" unicode="&#x1eb5;" horiz-adv-x="1129" 
d="M721 0v133q-9 -20 -45.5 -58t-96.5 -68.5t-140 -30.5q-120 0 -210 58.5t-140 157t-50 218.5t50 218.5t140 157.5t210 59q77 0 135 -24.5t94 -58t50 -61.5v120h302v-821h-299zM337 410q0 -56 26 -100.5t69.5 -69.5t96.5 -25q55 0 97 25t66.5 69.5t24.5 100.5t-24.5 100.5
t-66.5 70t-97 25.5q-53 0 -96.5 -25.5t-69.5 -70t-26 -100.5zM189 1358q10 59 37 122t72.5 107t108.5 44t111 -18.5t90 -37t86 -18.5q29 0 47 23.5t26 50.5h161q-8 -54 -35.5 -118t-73 -109.5t-109.5 -45.5q-62 0 -110 18.5t-90.5 37t-86.5 18.5q-28 0 -46.5 -25t-25.5 -49
h-162zM543 919q-102 0 -181.5 36t-128.5 101.5t-59 150.5l201 50q5 -35 23.5 -73.5t54.5 -65t90 -26.5t90 26.5t55.5 65t22.5 73.5l200 -50q-9 -83 -56.5 -148t-126.5 -102.5t-185 -37.5z" />
    <glyph glyph-name="uni1EB6" unicode="&#x1eb6;" horiz-adv-x="1351" 
d="M511 1320h297l521 -1320h-319l-96 265h-508l-97 -265h-320zM506 527h309l-153 433h-3zM659 -319q-48 0 -81.5 34t-33.5 81t33.5 81.5t81.5 34.5q47 0 81 -34.5t34 -81.5q0 -48 -34 -81.5t-81 -33.5zM660 1389q-92 0 -162.5 32.5t-113 90t-51.5 133.5l176 44
q4 -31 21 -65.5t49 -58.5t81 -24q48 0 80 24t49.5 58.5t20.5 65.5l176 -44q-7 -73 -49 -131t-112.5 -91.5t-164.5 -33.5z" />
    <glyph glyph-name="uni1EB7" unicode="&#x1eb7;" horiz-adv-x="1129" 
d="M721 0v133q-9 -20 -45.5 -58t-96.5 -68.5t-140 -30.5q-120 0 -210 58.5t-140 157t-50 218.5t50 218.5t140 157.5t210 59q77 0 135 -24.5t94 -58t50 -61.5v120h302v-821h-299zM337 410q0 -56 26 -100.5t69.5 -69.5t96.5 -25q55 0 97 25t66.5 69.5t24.5 100.5t-24.5 100.5
t-66.5 70t-97 25.5q-53 0 -96.5 -25.5t-69.5 -70t-26 -100.5zM549 -306q-49 0 -82.5 34t-33.5 81t33.5 81.5t82.5 34.5q47 0 80.5 -34.5t33.5 -81.5t-33.5 -81t-80.5 -34zM543 919q-102 0 -182 36.5t-128.5 101.5t-58.5 151l201 50q5 -35 23.5 -73.5t54.5 -65t90 -26.5
t90 26.5t55 65t23 73.5l200 -50q-9 -83 -56.5 -148.5t-127 -103t-184.5 -37.5z" />
    <glyph glyph-name="uni1EB8" unicode="&#x1eb8;" horiz-adv-x="1069" 
d="M83 1320h843v-262h-545v-269h540v-254h-540v-273h545v-262h-843v1320zM479 -319q-48 0 -81.5 34t-33.5 81t33.5 81.5t81.5 34.5q47 0 81 -34.5t34 -81.5q0 -48 -34 -81.5t-81 -33.5z" />
    <glyph glyph-name="uni1EB9" unicode="&#x1eb9;" horiz-adv-x="998" 
d="M326 346q3 -44 28 -78t69.5 -53.5t105.5 -19.5q58 0 104.5 12t81 30t53.5 37l118 -188q-25 -27 -70.5 -52.5t-119.5 -41.5t-187 -16q-136 0 -242 51t-167 150t-61 242q0 120 52.5 216.5t152.5 153t241 56.5q134 0 232.5 -49t152 -145.5t53.5 -240.5q0 -8 -0.5 -32
t-2.5 -32h-594zM637 505q-1 32 -17 63.5t-48 52t-82 20.5t-84.5 -19.5t-52.5 -50.5t-20 -66h304zM489 -306q-49 0 -82.5 34t-33.5 81t33.5 81.5t82.5 34.5q47 0 80.5 -34.5t33.5 -81.5t-33.5 -81t-80.5 -34z" />
    <glyph glyph-name="uni1EBA" unicode="&#x1eba;" horiz-adv-x="1069" 
d="M83 1320h843v-262h-545v-269h540v-254h-540v-273h545v-262h-843v1320zM449 1390l-73 97q22 5 57.5 20.5t63.5 40.5t28 55q0 32 -15 47.5t-40 19.5t-56 4q-43 0 -87 -14t-74 -27v132q18 11 64.5 26.5t135.5 15.5q64 0 122.5 -17.5t95.5 -57.5t37 -109q0 -53 -28.5 -93
t-71 -68t-86 -45.5t-73.5 -26.5z" />
    <glyph glyph-name="uni1EBB" unicode="&#x1ebb;" horiz-adv-x="998" 
d="M326 346q3 -44 28 -78t69.5 -53.5t105.5 -19.5q58 0 104.5 12t81 30t53.5 37l118 -188q-25 -27 -70.5 -52.5t-119.5 -41.5t-187 -16q-136 0 -242 51t-167 150t-61 242q0 120 52.5 216.5t152.5 153t241 56.5q134 0 232.5 -49t152 -145.5t53.5 -240.5q0 -8 -0.5 -32
t-2.5 -32h-594zM637 505q-1 32 -17 63.5t-48 52t-82 20.5t-84.5 -19.5t-52.5 -50.5t-20 -66h304zM462 864l-73 113q22 7 57.5 25.5t63.5 47.5t28 66t-15 53.5t-40 21.5t-56 5q-43 0 -87 -15t-74 -31v155q18 12 64.5 30t135.5 18q64 0 122.5 -20.5t95.5 -67t37 -125.5
q0 -63 -28.5 -110.5t-71 -81t-86 -53.5t-73.5 -31z" />
    <glyph glyph-name="uni1EBC" unicode="&#x1ebc;" horiz-adv-x="1069" 
d="M83 1320h843v-262h-545v-269h540v-254h-540v-273h545v-262h-843v1320zM112 1409q9 59 36.5 122t72.5 107t109 44q63 0 111 -18.5t89.5 -37t86.5 -18.5q29 0 47.5 25.5t24.5 48.5h162q-10 -58 -37 -121.5t-72 -107.5t-109 -44q-63 0 -111 18.5t-90 37t-87 18.5
q-28 0 -46.5 -25t-25.5 -49h-161z" />
    <glyph glyph-name="uni1EBD" unicode="&#x1ebd;" horiz-adv-x="998" 
d="M326 346q3 -44 28 -78t69.5 -53.5t105.5 -19.5q58 0 104.5 12t81 30t53.5 37l118 -188q-25 -27 -70.5 -52.5t-119.5 -41.5t-187 -16q-136 0 -242 51t-167 150t-61 242q0 120 52.5 216.5t152.5 153t241 56.5q134 0 232.5 -49t152 -145.5t53.5 -240.5q0 -8 -0.5 -32
t-2.5 -32h-594zM637 505q-1 32 -17 63.5t-48 52t-82 20.5t-84.5 -19.5t-52.5 -50.5t-20 -66h304zM140 980q10 59 37 122t72.5 107t108.5 44t111 -18.5t90 -37t86 -18.5q29 0 47.5 25.5t25.5 48.5h161q-9 -59 -36.5 -122t-72.5 -107t-109 -44q-62 0 -110 18.5t-90.5 36.5
t-86.5 18q-28 0 -46.5 -25t-25.5 -48h-162z" />
    <glyph glyph-name="uni1EBE" unicode="&#x1ebe;" horiz-adv-x="1069" 
d="M83 1320h843v-262h-545v-269h540v-254h-540v-273h545v-262h-843v1320zM727 1386l-244 178l-244 -178l-109 144l353 258l353 -258zM737 1680l-89 122l325 281l144 -182z" />
    <glyph glyph-name="uni1EBF" unicode="&#x1ebf;" horiz-adv-x="998" 
d="M326 346q3 -44 28 -78t69.5 -53.5t105.5 -19.5q58 0 104.5 12t81 30t53.5 37l118 -188q-25 -27 -70.5 -52.5t-119.5 -41.5t-187 -16q-136 0 -242 51t-167 150t-61 242q0 120 52.5 216.5t152.5 153t241 56.5q134 0 232.5 -49t152 -145.5t53.5 -240.5q0 -8 -0.5 -32
t-2.5 -32h-594zM637 505q-1 32 -17 63.5t-48 52t-82 20.5t-84.5 -19.5t-52.5 -50.5t-20 -66h304zM739 887l-244 178l-244 -178l-109 144l353 258l353 -258zM749 1181l-89 122l325 281l144 -182z" />
    <glyph glyph-name="uni1EC0" unicode="&#x1ec0;" horiz-adv-x="1069" 
d="M83 1320h843v-262h-545v-269h540v-254h-540v-273h545v-262h-843v1320zM728 1389l-244 179l-244 -178l-109 144l353 258l353 -258zM894 1663l-380 221l144 182l325 -280z" />
    <glyph glyph-name="uni1EC1" unicode="&#x1ec1;" horiz-adv-x="998" 
d="M326 346q3 -44 28 -78t69.5 -53.5t105.5 -19.5q58 0 104.5 12t81 30t53.5 37l118 -188q-25 -27 -70.5 -52.5t-119.5 -41.5t-187 -16q-136 0 -242 51t-167 150t-61 242q0 120 52.5 216.5t152.5 153t241 56.5q134 0 232.5 -49t152 -145.5t53.5 -240.5q0 -8 -0.5 -32
t-2.5 -32h-594zM637 505q-1 32 -17 63.5t-48 52t-82 20.5t-84.5 -19.5t-52.5 -50.5t-20 -66h304zM741 890l-244 179l-244 -178l-109 144l353 258l353 -258zM907 1164l-380 221l144 182l325 -280z" />
    <glyph glyph-name="uni1EC2" unicode="&#x1ec2;" horiz-adv-x="1069" 
d="M83 1320h843v-262h-545v-269h540v-254h-540v-273h545v-262h-843v1320zM683 1703l-73 114q22 6 57.5 24.5t63.5 47.5t28 66t-15 54t-40 22t-56 5q-43 0 -87 -15.5t-74 -30.5v154q18 12 64.5 30t135.5 18q64 0 122.5 -20.5t95.5 -67t37 -125.5q0 -63 -28.5 -110t-71 -80.5
t-86 -54t-73.5 -31.5zM729 1386l-244 178l-244 -178l-109 144l353 258l353 -258z" />
    <glyph glyph-name="uni1EC3" unicode="&#x1ec3;" horiz-adv-x="998" 
d="M326 346q3 -44 28 -78t69.5 -53.5t105.5 -19.5q58 0 104.5 12t81 30t53.5 37l118 -188q-25 -27 -70.5 -52.5t-119.5 -41.5t-187 -16q-136 0 -242 51t-167 150t-61 242q0 120 52.5 216.5t152.5 153t241 56.5q134 0 232.5 -49t152 -145.5t53.5 -240.5q0 -8 -0.5 -32
t-2.5 -32h-594zM637 505q-1 32 -17 63.5t-48 52t-82 20.5t-84.5 -19.5t-52.5 -50.5t-20 -66h304zM695 1204l-73 114q22 6 57.5 24.5t63.5 47.5t28 66t-15 54t-40 22t-56 5q-43 0 -87 -15.5t-74 -30.5v154q18 12 64.5 30t135.5 18q64 0 122.5 -20.5t95.5 -67t37 -125.5
q0 -63 -28.5 -110t-71 -80.5t-86 -54t-73.5 -31.5zM741 887l-244 178l-244 -178l-109 144l353 258l353 -258z" />
    <glyph glyph-name="uni1EC4" unicode="&#x1ec4;" horiz-adv-x="1069" 
d="M83 1320h843v-262h-545v-269h540v-254h-540v-273h545v-262h-843v1320zM123 1818q9 58 36.5 121.5t72.5 107.5t109 44q63 0 111 -18.5t89.5 -37t86.5 -18.5q29 0 47.5 25.5t24.5 48.5h162q-10 -59 -37 -122t-72 -107t-109 -44q-63 0 -111 18.5t-90 36.5t-87 18
q-28 0 -46.5 -25t-25.5 -48h-161zM724 1386l-244 178l-244 -178l-109 144l353 258l353 -258z" />
    <glyph glyph-name="uni1EC5" unicode="&#x1ec5;" horiz-adv-x="998" 
d="M326 346q3 -44 28 -78t69.5 -53.5t105.5 -19.5q58 0 104.5 12t81 30t53.5 37l118 -188q-25 -27 -70.5 -52.5t-119.5 -41.5t-187 -16q-136 0 -242 51t-167 150t-61 242q0 120 52.5 216.5t152.5 153t241 56.5q134 0 232.5 -49t152 -145.5t53.5 -240.5q0 -8 -0.5 -32
t-2.5 -32h-594zM637 505q-1 32 -17 63.5t-48 52t-82 20.5t-84.5 -19.5t-52.5 -50.5t-20 -66h304zM136 1319q9 58 36.5 121.5t72.5 107.5t109 44q63 0 111 -18.5t89.5 -37t86.5 -18.5q29 0 47.5 25.5t24.5 48.5h162q-10 -59 -37 -122t-72 -107t-109 -44q-63 0 -111 18.5
t-90 36.5t-87 18q-28 0 -46.5 -25t-25.5 -48h-161zM737 887l-244 178l-244 -178l-109 144l353 258l353 -258z" />
    <glyph glyph-name="uni1EC6" unicode="&#x1ec6;" horiz-adv-x="1069" 
d="M83 1320h843v-262h-545v-269h540v-254h-540v-273h545v-262h-843v1320zM479 -319q-48 0 -81.5 34t-33.5 81t33.5 81.5t81.5 34.5q47 0 81 -34.5t34 -81.5q0 -48 -34 -81.5t-81 -33.5zM237 1397l-109 145l353 258l352 -259l-108 -144l-244 179z" />
    <glyph glyph-name="uni1EC7" unicode="&#x1ec7;" horiz-adv-x="998" 
d="M326 346q3 -44 28 -78t69.5 -53.5t105.5 -19.5q58 0 104.5 12t81 30t53.5 37l118 -188q-25 -27 -70.5 -52.5t-119.5 -41.5t-187 -16q-136 0 -242 51t-167 150t-61 242q0 120 52.5 216.5t152.5 153t241 56.5q134 0 232.5 -49t152 -145.5t53.5 -240.5q0 -8 -0.5 -32
t-2.5 -32h-594zM637 505q-1 32 -17 63.5t-48 52t-82 20.5t-84.5 -19.5t-52.5 -50.5t-20 -66h304zM489 -306q-49 0 -82.5 34t-33.5 81t33.5 81.5t82.5 34.5q47 0 80.5 -34.5t33.5 -81.5t-33.5 -81t-80.5 -34zM739 889l-244 179l-244 -178l-109 144l353 258l353 -258z" />
    <glyph glyph-name="uni1EC8" unicode="&#x1ec8;" horiz-adv-x="541" 
d="M94 1320h299v-1320h-299v1320zM211 1390l-73 97q22 5 57.5 20.5t63.5 40.5t28 55q0 32 -15 47.5t-40 19.5t-56 4q-43 0 -87 -14t-74 -27v132q18 11 64.5 26.5t135.5 15.5q64 0 122.5 -17.5t95.5 -57.5t37 -109q0 -53 -28.5 -93t-71 -68t-86 -45.5t-73.5 -26.5z" />
    <glyph glyph-name="uni1EC9" unicode="&#x1ec9;" horiz-adv-x="434" 
d="M63 0v821h281v-821h-281zM172 864l-73 113q22 7 57.5 25.5t63.5 47.5t28 66t-15 53.5t-40 21.5t-56 5q-43 0 -87 -15t-74 -31v155q18 12 64.5 30t135.5 18q64 0 122.5 -20.5t95.5 -67t37 -125.5q0 -63 -28.5 -110.5t-71 -81t-86 -53.5t-73.5 -31z" />
    <glyph glyph-name="uni1ECA" unicode="&#x1eca;" horiz-adv-x="541" 
d="M94 1320h299v-1320h-299v1320zM242 -319q-48 0 -81.5 34t-33.5 81t33.5 81.5t81.5 34.5q47 0 81 -34.5t34 -81.5q0 -48 -34 -81.5t-81 -33.5z" />
    <glyph glyph-name="uni1ECB" unicode="&#x1ecb;" horiz-adv-x="524" 
d="M94 0v821h304v-821h-304zM250 990q-72 0 -122 50.5t-50 120.5t50.5 121.5t121.5 51.5q47 0 86 -23.5t63 -62.5t24 -87q0 -70 -51 -120.5t-122 -50.5zM250 -306q-49 0 -82.5 34t-33.5 81t33.5 81.5t82.5 34.5q47 0 80.5 -34.5t33.5 -81.5t-33.5 -81t-80.5 -34z" />
    <glyph glyph-name="uni1ECC" unicode="&#x1ecc;" horiz-adv-x="1484" 
d="M352 661q0 -113 46.5 -204.5t129 -145.5t191.5 -54t191.5 54t129 145.5t46.5 204.5t-46.5 204t-129 145.5t-191.5 54.5t-191.5 -54.5t-129 -145.5t-46.5 -204zM41 661q0 144 51 268.5t143 217.5t216 145t268 52q146 0 269.5 -52t215 -145t142 -217.5t50.5 -268.5
q0 -145 -49 -269.5t-140 -218t-215 -145.5t-273 -52q-152 0 -276.5 52t-214.5 145.5t-138.5 218t-48.5 269.5zM718 -386q-48 0 -81.5 34t-33.5 81t33.5 81.5t81.5 34.5q47 0 81 -34.5t34 -81.5q0 -48 -34 -81.5t-81 -33.5z" />
    <glyph glyph-name="uni1ECD" unicode="&#x1ecd;" horiz-adv-x="1033" 
d="M502 -24q-135 0 -239.5 55.5t-164 153t-59.5 223.5t59.5 224.5t164 155.5t239.5 57t238 -57t161 -155.5t58 -224.5t-58 -223.5t-161 -153t-238 -55.5zM502 226q52 0 90 23t59 65t21 95q0 54 -21 96t-59 66t-90 24t-90.5 -24t-60 -66t-21.5 -96q0 -53 21.5 -95t60 -65
t90.5 -23zM499 -469q-49 0 -82.5 34t-33.5 81t33.5 81.5t82.5 34.5q47 0 80.5 -34.5t33.5 -81.5t-33.5 -81t-80.5 -34z" />
    <glyph glyph-name="uni1ECE" unicode="&#x1ece;" horiz-adv-x="1484" 
d="M352 661q0 -113 46.5 -204.5t129 -145.5t191.5 -54t191.5 54t129 145.5t46.5 204.5t-46.5 204t-129 145.5t-191.5 54.5t-191.5 -54.5t-129 -145.5t-46.5 -204zM41 661q0 144 51 268.5t143 217.5t216 145t268 52q146 0 269.5 -52t215 -145t142 -217.5t50.5 -268.5
q0 -145 -49 -269.5t-140 -218t-215 -145.5t-273 -52q-152 0 -276.5 52t-214.5 145.5t-138.5 218t-48.5 269.5zM687 1390l-73 97q22 5 57.5 20.5t63.5 40.5t28 55q0 32 -15 47.5t-40 19.5t-56 4q-43 0 -87 -14t-74 -27v132q18 11 64.5 26.5t135.5 15.5q64 0 122.5 -17.5
t95.5 -57.5t37 -109q0 -53 -28.5 -93t-71 -68t-86 -45.5t-73.5 -26.5z" />
    <glyph glyph-name="uni1ECF" unicode="&#x1ecf;" horiz-adv-x="1033" 
d="M502 -24q-135 0 -239.5 55.5t-164 153t-59.5 223.5t59.5 224.5t164 155.5t239.5 57t238 -57t161 -155.5t58 -224.5t-58 -223.5t-161 -153t-238 -55.5zM502 226q52 0 90 23t59 65t21 95q0 54 -21 96t-59 66t-90 24t-90.5 -24t-60 -66t-21.5 -96q0 -53 21.5 -95t60 -65
t90.5 -23zM467 864l-73 113q22 7 57.5 25.5t63.5 47.5t28 66t-15 53.5t-40 21.5t-56 5q-43 0 -87 -15t-74 -31v155q18 12 64.5 30t135.5 18q64 0 122.5 -20.5t95.5 -67t37 -125.5q0 -63 -28.5 -110.5t-71 -81t-86 -53.5t-73.5 -31z" />
    <glyph glyph-name="uni1ED0" unicode="&#x1ed0;" horiz-adv-x="1484" 
d="M352 661q0 -113 46.5 -204.5t129 -145.5t191.5 -54t191.5 54t129 145.5t46.5 204.5t-46.5 204t-129 145.5t-191.5 54.5t-191.5 -54.5t-129 -145.5t-46.5 -204zM41 661q0 144 51 268.5t143 217.5t216 145t268 52q146 0 269.5 -52t215 -145t142 -217.5t50.5 -268.5
q0 -145 -49 -269.5t-140 -218t-215 -145.5t-273 -52q-152 0 -276.5 52t-214.5 145.5t-138.5 218t-48.5 269.5zM964 1386l-244 178l-244 -178l-109 144l353 258l353 -258zM974 1680l-89 122l325 281l144 -182z" />
    <glyph glyph-name="uni1ED1" unicode="&#x1ed1;" horiz-adv-x="1033" 
d="M502 -24q-135 0 -239.5 55.5t-164 153t-59.5 223.5t59.5 224.5t164 155.5t239.5 57t238 -57t161 -155.5t58 -224.5t-58 -223.5t-161 -153t-238 -55.5zM502 226q52 0 90 23t59 65t21 95q0 54 -21 96t-59 66t-90 24t-90.5 -24t-60 -66t-21.5 -96q0 -53 21.5 -95t60 -65
t90.5 -23zM744 887l-244 178l-244 -178l-109 144l353 258l353 -258zM754 1181l-89 122l325 281l144 -182z" />
    <glyph glyph-name="uni1ED2" unicode="&#x1ed2;" horiz-adv-x="1484" 
d="M352 661q0 -113 46.5 -204.5t129 -145.5t191.5 -54t191.5 54t129 145.5t46.5 204.5t-46.5 204t-129 145.5t-191.5 54.5t-191.5 -54.5t-129 -145.5t-46.5 -204zM41 661q0 144 51 268.5t143 217.5t216 145t268 52q146 0 269.5 -52t215 -145t142 -217.5t50.5 -268.5
q0 -145 -49 -269.5t-140 -218t-215 -145.5t-273 -52q-152 0 -276.5 52t-214.5 145.5t-138.5 218t-48.5 269.5zM965 1389l-244 179l-244 -178l-109 144l353 258l353 -258zM1131 1663l-380 221l144 182l325 -280z" />
    <glyph glyph-name="uni1ED3" unicode="&#x1ed3;" horiz-adv-x="1033" 
d="M502 -24q-135 0 -239.5 55.5t-164 153t-59.5 223.5t59.5 224.5t164 155.5t239.5 57t238 -57t161 -155.5t58 -224.5t-58 -223.5t-161 -153t-238 -55.5zM502 226q52 0 90 23t59 65t21 95q0 54 -21 96t-59 66t-90 24t-90.5 -24t-60 -66t-21.5 -96q0 -53 21.5 -95t60 -65
t90.5 -23zM745 890l-244 179l-244 -178l-109 144l353 258l353 -258zM911 1164l-380 221l144 182l325 -280z" />
    <glyph glyph-name="uni1ED4" unicode="&#x1ed4;" horiz-adv-x="1484" 
d="M352 661q0 -113 46.5 -204.5t129 -145.5t191.5 -54t191.5 54t129 145.5t46.5 204.5t-46.5 204t-129 145.5t-191.5 54.5t-191.5 -54.5t-129 -145.5t-46.5 -204zM41 661q0 144 51 268.5t143 217.5t216 145t268 52q146 0 269.5 -52t215 -145t142 -217.5t50.5 -268.5
q0 -145 -49 -269.5t-140 -218t-215 -145.5t-273 -52q-152 0 -276.5 52t-214.5 145.5t-138.5 218t-48.5 269.5zM920 1703l-73 114q22 6 57.5 24.5t63.5 47.5t28 66t-15 54t-40 22t-56 5q-43 0 -87 -15.5t-74 -30.5v154q18 12 64.5 30t135.5 18q64 0 122.5 -20.5t95.5 -67
t37 -125.5q0 -63 -28.5 -110t-71 -80.5t-86 -54t-73.5 -31.5zM966 1386l-244 178l-244 -178l-109 144l353 258l353 -258z" />
    <glyph glyph-name="uni1ED5" unicode="&#x1ed5;" horiz-adv-x="1033" 
d="M502 -24q-135 0 -239.5 55.5t-164 153t-59.5 223.5t59.5 224.5t164 155.5t239.5 57t238 -57t161 -155.5t58 -224.5t-58 -223.5t-161 -153t-238 -55.5zM502 226q52 0 90 23t59 65t21 95q0 54 -21 96t-59 66t-90 24t-90.5 -24t-60 -66t-21.5 -96q0 -53 21.5 -95t60 -65
t90.5 -23zM700 1204l-73 114q22 6 57.5 24.5t63.5 47.5t28 66t-15 54t-40 22t-56 5q-43 0 -87 -15.5t-74 -30.5v154q18 12 64.5 30t135.5 18q64 0 122.5 -20.5t95.5 -67t37 -125.5q0 -63 -28.5 -110t-71 -80.5t-86 -54t-73.5 -31.5zM746 887l-244 178l-244 -178l-109 144
l353 258l353 -258z" />
    <glyph glyph-name="uni1ED6" unicode="&#x1ed6;" horiz-adv-x="1484" 
d="M352 661q0 -113 46.5 -204.5t129 -145.5t191.5 -54t191.5 54t129 145.5t46.5 204.5t-46.5 204t-129 145.5t-191.5 54.5t-191.5 -54.5t-129 -145.5t-46.5 -204zM41 661q0 144 51 268.5t143 217.5t216 145t268 52q146 0 269.5 -52t215 -145t142 -217.5t50.5 -268.5
q0 -145 -49 -269.5t-140 -218t-215 -145.5t-273 -52q-152 0 -276.5 52t-214.5 145.5t-138.5 218t-48.5 269.5zM360 1818q9 58 36.5 121.5t72.5 107.5t109 44q63 0 111 -18.5t89.5 -37t86.5 -18.5q29 0 47.5 25.5t24.5 48.5h162q-10 -59 -37 -122t-72 -107t-109 -44
q-63 0 -111 18.5t-90 36.5t-87 18q-28 0 -46.5 -25t-25.5 -48h-161zM961 1386l-244 178l-244 -178l-109 144l353 258l353 -258z" />
    <glyph glyph-name="uni1ED7" unicode="&#x1ed7;" horiz-adv-x="1033" 
d="M502 -24q-135 0 -239.5 55.5t-164 153t-59.5 223.5t59.5 224.5t164 155.5t239.5 57t238 -57t161 -155.5t58 -224.5t-58 -223.5t-161 -153t-238 -55.5zM502 226q52 0 90 23t59 65t21 95q0 54 -21 96t-59 66t-90 24t-90.5 -24t-60 -66t-21.5 -96q0 -53 21.5 -95t60 -65
t90.5 -23zM141 1319q9 58 36.5 121.5t72.5 107.5t109 44q63 0 111 -18.5t89.5 -37t86.5 -18.5q29 0 47.5 25.5t24.5 48.5h162q-10 -59 -37 -122t-72 -107t-109 -44q-63 0 -111 18.5t-90 36.5t-87 18q-28 0 -46.5 -25t-25.5 -48h-161zM742 887l-244 178l-244 -178l-109 144
l353 258l353 -258z" />
    <glyph glyph-name="uni1ED8" unicode="&#x1ed8;" horiz-adv-x="1484" 
d="M352 661q0 -113 46.5 -204.5t129 -145.5t191.5 -54t191.5 54t129 145.5t46.5 204.5t-46.5 204t-129 145.5t-191.5 54.5t-191.5 -54.5t-129 -145.5t-46.5 -204zM41 661q0 144 51 268.5t143 217.5t216 145t268 52q146 0 269.5 -52t215 -145t142 -217.5t50.5 -268.5
q0 -145 -49 -269.5t-140 -218t-215 -145.5t-273 -52q-152 0 -276.5 52t-214.5 145.5t-138.5 218t-48.5 269.5zM718 -386q-48 0 -81.5 34t-33.5 81t33.5 81.5t81.5 34.5q47 0 81 -34.5t34 -81.5q0 -48 -34 -81.5t-81 -33.5zM474 1397l-109 145l353 258l352 -259l-108 -144
l-244 179z" />
    <glyph glyph-name="uni1ED9" unicode="&#x1ed9;" horiz-adv-x="1033" 
d="M502 -24q-135 0 -239.5 55.5t-164 153t-59.5 223.5t59.5 224.5t164 155.5t239.5 57t238 -57t161 -155.5t58 -224.5t-58 -223.5t-161 -153t-238 -55.5zM502 226q52 0 90 23t59 65t21 95q0 54 -21 96t-59 66t-90 24t-90.5 -24t-60 -66t-21.5 -96q0 -53 21.5 -95t60 -65
t90.5 -23zM499 -469q-49 0 -82.5 34t-33.5 81t33.5 81.5t82.5 34.5q47 0 80.5 -34.5t33.5 -81.5t-33.5 -81t-80.5 -34zM743 889l-244 179l-244 -178l-109 144l353 258l353 -258z" />
    <glyph glyph-name="uni1EDA" unicode="&#x1eda;" horiz-adv-x="1484" 
d="M352 661q0 -113 46.5 -204.5t129 -145.5t191.5 -54t191.5 54t129 145.5t46.5 204.5t-46.5 204t-129 145.5t-191.5 54.5t-191.5 -54.5t-129 -145.5t-46.5 -204zM41 661q0 144 51 268.5t143 217.5t216 145t268 52q146 0 269.5 -52t215 -145t142 -217.5t50.5 -268.5
q0 -145 -49 -269.5t-140 -218t-215 -145.5t-273 -52q-152 0 -276.5 52t-214.5 145.5t-138.5 218t-48.5 269.5zM1228 1023q-34 0 -59 8t-48 21v147q15 -13 35.5 -21t50.5 -8q50 0 77 38.5t27 86.5q0 43 -6 70t-18 55h192q8 -14 20.5 -49.5t12.5 -96.5q0 -73 -40 -130
t-104.5 -89t-139.5 -32zM590 1411l-89 123l325 280l144 -181z" />
    <glyph glyph-name="uni1EDB" unicode="&#x1edb;" horiz-adv-x="1033" 
d="M502 -24q-135 0 -239.5 55.5t-164 153t-59.5 223.5t59.5 224.5t164 155.5t239.5 57t238 -57t161 -155.5t58 -224.5t-58 -223.5t-161 -153t-238 -55.5zM502 226q52 0 90 23t59 65t21 95q0 54 -21 96t-59 66t-90 24t-90.5 -24t-60 -66t-21.5 -96q0 -53 21.5 -95t60 -65
t90.5 -23zM835 612q-34 0 -59 7.5t-48 20.5v147q15 -13 35.5 -21t50.5 -8q50 0 77 38.5t27 86.5q0 43 -6 70t-18 55h192q8 -13 20.5 -49t12.5 -96q0 -74 -40 -130.5t-104.5 -88.5t-139.5 -32zM370 912l-89 123l325 280l144 -181z" />
    <glyph glyph-name="uni1EDC" unicode="&#x1edc;" horiz-adv-x="1484" 
d="M352 661q0 -113 46.5 -204.5t129 -145.5t191.5 -54t191.5 54t129 145.5t46.5 204.5t-46.5 204t-129 145.5t-191.5 54.5t-191.5 -54.5t-129 -145.5t-46.5 -204zM41 661q0 144 51 268.5t143 217.5t216 145t268 52q146 0 269.5 -52t215 -145t142 -217.5t50.5 -268.5
q0 -145 -49 -269.5t-140 -218t-215 -145.5t-273 -52q-152 0 -276.5 52t-214.5 145.5t-138.5 218t-48.5 269.5zM1228 1023q-34 0 -59 8t-48 21v147q15 -13 35.5 -21t50.5 -8q50 0 77 38.5t27 86.5q0 43 -6 70t-18 55h192q8 -14 20.5 -49.5t12.5 -96.5q0 -73 -40 -130
t-104.5 -89t-139.5 -32zM881 1439l-380 221l144 182l326 -280z" />
    <glyph glyph-name="uni1EDD" unicode="&#x1edd;" horiz-adv-x="1033" 
d="M502 -24q-135 0 -239.5 55.5t-164 153t-59.5 223.5t59.5 224.5t164 155.5t239.5 57t238 -57t161 -155.5t58 -224.5t-58 -223.5t-161 -153t-238 -55.5zM502 226q52 0 90 23t59 65t21 95q0 54 -21 96t-59 66t-90 24t-90.5 -24t-60 -66t-21.5 -96q0 -53 21.5 -95t60 -65
t90.5 -23zM835 612q-34 0 -59 7.5t-48 20.5v147q15 -13 35.5 -21t50.5 -8q50 0 77 38.5t27 86.5q0 43 -6 70t-18 55h192q8 -13 20.5 -49t12.5 -96q0 -74 -40 -130.5t-104.5 -88.5t-139.5 -32zM661 940l-380 221l144 182l326 -280z" />
    <glyph glyph-name="uni1EDE" unicode="&#x1ede;" horiz-adv-x="1484" 
d="M352 661q0 -113 46.5 -204.5t129 -145.5t191.5 -54t191.5 54t129 145.5t46.5 204.5t-46.5 204t-129 145.5t-191.5 54.5t-191.5 -54.5t-129 -145.5t-46.5 -204zM41 661q0 144 51 268.5t143 217.5t216 145t268 52q146 0 269.5 -52t215 -145t142 -217.5t50.5 -268.5
q0 -145 -49 -269.5t-140 -218t-215 -145.5t-273 -52q-152 0 -276.5 52t-214.5 145.5t-138.5 218t-48.5 269.5zM1228 1023q-34 0 -59 8t-48 21v147q15 -13 35.5 -21t50.5 -8q50 0 77 38.5t27 86.5q0 43 -6 70t-18 55h192q8 -14 20.5 -49.5t12.5 -96.5q0 -73 -40 -130
t-104.5 -89t-139.5 -32zM687 1363l-73 113q22 7 57.5 25.5t63.5 47.5t28 66t-15 53.5t-40 21.5t-56 5q-43 0 -87 -15t-74 -31v155q18 12 64.5 30t135.5 18q64 0 122.5 -20.5t95.5 -67t37 -125.5q0 -63 -28.5 -110.5t-71 -81t-86 -53.5t-73.5 -31z" />
    <glyph glyph-name="uni1EDF" unicode="&#x1edf;" horiz-adv-x="1033" 
d="M502 -24q-135 0 -239.5 55.5t-164 153t-59.5 223.5t59.5 224.5t164 155.5t239.5 57t238 -57t161 -155.5t58 -224.5t-58 -223.5t-161 -153t-238 -55.5zM502 226q52 0 90 23t59 65t21 95q0 54 -21 96t-59 66t-90 24t-90.5 -24t-60 -66t-21.5 -96q0 -53 21.5 -95t60 -65
t90.5 -23zM835 612q-34 0 -59 7.5t-48 20.5v147q15 -13 35.5 -21t50.5 -8q50 0 77 38.5t27 86.5q0 43 -6 70t-18 55h192q8 -13 20.5 -49t12.5 -96q0 -74 -40 -130.5t-104.5 -88.5t-139.5 -32zM467 864l-73 113q22 7 57.5 25.5t63.5 47.5t28 66t-15 53.5t-40 21.5t-56 5
q-43 0 -87 -15t-74 -31v155q18 12 64.5 30t135.5 18q64 0 122.5 -20.5t95.5 -67t37 -125.5q0 -63 -28.5 -110.5t-71 -81t-86 -53.5t-73.5 -31z" />
    <glyph glyph-name="uni1EE0" unicode="&#x1ee0;" horiz-adv-x="1484" 
d="M352 661q0 -113 46.5 -204.5t129 -145.5t191.5 -54t191.5 54t129 145.5t46.5 204.5t-46.5 204t-129 145.5t-191.5 54.5t-191.5 -54.5t-129 -145.5t-46.5 -204zM41 661q0 144 51 268.5t143 217.5t216 145t268 52q146 0 269.5 -52t215 -145t142 -217.5t50.5 -268.5
q0 -145 -49 -269.5t-140 -218t-215 -145.5t-273 -52q-152 0 -276.5 52t-214.5 145.5t-138.5 218t-48.5 269.5zM1228 1023q-34 0 -59 8t-48 21v147q15 -13 35.5 -21t50.5 -8q50 0 77 38.5t27 86.5q0 43 -6 70t-18 55h192q8 -14 20.5 -49.5t12.5 -96.5q0 -73 -40 -130
t-104.5 -89t-139.5 -32zM365 1479q10 59 37 122t72.5 107t108.5 44t111 -18.5t90 -37t86 -18.5q29 0 47.5 25.5t25.5 48.5h161q-9 -59 -36.5 -122t-72.5 -107t-109 -44q-62 0 -110 18.5t-90.5 36.5t-86.5 18q-28 0 -46.5 -25t-25.5 -48h-162z" />
    <glyph glyph-name="uni1EE1" unicode="&#x1ee1;" horiz-adv-x="1033" 
d="M502 -24q-135 0 -239.5 55.5t-164 153t-59.5 223.5t59.5 224.5t164 155.5t239.5 57t238 -57t161 -155.5t58 -224.5t-58 -223.5t-161 -153t-238 -55.5zM502 226q52 0 90 23t59 65t21 95q0 54 -21 96t-59 66t-90 24t-90.5 -24t-60 -66t-21.5 -96q0 -53 21.5 -95t60 -65
t90.5 -23zM835 612q-34 0 -59 7.5t-48 20.5v147q15 -13 35.5 -21t50.5 -8q50 0 77 38.5t27 86.5q0 43 -6 70t-18 55h192q8 -13 20.5 -49t12.5 -96q0 -74 -40 -130.5t-104.5 -88.5t-139.5 -32zM145 980q10 59 37 122t72.5 107t108.5 44t111 -18.5t90 -37t86 -18.5
q29 0 47.5 25.5t25.5 48.5h161q-9 -59 -36.5 -122t-72.5 -107t-109 -44q-62 0 -110 18.5t-90.5 36.5t-86.5 18q-28 0 -46.5 -25t-25.5 -48h-162z" />
    <glyph glyph-name="uni1EE2" unicode="&#x1ee2;" horiz-adv-x="1484" 
d="M352 661q0 -113 46.5 -204.5t129 -145.5t191.5 -54t191.5 54t129 145.5t46.5 204.5t-46.5 204t-129 145.5t-191.5 54.5t-191.5 -54.5t-129 -145.5t-46.5 -204zM41 661q0 144 51 268.5t143 217.5t216 145t268 52q146 0 269.5 -52t215 -145t142 -217.5t50.5 -268.5
q0 -145 -49 -269.5t-140 -218t-215 -145.5t-273 -52q-152 0 -276.5 52t-214.5 145.5t-138.5 218t-48.5 269.5zM1228 1023q-34 0 -59 8t-48 21v147q15 -13 35.5 -21t50.5 -8q50 0 77 38.5t27 86.5q0 43 -6 70t-18 55h192q8 -14 20.5 -49.5t12.5 -96.5q0 -73 -40 -130
t-104.5 -89t-139.5 -32zM719 -373q-49 0 -82.5 34t-33.5 81t33.5 81.5t82.5 34.5q47 0 80.5 -34.5t33.5 -81.5t-33.5 -81t-80.5 -34z" />
    <glyph glyph-name="uni1EE3" unicode="&#x1ee3;" horiz-adv-x="1033" 
d="M502 -24q-135 0 -239.5 55.5t-164 153t-59.5 223.5t59.5 224.5t164 155.5t239.5 57t238 -57t161 -155.5t58 -224.5t-58 -223.5t-161 -153t-238 -55.5zM502 226q52 0 90 23t59 65t21 95q0 54 -21 96t-59 66t-90 24t-90.5 -24t-60 -66t-21.5 -96q0 -53 21.5 -95t60 -65
t90.5 -23zM835 612q-34 0 -59 7.5t-48 20.5v147q15 -13 35.5 -21t50.5 -8q50 0 77 38.5t27 86.5q0 43 -6 70t-18 55h192q8 -13 20.5 -49t12.5 -96q0 -74 -40 -130.5t-104.5 -88.5t-139.5 -32zM499 -469q-49 0 -82.5 34t-33.5 81t33.5 81.5t82.5 34.5q47 0 80.5 -34.5
t33.5 -81.5t-33.5 -81t-80.5 -34z" />
    <glyph glyph-name="uni1EE4" unicode="&#x1ee4;" horiz-adv-x="1273" 
d="M846 1320h299v-811q0 -163 -64 -282.5t-183 -185t-284 -65.5q-166 0 -286 65.5t-183.5 185t-63.5 282.5v811h298v-795q0 -90 28.5 -152t81.5 -93.5t125 -31.5q71 0 123 31.5t80.5 93.5t28.5 152v795zM613 -319q-48 0 -81.5 34t-33.5 81t33.5 81.5t81.5 34.5
q47 0 81 -34.5t34 -81.5q0 -48 -34 -81.5t-81 -33.5z" />
    <glyph glyph-name="uni1EE5" unicode="&#x1ee5;" horiz-adv-x="1096" 
d="M372 441q0 -98 37 -156.5t124 -58.5q89 0 125.5 58.5t36.5 156.5v380h300v-412q0 -132 -54.5 -229.5t-157.5 -150.5t-250 -53q-146 0 -249 53t-157 150.5t-54 229.5v412h299v-380zM533 -306q-49 0 -82.5 34t-33.5 81t33.5 81.5t82.5 34.5q47 0 80.5 -34.5t33.5 -81.5
t-33.5 -81t-80.5 -34z" />
    <glyph glyph-name="uni1EE6" unicode="&#x1ee6;" horiz-adv-x="1273" 
d="M846 1320h299v-811q0 -163 -64 -282.5t-183 -185t-284 -65.5q-166 0 -286 65.5t-183.5 185t-63.5 282.5v811h298v-795q0 -90 28.5 -152t81.5 -93.5t125 -31.5q71 0 123 31.5t80.5 93.5t28.5 152v795zM582 1390l-73 97q22 5 57.5 20.5t63.5 40.5t28 55q0 32 -15 47.5
t-40 19.5t-56 4q-43 0 -87 -14t-74 -27v132q18 11 64.5 26.5t135.5 15.5q64 0 122.5 -17.5t95.5 -57.5t37 -109q0 -53 -28.5 -93t-71 -68t-86 -45.5t-73.5 -26.5z" />
    <glyph glyph-name="uni1EE7" unicode="&#x1ee7;" horiz-adv-x="1096" 
d="M372 441q0 -98 37 -156.5t124 -58.5q89 0 125.5 58.5t36.5 156.5v380h300v-412q0 -132 -54.5 -229.5t-157.5 -150.5t-250 -53q-146 0 -249 53t-157 150.5t-54 229.5v412h299v-380zM501 864l-73 113q22 7 57.5 25.5t63.5 47.5t28 66t-15 53.5t-40 21.5t-56 5
q-43 0 -87 -15t-74 -31v155q18 12 64.5 30t135.5 18q64 0 122.5 -20.5t95.5 -67t37 -125.5q0 -63 -28.5 -110.5t-71 -81t-86 -53.5t-73.5 -31z" />
    <glyph glyph-name="uni1EE8" unicode="&#x1ee8;" horiz-adv-x="1533" 
d="M846 1320h299v-811q0 -163 -64 -282.5t-183 -185t-284 -65.5q-166 0 -286 65.5t-183.5 185t-63.5 282.5v811h298v-795q0 -90 28.5 -152t81.5 -93.5t125 -31.5q71 0 123 31.5t80.5 93.5t28.5 152v795zM1252 1145q-34 0 -59 7.5t-48 20.5v147q15 -13 35.5 -21t50.5 -8
q50 0 77 38.5t27 86.5q0 43 -6 70t-18 55h192q8 -13 20.5 -49t12.5 -96q0 -74 -40 -130.5t-104.5 -88.5t-139.5 -32zM484 1411l-89 123l325 280l144 -181z" />
    <glyph glyph-name="uni1EE9" unicode="&#x1ee9;" horiz-adv-x="1383" 
d="M372 441q0 -98 37 -156.5t124 -58.5q89 0 125.5 58.5t36.5 156.5v380h300v-412q0 -132 -54.5 -229.5t-157.5 -150.5t-250 -53q-146 0 -249 53t-157 150.5t-54 229.5v412h299v-380zM1102 646q-34 0 -59 7.5t-48 20.5v147q15 -13 35.5 -21t50.5 -8q50 0 77 38.5t27 86.5
q0 43 -6 70t-18 55h192q8 -13 20.5 -49t12.5 -96q0 -74 -40 -130.5t-104.5 -88.5t-139.5 -32zM404 912l-89 123l325 280l144 -181z" />
    <glyph glyph-name="uni1EEA" unicode="&#x1eea;" horiz-adv-x="1533" 
d="M846 1320h299v-811q0 -163 -64 -282.5t-183 -185t-284 -65.5q-166 0 -286 65.5t-183.5 185t-63.5 282.5v811h298v-795q0 -90 28.5 -152t81.5 -93.5t125 -31.5q71 0 123 31.5t80.5 93.5t28.5 152v795zM1252 1145q-34 0 -59 7.5t-48 20.5v147q15 -13 35.5 -21t50.5 -8
q50 0 77 38.5t27 86.5q0 43 -6 70t-18 55h192q8 -13 20.5 -49t12.5 -96q0 -74 -40 -130.5t-104.5 -88.5t-139.5 -32zM775 1439l-380 221l144 182l326 -280z" />
    <glyph glyph-name="uni1EEB" unicode="&#x1eeb;" horiz-adv-x="1383" 
d="M372 441q0 -98 37 -156.5t124 -58.5q89 0 125.5 58.5t36.5 156.5v380h300v-412q0 -132 -54.5 -229.5t-157.5 -150.5t-250 -53q-146 0 -249 53t-157 150.5t-54 229.5v412h299v-380zM1102 646q-34 0 -59 7.5t-48 20.5v147q15 -13 35.5 -21t50.5 -8q50 0 77 38.5t27 86.5
q0 43 -6 70t-18 55h192q8 -13 20.5 -49t12.5 -96q0 -74 -40 -130.5t-104.5 -88.5t-139.5 -32zM695 940l-380 221l144 182l326 -280z" />
    <glyph glyph-name="uni1EEC" unicode="&#x1eec;" horiz-adv-x="1533" 
d="M846 1320h299v-811q0 -163 -64 -282.5t-183 -185t-284 -65.5q-166 0 -286 65.5t-183.5 185t-63.5 282.5v811h298v-795q0 -90 28.5 -152t81.5 -93.5t125 -31.5q71 0 123 31.5t80.5 93.5t28.5 152v795zM1252 1145q-34 0 -59 7.5t-48 20.5v147q15 -13 35.5 -21t50.5 -8
q50 0 77 38.5t27 86.5q0 43 -6 70t-18 55h192q8 -13 20.5 -49t12.5 -96q0 -74 -40 -130.5t-104.5 -88.5t-139.5 -32zM582 1363l-73 113q22 7 57.5 25.5t63.5 47.5t28 66t-15 53.5t-40 21.5t-56 5q-43 0 -87 -15t-74 -31v155q18 12 64.5 30t135.5 18q64 0 122.5 -20.5
t95.5 -67t37 -125.5q0 -63 -28.5 -110.5t-71 -81t-86 -53.5t-73.5 -31z" />
    <glyph glyph-name="uni1EED" unicode="&#x1eed;" horiz-adv-x="1383" 
d="M372 441q0 -98 37 -156.5t124 -58.5q89 0 125.5 58.5t36.5 156.5v380h300v-412q0 -132 -54.5 -229.5t-157.5 -150.5t-250 -53q-146 0 -249 53t-157 150.5t-54 229.5v412h299v-380zM1102 646q-34 0 -59 7.5t-48 20.5v147q15 -13 35.5 -21t50.5 -8q50 0 77 38.5t27 86.5
q0 43 -6 70t-18 55h192q8 -13 20.5 -49t12.5 -96q0 -74 -40 -130.5t-104.5 -88.5t-139.5 -32zM501 864l-73 113q22 7 57.5 25.5t63.5 47.5t28 66t-15 53.5t-40 21.5t-56 5q-43 0 -87 -15t-74 -31v155q18 12 64.5 30t135.5 18q64 0 122.5 -20.5t95.5 -67t37 -125.5
q0 -63 -28.5 -110.5t-71 -81t-86 -53.5t-73.5 -31z" />
    <glyph glyph-name="uni1EEE" unicode="&#x1eee;" horiz-adv-x="1533" 
d="M846 1320h299v-811q0 -163 -64 -282.5t-183 -185t-284 -65.5q-166 0 -286 65.5t-183.5 185t-63.5 282.5v811h298v-795q0 -90 28.5 -152t81.5 -93.5t125 -31.5q71 0 123 31.5t80.5 93.5t28.5 152v795zM1252 1145q-34 0 -59 7.5t-48 20.5v147q15 -13 35.5 -21t50.5 -8
q50 0 77 38.5t27 86.5q0 43 -6 70t-18 55h192q8 -13 20.5 -49t12.5 -96q0 -74 -40 -130.5t-104.5 -88.5t-139.5 -32zM259 1479q10 59 37 122t72.5 107t108.5 44t111 -18.5t90 -37t86 -18.5q29 0 47.5 25.5t25.5 48.5h161q-9 -59 -36.5 -122t-72.5 -107t-109 -44
q-62 0 -110 18.5t-90.5 36.5t-86.5 18q-28 0 -46.5 -25t-25.5 -48h-162z" />
    <glyph glyph-name="uni1EEF" unicode="&#x1eef;" horiz-adv-x="1383" 
d="M372 441q0 -98 37 -156.5t124 -58.5q89 0 125.5 58.5t36.5 156.5v380h300v-412q0 -132 -54.5 -229.5t-157.5 -150.5t-250 -53q-146 0 -249 53t-157 150.5t-54 229.5v412h299v-380zM1102 646q-34 0 -59 7.5t-48 20.5v147q15 -13 35.5 -21t50.5 -8q50 0 77 38.5t27 86.5
q0 43 -6 70t-18 55h192q8 -13 20.5 -49t12.5 -96q0 -74 -40 -130.5t-104.5 -88.5t-139.5 -32zM179 980q10 59 37 122t72.5 107t108.5 44t111 -18.5t90 -37t86 -18.5q29 0 47.5 25.5t25.5 48.5h161q-9 -59 -36.5 -122t-72.5 -107t-109 -44q-62 0 -110 18.5t-90.5 36.5
t-86.5 18q-28 0 -46.5 -25t-25.5 -48h-162z" />
    <glyph glyph-name="uni1EF0" unicode="&#x1ef0;" horiz-adv-x="1533" 
d="M846 1320h299v-811q0 -163 -64 -282.5t-183 -185t-284 -65.5q-166 0 -286 65.5t-183.5 185t-63.5 282.5v811h298v-795q0 -90 28.5 -152t81.5 -93.5t125 -31.5q71 0 123 31.5t80.5 93.5t28.5 152v795zM1252 1145q-34 0 -59 7.5t-48 20.5v147q15 -13 35.5 -21t50.5 -8
q50 0 77 38.5t27 86.5q0 43 -6 70t-18 55h192q8 -13 20.5 -49t12.5 -96q0 -74 -40 -130.5t-104.5 -88.5t-139.5 -32zM614 -306q-49 0 -82.5 34t-33.5 81t33.5 81.5t82.5 34.5q47 0 80.5 -34.5t33.5 -81.5t-33.5 -81t-80.5 -34z" />
    <glyph glyph-name="uni1EF1" unicode="&#x1ef1;" horiz-adv-x="1383" 
d="M372 441q0 -98 37 -156.5t124 -58.5q89 0 125.5 58.5t36.5 156.5v380h300v-412q0 -132 -54.5 -229.5t-157.5 -150.5t-250 -53q-146 0 -249 53t-157 150.5t-54 229.5v412h299v-380zM1102 646q-34 0 -59 7.5t-48 20.5v147q15 -13 35.5 -21t50.5 -8q50 0 77 38.5t27 86.5
q0 43 -6 70t-18 55h192q8 -13 20.5 -49t12.5 -96q0 -74 -40 -130.5t-104.5 -88.5t-139.5 -32zM533 -306q-49 0 -82.5 34t-33.5 81t33.5 81.5t82.5 34.5q47 0 80.5 -34.5t33.5 -81.5t-33.5 -81t-80.5 -34z" />
    <glyph glyph-name="Ygrave" unicode="&#x1ef2;" horiz-adv-x="1201" 
d="M420 475l-455 845h363l241 -503l242 503h361l-453 -845v-475h-299v475zM634 1376l-380 221l145 182l325 -281z" />
    <glyph glyph-name="ygrave" unicode="&#x1ef3;" horiz-adv-x="1029" 
d="M498 263l222 558h298l-564 -1237h-304l190 416l-343 821h303zM662 940l-380 221l144 182l326 -280z" />
    <glyph glyph-name="uni1EF4" unicode="&#x1ef4;" horiz-adv-x="1201" 
d="M420 475l-455 845h363l241 -503l242 503h361l-453 -845v-475h-299v475zM569 -319q-48 0 -81.5 34t-33.5 81t33.5 81.5t81.5 34.5q47 0 81 -34.5t34 -81.5q0 -48 -34 -81.5t-81 -33.5z" />
    <glyph glyph-name="uni1EF5" unicode="&#x1ef5;" horiz-adv-x="1029" 
d="M498 263l222 558h298l-564 -1237h-304l190 416l-343 821h303zM799 -306q-49 0 -82.5 34t-33.5 81t33.5 81.5t82.5 34.5q47 0 80.5 -34.5t33.5 -81.5t-33.5 -81t-80.5 -34z" />
    <glyph glyph-name="uni1EF6" unicode="&#x1ef6;" horiz-adv-x="1201" 
d="M420 475l-455 845h363l241 -503l242 503h361l-453 -845v-475h-299v475zM537 1390l-73 97q22 5 57.5 20.5t63.5 40.5t28 55q0 32 -15 47.5t-40 19.5t-56 4q-43 0 -87 -14t-74 -27v132q18 11 64.5 26.5t135.5 15.5q64 0 122.5 -17.5t95.5 -57.5t37 -109q0 -53 -28.5 -93
t-71 -68t-86 -45.5t-73.5 -26.5z" />
    <glyph glyph-name="uni1EF7" unicode="&#x1ef7;" horiz-adv-x="1029" 
d="M498 263l222 558h298l-564 -1237h-304l190 416l-343 821h303zM468 864l-73 113q22 7 57.5 25.5t63.5 47.5t28 66t-15 53.5t-40 21.5t-56 5q-43 0 -87 -15t-74 -31v155q18 12 64.5 30t135.5 18q64 0 122.5 -20.5t95.5 -67t37 -125.5q0 -63 -28.5 -110.5t-71 -81t-86 -53.5
t-73.5 -31z" />
    <glyph glyph-name="uni1EF8" unicode="&#x1ef8;" horiz-adv-x="1201" 
d="M420 475l-455 845h363l241 -503l242 503h361l-453 -845v-475h-299v475zM200 1409q9 59 36.5 122t72.5 107t109 44q63 0 111 -18.5t89.5 -37t86.5 -18.5q29 0 47.5 25.5t24.5 48.5h162q-10 -58 -37 -121.5t-72 -107.5t-109 -44q-63 0 -111 18.5t-90 37t-87 18.5
q-28 0 -46.5 -25t-25.5 -49h-161z" />
    <glyph glyph-name="uni1EF9" unicode="&#x1ef9;" horiz-adv-x="1029" 
d="M498 263l222 558h298l-564 -1237h-304l190 416l-343 821h303zM146 980q10 59 37 122t72.5 107t108.5 44t111 -18.5t90 -37t86 -18.5q29 0 47.5 25.5t25.5 48.5h161q-9 -59 -36.5 -122t-72.5 -107t-109 -44q-62 0 -110 18.5t-90.5 36.5t-86.5 18q-28 0 -46.5 -25
t-25.5 -48h-162z" />
    <glyph glyph-name="endash" unicode="&#x2013;" horiz-adv-x="891" 
d="M0 326v258h863v-258h-863z" />
    <glyph glyph-name="emdash" unicode="&#x2014;" horiz-adv-x="1716" 
d="M-19 326v258h1725v-258h-1725z" />
    <glyph glyph-name="quoteleft" unicode="&#x2018;" horiz-adv-x="484" 
d="M255 764q-79 0 -131.5 55t-52.5 162q0 92 35.5 163.5t92 123t118.5 79.5l72 -63q-23 -10 -62.5 -39.5t-71.5 -70.5t-32 -86q10 11 33 16.5t46 5.5q50 0 93.5 -38t43.5 -119q0 -87 -53 -138t-131 -51z" />
    <glyph glyph-name="quoteright" unicode="&#x2019;" horiz-adv-x="484" 
d="M149 766l-72 63q24 11 63.5 40.5t71 70t32.5 85.5q-10 -10 -33 -16t-47 -6q-49 0 -92.5 38.5t-43.5 119.5q0 87 53 138t130 51q79 0 131.5 -55.5t52.5 -162.5q0 -92 -35.5 -164t-91 -122.5t-119.5 -79.5z" />
    <glyph glyph-name="quotesinglbase" unicode="&#x201a;" horiz-adv-x="493" 
d="M259 340q76 0 129.5 -52.5t53.5 -153.5q0 -89 -37 -174t-98 -153t-133 -107l-80 90q34 18 74 49t73.5 71t46.5 85q-19 -11 -55 -11q-61 0 -108.5 47t-47.5 127q0 51 24.5 92.5t66 65.5t91.5 24z" />
    <glyph glyph-name="quotedblleft" unicode="&#x201c;" horiz-adv-x="1037" 
d="M759 764q-79 0 -131.5 55t-52.5 162q0 92 35.5 163.5t92 123t118.5 79.5l72 -63q-23 -10 -62.5 -39.5t-71.5 -70.5t-32 -86q10 11 33 16.5t46 5.5q50 0 93.5 -38t43.5 -119q0 -87 -53 -138t-131 -51zM303 764q-79 0 -131.5 55t-52.5 162q0 92 35.5 163.5t92 123
t118.5 79.5l72 -63q-23 -10 -62.5 -39.5t-71.5 -70.5t-32 -86q10 11 33 16.5t46 5.5q50 0 93.5 -38t43.5 -119q0 -87 -53 -138t-131 -51z" />
    <glyph glyph-name="quotedblright" unicode="&#x201d;" horiz-adv-x="1037" 
d="M652 762l-71 63q23 10 62.5 39.5t71.5 70.5t32 86q-9 -10 -32.5 -16t-47.5 -6q-49 0 -92.5 38.5t-43.5 118.5q0 88 53 138.5t130 50.5q79 0 131.5 -55t52.5 -162q0 -92 -35.5 -164t-91 -122.5t-119.5 -79.5zM197 762l-72 63q23 10 62.5 39.5t71.5 70.5t32 86
q-9 -10 -32.5 -16t-46.5 -6q-50 0 -93.5 38.5t-43.5 118.5q0 88 53 138.5t130 50.5q79 0 131.5 -55t52.5 -162q0 -92 -35 -164t-91 -122.5t-119 -79.5z" />
    <glyph glyph-name="quotedblbase" unicode="&#x201e;" horiz-adv-x="956" 
d="M692 340q76 0 129.5 -52.5t53.5 -153.5q0 -89 -37 -174t-98 -153t-133 -107l-80 90q34 18 74 49t73.5 71t46.5 85q-19 -11 -55 -11q-61 0 -108.5 47t-47.5 127q0 51 24.5 92.5t66 65.5t91.5 24zM259 340q76 0 129.5 -52.5t53.5 -153.5q0 -89 -37 -174t-98 -153t-133 -107
l-80 90q34 18 74 49t73.5 71t46.5 85q-19 -11 -55 -11q-61 0 -108.5 47t-47.5 127q0 51 24.5 92.5t66 65.5t91.5 24z" />
    <glyph glyph-name="dagger" unicode="&#x2020;" horiz-adv-x="862" 
d="M274 -254v1674h271v-1674h-271zM82 788v258h647v-258h-647z" />
    <glyph glyph-name="daggerdbl" unicode="&#x2021;" horiz-adv-x="871" 
d="M293 -254v1674h270v-1674h-270zM104 347v258h646v-258h-646zM108 788v258h646v-258h-646z" />
    <glyph glyph-name="bullet" unicode="&#x2022;" horiz-adv-x="1121" 
d="M545 884q87 0 157.5 -42.5t113 -113.5t42.5 -158q0 -86 -42.5 -156.5t-113 -112.5t-157.5 -42q-86 0 -156.5 42.5t-112.5 113t-42 155.5q0 86 42 157.5t112.5 114t156.5 42.5z" />
    <glyph glyph-name="ellipsis" unicode="&#x2026;" horiz-adv-x="1641" 
d="M263 -24q-74 0 -127.5 53.5t-53.5 127.5q0 76 53.5 129.5t127.5 53.5q76 0 129 -53.5t53 -129.5q0 -74 -53 -127.5t-129 -53.5zM823 -24q-74 0 -127.5 53.5t-53.5 127.5q0 76 53.5 129.5t127.5 53.5q76 0 129 -53.5t53 -129.5q0 -74 -53 -127.5t-129 -53.5zM1380 -24
q-74 0 -127.5 53.5t-53.5 127.5q0 76 53.5 129.5t127.5 53.5q76 0 129 -53.5t53 -129.5q0 -74 -53 -127.5t-129 -53.5z" />
    <glyph glyph-name="perthousand" unicode="&#x2030;" horiz-adv-x="2225" 
d="M1577 1255l92 -127l-1577 -986l-92 127zM82 1029q0 87 44 158.5t123 114t182 42.5t181.5 -42.5t122.5 -114t44 -158.5q0 -85 -43.5 -156.5t-122 -115t-182.5 -43.5q-105 0 -183.5 43.5t-122 115t-43.5 156.5zM289 1029q0 -65 39 -105t103 -40q61 0 99.5 40t38.5 105
q0 64 -38.5 105.5t-99.5 41.5q-63 0 -102.5 -41.5t-39.5 -105.5zM717 291q0 87 44 158t123 114t182 43t181.5 -43t122.5 -114t44 -158q0 -85 -43.5 -157t-122 -115t-182.5 -43t-183 43t-122.5 115t-43.5 157zM924 291q0 -65 39 -105t103 -40q61 0 99.5 40t38.5 105
q0 64 -38.5 105.5t-99.5 41.5q-63 0 -102.5 -41.5t-39.5 -105.5zM1482 291q0 87 44 158t123 114t182 43t181.5 -43t122.5 -114t44 -158q0 -85 -43.5 -157t-122 -115t-182.5 -43q-105 0 -183.5 43t-122 115t-43.5 157zM1689 291q0 -65 39 -105t103 -40q61 0 99.5 40t38.5 105
q0 64 -38.5 105.5t-99.5 41.5q-63 0 -102.5 -41.5t-39.5 -105.5z" />
    <glyph glyph-name="guilsinglleft" unicode="&#x2039;" horiz-adv-x="617" 
d="M507 162l-146 -116l-313 399l313 399l146 -115l-221 -284z" />
    <glyph glyph-name="guilsinglright" unicode="&#x203a;" horiz-adv-x="617" 
d="M227 46l-146 116l220 283l-220 284l146 115l312 -399z" />
    <glyph glyph-name="fraction" unicode="&#x2044;" horiz-adv-x="445" 
d="M511 1320h181l-768 -1320h-181z" />
    <glyph glyph-name="uni2074" unicode="&#x2074;" horiz-adv-x="455" 
d="M343 1321v-311h62v-105h-62v-111h-119v111h-217v95l199 321h137zM224 1010v158v0l-97 -158h97z" />
    <glyph glyph-name="colonmonetary" unicode="&#x20a1;" horiz-adv-x="1165" 
d="M1052 1376h187l-660 -1568h-186zM789 1383h187l-660 -1568h-186zM1045 990q-26 21 -93.5 50t-200.5 29q-87 0 -160 -29.5t-126.5 -83.5t-82.5 -129t-29 -166q0 -122 50 -214.5t140 -143t208 -50.5q132 0 199.5 27t94.5 46v-301q-42 -20 -124.5 -34.5t-169.5 -14.5
q-229 0 -388 91t-240.5 246t-81.5 348t88 347.5t247.5 245t374.5 90.5q94 0 169 -12t125 -40v-302z" />
    <glyph glyph-name="franc" unicode="&#x20a3;" horiz-adv-x="960" 
d="M-19 395h672v-185h-672v185zM91 1320h763v-262h-464v-266h429v-261h-429v-531h-299v1320z" />
    <glyph glyph-name="lira" unicode="&#x20a4;" horiz-adv-x="1225" 
d="M259 631q-12 19 -26.5 51t-28.5 73t-23 87.5t-9 95.5q0 114 50.5 207t149.5 147t245 54q137 0 229 -49t144 -119t65 -135l-246 -123q-5 41 -26 84t-59 73t-96 30q-80 0 -121.5 -48.5t-41.5 -132.5q0 -37 9 -80.5t22 -86t26 -76.5t22 -52q33 -78 44.5 -134.5t11.5 -108.5
q0 -41 -11 -78t-15 -46q19 -2 41 -11.5t47.5 -20.5t55.5 -20t64 -9q39 0 63 19.5t37 43t15 34.5l240 -88q-13 -50 -52.5 -105.5t-105.5 -93t-159 -37.5q-74 0 -131 14.5t-105.5 32.5t-97 32.5t-106.5 14.5q-27 0 -48.5 -12.5t-35 -29t-18.5 -28.5h-213q1 79 37.5 142.5
t96 100.5t129.5 37q11 18 17.5 41t6.5 57q0 46 -26 113t-67 140zM83 755h750v-124h-750v124zM83 548h750v-124h-750v124z" />
    <glyph glyph-name="uni20A6" unicode="&#x20a6;" horiz-adv-x="1447" 
d="M83 0v1320h408l535 -1040l-22 -4v1044h299v-1320h-410l-533 1046l22 -4v-1042h-299zM-28 565v190h1451v-190h-1451z" />
    <glyph glyph-name="peseta" unicode="&#x20a7;" horiz-adv-x="1106" 
d="M85 0v1320h480q127 0 229 -44.5t162.5 -135t60.5 -226.5q0 -135 -60.5 -229.5t-162.5 -144t-229 -49.5h-181v-491h-299zM384 727h98q61 0 109.5 18t77.5 57.5t29 104.5q0 66 -29 104.5t-77.5 55.5t-109.5 17h-98v-357zM-20 843v127h1128v-127h-1128z" />
    <glyph glyph-name="uni20A9" unicode="&#x20a9;" horiz-adv-x="1830" 
d="M321 0l-301 1320h343l159 -926h-4l248 926h225l249 -926h-4l159 926h343l-303 -1320h-359l-224 921h54l-224 -921h-361zM7 565v190h1735v-190h-1735z" />
    <glyph glyph-name="dong" unicode="&#x20ab;" horiz-adv-x="1117" 
d="M436 -24q-119 0 -207 58.5t-136.5 157t-48.5 218.5t48.5 218.5t136.5 157.5t207 59q79 0 140 -24.5t99 -58t46 -61.5v675h304v-1376h-301v133q-19 -37 -62 -73.5t-101 -60t-125 -23.5zM529 215q55 0 98.5 25t68.5 69.5t25 100.5t-25 100.5t-68.5 70t-98.5 25.5
q-53 0 -95.5 -25.5t-67 -70t-24.5 -100.5t24.5 -100.5t67 -69.5t95.5 -25zM136 -269v190h651v-190h-651zM457 1015v190h651v-190h-651z" />
    <glyph glyph-name="Euro" unicode="&#x20ac;" horiz-adv-x="1311" 
d="M15 874h995v-164h-995v164zM15 607h995v-164h-995v164zM844 272q92 0 167.5 27t112.5 53l128 -254q-46 -40 -159.5 -81t-269.5 -41q-146 0 -274 51t-226 143.5t-153 217t-55 270.5t55 271.5t152.5 218.5t226 144.5t274.5 51.5q156 0 269.5 -41t159.5 -81l-128 -254
q-37 27 -112.5 53.5t-167.5 26.5q-101 0 -177 -31.5t-127 -86.5t-76 -124t-25 -145q0 -77 25 -146.5t76 -124.5t127 -86.5t177 -31.5z" />
    <glyph glyph-name="uni20AD" unicode="&#x20ad;" horiz-adv-x="1158" 
d="M62 0v1320h299v-540l374 540h337l-450 -638l502 -682h-357l-406 577v-577h-299zM-23 565v190h1129v-190h-1129z" />
    <glyph glyph-name="uni20B1" unicode="&#x20b1;" horiz-adv-x="1106" 
d="M85 1320h480q127 0 232 -57.5t168.5 -168.5t63.5 -272q0 -159 -63.5 -274.5t-168.5 -177.5t-232 -62h-181v-308h-299v1320zM384 544h98q61 0 112.5 28.5t83.5 88t32 154.5q0 96 -32 155t-83.5 86.5t-112.5 27.5h-98v-540zM-3 655v127h1111v-127h-1111zM-3 847v126h1111
v-126h-1111z" />
    </font>
</defs>
</svg>
